<?xml version="1.0" encoding="UTF-8"?> <svg xmlns="http://www.w3.org/2000/svg" id="Layer_1" data-name="Layer 1" viewBox="0 0 144.37 57"><defs><style>.cls-1{fill:#38749d;}.cls-2{fill:#ffb600;}.cls-3{fill:#0073bc;}.cls-4{fill:#ee4036;}</style></defs><title>Diverzu</title><path class="cls-1" d="M68.49,19.15a.67.67,0,0,1-.64-.87c.47-1.5,1.91-2.56,4.2-2.56a4,4,0,0,1,4.07,2.52.67.67,0,0,1-.62.91Zm14.62,5.67a1,1,0,0,0,1-1,22.2,22.2,0,0,0-.66-5.73c-1.58-5.13-6.07-7.75-11.61-7.75a12.41,12.41,0,0,0-12.13,9,1.24,1.24,0,0,0,0,.16,2.49,2.49,0,0,0-.09.37,11.68,11.68,0,0,0-.28,2.53v.11a11,11,0,0,0,4.14,9.06,13.07,13.07,0,0,0,3.64,2,13,13,0,0,0,4.76.9c4.53,0,8.72-1.35,10.91-4.68a7.89,7.89,0,0,0,1-2.09.54.54,0,0,0-.51-.69h-7.6a.55.55,0,0,0-.36.15A4.7,4.7,0,0,1,72,28.26a4,4,0,0,1-4.14-2.72.56.56,0,0,1,.54-.72Z" transform="translate(-0.98 -0.87)"></path><path class="cls-1" d="M33.81,33.67H26.66a.6.6,0,0,1-.6-.61V11.39h8.36V33.06a.61.61,0,0,1-.61.61" transform="translate(-0.98 -0.87)"></path><path class="cls-1" d="M103.07,18a.6.6,0,0,1-.59-.6v-5.5a.47.47,0,0,1,.47-.47h15.61a1.49,1.49,0,0,1,1.49,1.49v1.4A5.18,5.18,0,0,1,119,17.42l-6.88,8.92a.47.47,0,0,0,.37.76h4.73A3.85,3.85,0,0,1,121,30.16l.58,2.78a.6.6,0,0,1-.59.73H99a.73.73,0,0,1-.58-1.17l10.2-13.58a.6.6,0,0,0-.48-1Z" transform="translate(-0.98 -0.87)"></path><path class="cls-1" d="M52.34,33.31l8.37-21.23a.51.51,0,0,0-.47-.69H55.75a4.32,4.32,0,0,0-4.08,2.92l-2.1,6.19-.92,2.61a.31.31,0,0,1-.57,0l-.92-2.61-2.1-6.19A4.31,4.31,0,0,0,41,11.39h-4.5a.51.51,0,0,0-.47.69l8.15,21.23a.57.57,0,0,0,.52.36h7.13a.55.55,0,0,0,.52-.36" transform="translate(-0.98 -0.87)"></path><path class="cls-1" d="M26.06,9.43V4.9a4,4,0,0,1,4-4h3.73a.61.61,0,0,1,.61.61v8Z" transform="translate(-0.98 -0.87)"></path><path class="cls-1" d="M145.1,15.26A3.81,3.81,0,0,0,143,11.85a4,4,0,0,0-1.92-.49h-3.73a.6.6,0,0,0-.61.6v8h0v5.2h0v.28c-.67.31-1.37.59-2.1.87a5.37,5.37,0,0,1-1.84.41A2.38,2.38,0,0,1,131,26a2.67,2.67,0,0,1-.67-2V12a.54.54,0,0,0-.54-.54h-7.28A.54.54,0,0,0,122,12V27.1a7.29,7.29,0,0,0,1.78,5.28,6.41,6.41,0,0,0,4.85,1.84,14.8,14.8,0,0,0,4.92-1.1c1.28-.49,2.52-1,3.73-1.51a4,4,0,0,0,3.52,2.07h3.73a.6.6,0,0,0,.6-.61h0s0,0,0,0Z" transform="translate(-0.98 -0.87)"></path><path class="cls-1" d="M15.83,25.44a.45.45,0,0,1-.29.42c-.51.21-1,.41-1.59.61a6.76,6.76,0,0,1-2.14.45,2.88,2.88,0,0,1-2.12-.76,2.74,2.74,0,0,1-.76-1.92h0a29.9,29.9,0,0,1,0-3.4,4,4,0,0,1,.06-.5,2.81,2.81,0,0,1,.09-.44,3.4,3.4,0,0,1,.62-1.21,4.49,4.49,0,0,1,3.71-1.43,6.93,6.93,0,0,1,1.12.17,5.59,5.59,0,0,1,1,.35.4.4,0,0,1,.25.37Zm8.37-16V4.9a4.05,4.05,0,0,0-.07-.7A3.8,3.8,0,0,0,20.36.88h-4a.54.54,0,0,0-.54.54V11.66a16.35,16.35,0,0,0-2.17-.75,8.61,8.61,0,0,0-2.23-.3q-5.88,0-8.52,3.49a8.07,8.07,0,0,0-1.42,3,6.53,6.53,0,0,0-.22,1.07c-.06.39-.1.79-.13,1.21a72,72,0,0,0-.08,8.32v0a7,7,0,0,0,1.77,4.69,6.41,6.41,0,0,0,4.85,1.84,14.7,14.7,0,0,0,4.91-1.1c1.29-.49,2.53-1,3.74-1.52a4,4,0,0,0,3.55,2.12h3.72a.64.64,0,0,0,.44-.19.57.57,0,0,0,.12-.18.69.69,0,0,0,.05-.24V25h0V9.43Z" transform="translate(-0.98 -0.87)"></path><path class="cls-2" d="M26.06,9.43V4.9a4,4,0,0,1,4-4h3.73a.61.61,0,0,1,.61.61v8Z" transform="translate(-0.98 -0.87)"></path><path class="cls-1" d="M100.63,11.88a.47.47,0,0,0-.48-.48H98.88a10.75,10.75,0,0,0-3.71.68,15.48,15.48,0,0,0-3.26,1.61l0,0a4,4,0,0,0-3.52-2.17l-.27,0H86.3a.59.59,0,0,0-.59.59v21a.61.61,0,0,0,.61.61h7.15a.61.61,0,0,0,.62-.61V20.55a.85.85,0,0,1,.35-.7,8.88,8.88,0,0,1,2.81-1.29,12.9,12.9,0,0,1,2.81-.44.59.59,0,0,0,.58-.59Z" transform="translate(-0.98 -0.87)"></path><path class="cls-3" d="M78.88,43.62a3,3,0,0,1-2.78,2H73.22a.86.86,0,0,0-.8.55L71.16,49.6a1.08,1.08,0,0,1-1,.71H64.73a.13.13,0,0,1-.07-.23l4-2.72a1.83,1.83,0,0,0,.68-.87l.35-1h-11L59.59,43A4.73,4.73,0,0,1,64,39.88H79.69a.39.39,0,0,1,.36.52Z" transform="translate(-0.98 -0.87)"></path><path class="cls-4" d="M61.27,50.74a2.53,2.53,0,0,0-.86.95H71a1.4,1.4,0,0,0,1.33-.93l1.16-3.18a1,1,0,0,1,.92-.65h3.23l-3.18,8.8a3.24,3.24,0,0,1-3,2.13H61.24A5,5,0,0,1,57,55.68a4.8,4.8,0,0,1-.5-4.31l1.63-4.44h8.35a.1.1,0,0,1,0,.18Z" transform="translate(-0.98 -0.87)"></path><path class="cls-3" d="M112,50.42l3.13-3.11h-2.88V45.74h5.5V47.3l-3.14,3.15h3.2l.46,1.57h-5.52a.76.76,0,0,1-.75-.75Z" transform="translate(-0.98 -0.87)"></path><path class="cls-3" d="M125.55,45.74h2v1.1h0a1.81,1.81,0,0,1,1.88-1.15,2,2,0,0,1,.49.05v1.8a2.69,2.69,0,0,0-.78-.12,1.44,1.44,0,0,0-1.55,1.49V52h-2.06Z" transform="translate(-0.98 -0.87)"></path><rect class="cls-3" x="129.72" y="44.87" width="2.06" height="6.28"></rect><path class="cls-3" d="M141.64,50.63c-1.07,0-1.4-.93-1.4-1.74s.33-1.76,1.4-1.76,1.41,1,1.41,1.76-.33,1.74-1.41,1.74M145.35,52a3.07,3.07,0,0,1-.4-1.61V48.89h0a3.31,3.31,0,1,0-3.31,3.31,2.11,2.11,0,0,0,1.51-.6,1.43,1.43,0,0,0,.29.42Z" transform="translate(-0.98 -0.87)"></path><path class="cls-3" d="M124.78,50.29V45.74h-2.06v3.37c0,1.11-.69,1.4-1.12,1.4-.67,0-1-.29-1-1.13V45.74h-2.06v3.78c0,1.64.52,2.68,2.33,2.68a2.3,2.3,0,0,0,1.91-1,1.81,1.81,0,0,0,.39.86h2.06a3.38,3.38,0,0,1-.43-1.73" transform="translate(-0.98 -0.87)"></path><path class="cls-3" d="M136.59,44.62v1.13h1.89l-1.42,1.55h-.47v2.63c0,.5.29.61.74.61a3.25,3.25,0,0,0,.45-.06l.76,1.4a8.7,8.7,0,0,1-1.81.21c-1.75,0-2.2-.52-2.2-2.22V47.3h-1l2.58-2.88a.3.3,0,0,1,.52.2" transform="translate(-0.98 -0.87)"></path><path class="cls-3" d="M132.75,45.07H130.7V44.2a.31.31,0,0,1,.31-.31h1.43a.31.31,0,0,1,.31.31Z" transform="translate(-0.98 -0.87)"></path><path class="cls-3" d="M88.4,48.9a3.62,3.62,0,0,0-.15-1.06,2.48,2.48,0,0,0-.4-.85,1.94,1.94,0,0,0-.67-.57,2.06,2.06,0,0,0-.91-.2,2.11,2.11,0,0,0-.85.16,2,2,0,0,0-.69.48,2.34,2.34,0,0,0-.45.77,3.15,3.15,0,0,0-.16,1.06,4,4,0,0,0,.09,1.11,2.62,2.62,0,0,0,.39.9,2,2,0,0,0,.68.62,2.07,2.07,0,0,0,1,.22,1.86,1.86,0,0,0,.89-.21,2,2,0,0,0,.67-.57,2.76,2.76,0,0,0,.42-.84,3.4,3.4,0,0,0,.15-1m0-3.17h.72v5.69A5.91,5.91,0,0,1,89,52.63a2.71,2.71,0,0,1-.46,1,2.37,2.37,0,0,1-.9.7,3.62,3.62,0,0,1-1.47.26A3.51,3.51,0,0,1,85,54.43a2.87,2.87,0,0,1-.82-.44,2,2,0,0,1-.48-.59,1.37,1.37,0,0,1-.17-.6h.78a1.36,1.36,0,0,0,.26.57,1.48,1.48,0,0,0,.43.36,1.93,1.93,0,0,0,.56.17,4.23,4.23,0,0,0,.63.05,2.41,2.41,0,0,0,1.19-.26A1.73,1.73,0,0,0,88,53a2.6,2.6,0,0,0,.3-.94A9.33,9.33,0,0,0,88.4,51a2.29,2.29,0,0,1-1,.88,2.9,2.9,0,0,1-1.28.3,2.55,2.55,0,0,1-2.13-1,3.12,3.12,0,0,1-.51-1.07,4.36,4.36,0,0,1-.17-1.26,5.39,5.39,0,0,1,.15-1.3A3,3,0,0,1,84,46.51a2.42,2.42,0,0,1,.88-.69,3,3,0,0,1,1.3-.26,2.27,2.27,0,0,1,.62.09,2.48,2.48,0,0,1,.62.24,2.29,2.29,0,0,1,.54.4,1.84,1.84,0,0,1,.41.55h0Z" transform="translate(-0.98 -0.87)"></path><path class="cls-3" d="M90.61,52h-.73v-6.3h.73v1.18h0a2.18,2.18,0,0,1,.79-1,2.36,2.36,0,0,1,1.27-.3v.79a2,2,0,0,0-1,.2,1.64,1.64,0,0,0-.64.55,2.24,2.24,0,0,0-.33.84,5.39,5.39,0,0,0-.09,1Z" transform="translate(-0.98 -0.87)"></path><path class="cls-3" d="M97.71,45.73h.72V52h-.72v-.88q-.15.18-.33.36a2.36,2.36,0,0,1-.42.33,2.43,2.43,0,0,1-.56.26,2.63,2.63,0,0,1-.73.1,2.67,2.67,0,0,1-1-.18,1.61,1.61,0,0,1-.69-.49,2.12,2.12,0,0,1-.38-.73,3.8,3.8,0,0,1-.11-.92V45.73h.73v4.14a1.84,1.84,0,0,0,.37,1.24,1.58,1.58,0,0,0,1.24.43,1.92,1.92,0,0,0,.81-.17,1.61,1.61,0,0,0,.6-.5,2.21,2.21,0,0,0,.38-.75,3.22,3.22,0,0,0,.14-1Z" transform="translate(-0.98 -0.87)"></path><path class="cls-3" d="M99.93,48.9a3.4,3.4,0,0,0,.14,1,2.76,2.76,0,0,0,.42.84,2,2,0,0,0,.67.57,1.86,1.86,0,0,0,.89.21,2,2,0,0,0,1-.22,2,2,0,0,0,.69-.62,2.54,2.54,0,0,0,.39-.9,4.46,4.46,0,0,0,.1-1.11,3.14,3.14,0,0,0-.17-1.06,2.34,2.34,0,0,0-.45-.77,2.11,2.11,0,0,0-.68-.48,2.2,2.2,0,0,0-.86-.16,2.06,2.06,0,0,0-.91.2,1.94,1.94,0,0,0-.67.57,2.48,2.48,0,0,0-.4.85,3.62,3.62,0,0,0-.14,1.06m0,5.61H99.2V45.73h.73v1.11h0a2.19,2.19,0,0,1,.41-.55,2.29,2.29,0,0,1,.54-.4,2.48,2.48,0,0,1,.62-.24,2.27,2.27,0,0,1,.62-.09,3,3,0,0,1,1.3.26,2.42,2.42,0,0,1,.88.69,3,3,0,0,1,.51,1.06,5.39,5.39,0,0,1,.15,1.3,4.41,4.41,0,0,1-.17,1.26,3.12,3.12,0,0,1-.51,1.07,2.73,2.73,0,0,1-.88.73,2.7,2.7,0,0,1-1.24.27,2.91,2.91,0,0,1-1.29-.3,2.21,2.21,0,0,1-1-.88Z" transform="translate(-0.98 -0.87)"></path><path class="cls-3" d="M110.59,48.88a4.44,4.44,0,0,0-.12-1.05,2.48,2.48,0,0,0-.38-.84,1.82,1.82,0,0,0-.66-.57,2.19,2.19,0,0,0-1-.2,2,2,0,0,0-1,.22,1.9,1.9,0,0,0-.66.6,2.63,2.63,0,0,0-.38.85,4.19,4.19,0,0,0,0,2.07,2.44,2.44,0,0,0,.41.84,1.76,1.76,0,0,0,.66.55,2.12,2.12,0,0,0,.93.19,2,2,0,0,0,1-.22,1.9,1.9,0,0,0,.66-.6,2.73,2.73,0,0,0,.38-.85,4.07,4.07,0,0,0,.12-1m-2.14,3.32a3.26,3.26,0,0,1-1.14-.22,2.5,2.5,0,0,1-.92-.62,2.94,2.94,0,0,1-.63-1,4.28,4.28,0,0,1-.23-1.45,4.47,4.47,0,0,1,.18-1.29,3.05,3.05,0,0,1,.55-1.06,2.67,2.67,0,0,1,.91-.71,3,3,0,0,1,1.28-.26,3.06,3.06,0,0,1,1.29.26,2.67,2.67,0,0,1,.91.71,2.9,2.9,0,0,1,.54,1,4.54,4.54,0,0,1,.18,1.3,4.13,4.13,0,0,1-.21,1.36,3,3,0,0,1-.59,1,2.46,2.46,0,0,1-.92.67,2.92,2.92,0,0,1-1.2.24" transform="translate(-0.98 -0.87)"></path></svg> 