<?xml version="1.0" encoding="UTF-8"?>
<svg id="Capa_1" data-name="Capa 1" xmlns="http://www.w3.org/2000/svg" viewBox="0 0 529.82 386.07">
  <defs>
    <style>
      .cls-1 {
        fill: #f6c3cc;
      }
    </style>
  </defs>
  <path class="cls-1" d="M452.71,148.75q.14-4.24-4.78-6.74c4.06-.19,7.18,0,6.31,5.11-.24,1.42,.11,2.7,1.87,2.93,2.29,.29,1.68-1.54,1.86-2.67,1.73-10.69,.46-21.6,2.54-33.15,1.31,4.99,.41,9.24,.31,13.42-.15,6.48-.33,12.99-1.07,19.42-.41,3.58,.75,4.92,3.96,6.02,7.08,2.43,7.01,2.61,3.07,8.81-.09,.14-.2,.27-.27,.42-.92,2.04-4.07,4.3-2.65,5.85,1.84,2.01,5.62,2.47,8.33,1.02,4.75-2.54,9.76-.47,14.65-1.36,3.67-.67,6.82,3.36,10.14,5.66-8.81-2.49-17.28,2.18-25.9,.47-3.63-.72-6.48,2-9.61,3.39-1.66,.74-1.27,2.18-1.23,3.44,.72,21.44,.38,42.89,.78,64.32,.21,11.03-1.23,21.88-1.16,32.83,.05,7.36,5.5,11.68,12.44,8.73,4.87-2.07,9.66,0,14.52-1.35,3.1-.86,5.37,3.97,9.04,4.89-6.63-.43-12.86,1.94-19.35,1.61-2.49-.13-5.01-.23-7.48,0-5.32,.49-7.54,2.83-6.3,7.8,1.86,7.49-1.02,13.67-4.08,19.98-.84,1.73-1.6,.89-2.69,.27-4.18-2.37-6.25-12.01-3.62-17.44,.21-.43,.89-.7,.96-1.11,.47-2.77,1.93-6.09,.92-8.2-.92-1.9-4.58-.34-6.97-.02-45.16,6.09-89.92,14.76-135.01,21.25-22.72,3.27-45.48,6.3-68.24,9.28-6.2,.81-12.57-.18-18.73,1.4-1.07,.27-1.06,.3-2.4,3.07-.12,.25-.42,.66-.56,.63-6.57-1.19-4.37,4.11-4.24,6.6,.32,6.14-5.03,10.26-4.63,16.63-7.93-4-6.97-11.03-7.07-17.33-.12-7.7,.14-7.85-7.25-5.72-6.98,2.01-14.19,1.66-21.28,2.51-5.81,.69-11.1,2.58-16.32,4.91-2.49,1.11-5.33,1.38-7-.34-1.68-1.73-3.94-3.73-2.69-7.25,1.08-3.05,2.83-3.73,5.22-2.65,6.56,2.95,13.3,1.98,19.94,1,4.21-.62,8.26-2.31,12.5-4.3-18.57-6.4-37.86-10.04-56.62-15.53-18.91-5.53-38.07-10.59-57.54-13.79-1.46,19.01,8.67,39.08-2.71,58.13-5.91-3.23-8.67-10.59-6.14-18.27,2.63-7.98,2.03-16.26,3.13-24.38,.24-1.8-.03-3.66,.06-5.49,.35-7.31-5.05-11.57-11.99-8.84-4.52,1.78-9.02,.23-13.55,1.19-4.35,.92-6.8-4.17-10.71-5.41,.16-.25,.38-.73,.46-.71,8.24,2.31,16.42-.79,24.7-.22,8.38,.57,12-3.49,11.71-11.7-.56-15.77-1.69-31.53-1.98-47.31-.13-6.85,1.5-13.69,.94-20.66-1.09-13.43-1.89-26.89-.61-40.37,.37-3.94,1.56-7.64,.93-11.88-.93-6.19-4.75-10.01-10.87-8.38-8.57,2.28-16.85,3.61-24.16-3.21-.36-.33-1.11-.24-1.66-.9,6.59,1.35,13.08-.67,19.43-.38,6.19,.29,11.51-1.15,17.04-3.06,1.72-.59,.91-1.2,.39-2.01-1.21-1.9-2.73,.38-4.05-.3,.18-1.73,1.65-2.43,2.74-3.3,2.07-1.66,2.56-2.73,.34-5.07-3.46-3.65-2.34-9.91,1.94-12.31,2.6-1.46,3.29-3.49,3.29-6.13,0-5.12,0-10.24,.83-15.36,2.04,5.79-.09,11.7,.69,18.28,8.14-5.87,17.73-7.72,26.37-12.07,15.57-7.85,31.22-15.53,46.46-23.97,19.18-10.62,38.81-20.47,56.98-32.85,2.27-1.55,4.58-3.5,7.54-3.43,2.31,.05,1.74-1.65,1.92-2.72,.35-2.08,.39-4.22,1.08-6.34,.15,1.07,.64,2.23,.39,3.21-1.66,6.51,2.11,8.41,7.46,10.04,9.8,2.98,19.46,6.45,29.04,10.07,4.47,1.69,8.14,4.98,12.72,6.76,30.77,11.97,62.48,21.48,92.39,35.67,19.51,9.26,39.11,18.35,58.64,27.58,.83,.39,2.02,.48,2.33,1.65-.15,.64-.53,.67-1.04,.45-61.61-27.05-125.38-48.57-187.84-73.45-3.7-1.47-7.48-2.78-11.08-4.46-2.61-1.22-3.21-.33-3.23,2.14-.06,8.94-2.47,6.87,6.4,10.15,35.51,13.11,70.9,26.54,106.29,39.96,40.68,15.43,81.55,30.26,122.68,44.37,.46,.16,.93,.3,1.7,.55ZM116.67,105.52c.64-.37,2.02-.68,1.57-1.36-.7-1.04-1.63-.26-2.18,.65-.46,.1-.83,.37-.49,.81,.12,.16,.72-.05,1.1-.1Zm7.97-5.26c-.63,.37-1.96,.66-1.55,1.32,.64,1.02,1.6,.26,2.26-.48,.58-.13,1.37-.39,1.06-1.01-.53-1.07-1.18-.07-1.77,.17Zm36.32,26.45c-4.75,.67-7.88,3.56-7.87,8.15,.03,15.8,.13,31.6-.76,47.38-.05,.88-.46,2.26,.91,2.44,1.09,.14,2.43,0,3.35-.55,1.38-.81-.13-1.65-.41-2.45-.74-2.08-1.3-4.18-.42-6.32,4.64-11.36,3.9-23.32,3.37-35.11-.21-4.73-.73-9.06,2.36-12.99,.13-.34,.45-.92,.37-.98-.47-.34-.74-.01-.9,.44Zm244.31,96.14c-.43,4.11-4.56,8.4,.62,12.25,.74,.55,.42,1.5,.52,2.31,.35,2.95,.93,5.87,1.27,8.82,.3,2.58,2.07,2.56,3.97,2.58,2.55,.03,1.81-1.86,1.84-3.19,.26-10.46,.62-20.92,.58-31.37,0-2.16,2.03-5.32-1.95-6.7-.98-.34,.38-.74,.69-.81,2-.46,1.35-2.07,1.35-3.24,0-12.3-.13-24.59-.08-36.89,.01-2.17-.82-3.72-2.59-4.32-2.85-.97-5.79-2.26-9.03-1.09,5.03,4.47,6.25,10.36,3.62,17.49-1.23,3.34-3.11,6.82-1.73,10.28,2.02,5.04,4.19,15.52,3.56,20.63-.43,3.53-.35,7.16-2.57,10.23-.03,1.01-.05,2.02-.08,3.03Zm-57.21,79.78c6.03-.08,8.17-4.69,4.89-10.91-1.59,1.57-.57,4.86-3.53,5.39,2.29-10.43-2.87-19.14-6.69-28.09-1.98-4.62-5.33-7.95-11.14-6.95-.77,.13-2,.16-2.34-.29-3.68-4.8-7.1-1.17-10.16,.54-5.35,2.98-7.93,8.24-10.05,13.79-2.55,6.68-1.84,13.49-.8,20.21,.68,4.39,.55,8.42-1.53,12.58,6.08,.03,11.77-1.32,17.48-2.26,7.96-1.31,16.07-1.8,23.88-4.01Zm-66.78,5.64c3.47,.57,.23,2.98,1.4,4.34,1.49,.01,3.98,.94,4.39-1.38,.88-5.04,1.62-10.2,.51-16.04-3.47,3.23-1.44,8.38-5.32,10.51,2.08-12.19-2.52-22.8-7.84-33.23-2.82-5.52-7.05-9.07-13.5-9.11-1.89-.01-4.19,1.46-5.59-.2-3.71-4.4-7.2-1.81-10.28,.27-10.84,7.33-14.8,18.27-15.03,30.81-.1,5.37,.72,10.77,.51,16.14-.15,3.7,.41,8.06-4.25,10.28,1.93,.13,3.59,.13,5.21-.11,14.78-2.2,29.53-4.6,44.33-6.54,3.9-.51,5.83-1.73,5.46-5.74ZM214.65,69.28c0,3.95,.17,7.78-.06,11.58-.17,2.79,.72,4.26,3.49,4.98,4.82,1.24,9.58,2.76,14.35,4.2,8.68,2.62,17.71,4.45,25.91,8.13,7.62,3.42,15.44,6.07,23.32,8.55,15.5,4.88,31.58,7.84,46.81,13.69,18.38,7.07,36.64,14.47,55.15,21.2,11.01,4,22.45,6.66,33.9,9.3,11.76,2.7,24.15,4.35,33.47,13.51,1.49,1.46,3.7,2.33,4.96-1.3,1.76-5.09,1.56-6.32-3.39-8.17-24.73-9.23-49.44-18.54-74.21-27.66-54.02-19.9-107.85-40.34-163.7-57.99Zm-56.36,241.13c10.41,2.48,20.59,4.84,30.73,7.36,2.87,.71,4.06,.35,4.18-3.04,.28-7.97,.78-15.93-.13-23.87-1.05-9.14-2.88-18.09-8.95-25.47-4.14-5.04-10.3-5.43-15.06-1.1-2.27,2.06-4.03,4.56-4.74,7.48-1.81,7.4-3.41,14.85-4.91,22.32-.37,1.87,.12,3.8,.55,5.77,.77,3.52,4.2,7.88-1.67,10.54ZM74.64,142.2c2.22-1.37,4.28-2.69,6.38-3.92,11.97-7.02,25.75-9.17,38.5-14.15,27.67-10.83,54.95-22.5,82.06-34.64,8.48-3.79,12.83-8.71,12.11-18.18-.24-3.13-.4-3.96-3.44-2.5-5.97,2.87-11.46,6.56-17.18,9.81-17.45,9.92-35.29,19.19-53.17,28.33-19.69,10.06-39.31,20.36-60.68,26.61-3.98,1.16-6.31,3.5-4.59,8.65Zm297.82,156.99c11.17-1.78,21.45-3.44,31.73-5.02,2.51-.39,2.39-2.37,2.82-4.06,2.57-10.2-3.02-18.22-7.22-26.59-1.11-2.21-3.43-2.33-5.58-2.35-1.47,0-3.14,.57-3.58-1.53-.59-2.78-2.31-1.61-3.8-1.16-8.2,2.5-14.93,14.39-14.03,23.61,.52,5.3,2.36,10.69-.34,17.09ZM251.77,117.29c-8.09-2.32-15.28-4.3-22.43-6.46-3.74-1.13-5.27,.13-5.29,3.93-.1,18.79-.27,37.57-.4,56.36,0,1.12-.21,2.27,1.02,3.11,5.43,3.71,12.78,.34,13.58-6.27,1.31-10.73,2.39-21.54,1.67-32.31-.6-8.95,2.9-14.58,11.84-18.37Zm19.27,31.08c.19-10.92,.74-19.75-10.68-24.1-7.42-2.82-14.13-.31-14.91,8.02-.79,8.52-2.16,16.91-4.21,25.19-.6,2.44,.13,3.52,2.54,4.17,7.42,1.99,14.97,2.28,22.58,2.64,3.75,.18,4.24-1.32,4.19-4.17-.08-4.48,1.07-8.92,.48-11.74Zm-20.89,35.69c-8.2-1.27-15.62-2.22-22.94-3.66-3.2-.63-3.66,.41-3.6,3.16,.24,11.96,.44,23.93,.47,35.9,.02,7,.48,13.94,1.64,20.84,.24,1.42,.15,2.81,2.38,3.04,6.76,.7,10.22-2.11,11.2-9,1.47-10.31-.23-20.55-.64-30.8-.43-10.97,.94-14.08,11.49-19.49Zm21.48-61.51c3.3,5.32,3.64,10.48,3.71,15.92,.1,7.08,.26,14.13,1.7,21.24,.9,4.47,2.18,9.2,1.89,13.99-.19,3-3.01,6.76-1.14,8.53,1.83,1.74,5.96,1.06,9.08,1.44,.83,.1,1.67,.12,2.48,.3,2.27,.51,3.34-.08,3.3-2.68-.24-16.12-.37-32.25-.52-48.38-.03-3.03-1.64-5.26-4.24-6.09-5.33-1.7-10.82-2.88-16.25-4.27Zm-.91,86.91c.28-4.96,1.17-10.04-1.61-14.61-3.01-4.94-8.92-6.81-15.91-5.26-4.6,1.02-8.64,6.22-9.01,11.91-.51,7.99,1.08,15.87,1.51,23.81,.06,1.14,.35,2.59,1.97,2.23,6.54-1.44,13.13,0,19.68-.47,1.84-.13,1.56-1.18,1.83-2.26,1.25-5.04,1.52-10.18,1.54-15.35Zm4.52,34.35c4.59,0,8.75-.18,12.88,.06,2.9,.17,3.78-1.01,3.8-3.68,.07-15.77,.17-31.53,.35-47.3,.03-2.16-.4-3.37-2.83-3.6-5.36-.5-10.69-1.46-16.1-.96-2.58,.24-2.59,1.52-1.21,3.27,2.8,3.56,3.4,7.64,3.64,12.1,.37,6.83,1.49,13.62,2.4,20.41,.9,6.68,1.9,13.34-2.92,19.69Zm-136.05,47.77c.89-10.89-.15-20.06-5.25-28.3-2.98-4.81-7.71-4.84-11.3-.41-1.84,2.26-3.08,4.91-3.18,7.73-.15,4.54-.69,9-2.08,13.26-1.99,6.12,3.76,11.03,2.28,16.96,3.66,1,7.33,2,10.99,2.99,.96,.26,1.97,.4,2.89,.76,3.93,1.55,6.14,1,5.71-3.97-.3-3.45-.06-6.96-.06-9.02Zm206.13-77.98c-.06,0-.11,0-.17-.01,0-3.49,.04-6.99-.02-10.48-.02-1.25,.17-2.71-1.93-2.72-7.49-.03-14.95-.55-22.36-1.71-1.35-.21-1.68,.39-1.76,1.59-.65,9.62,.57,19.12,1.85,28.62,.19,1.43,1.7,1.5,2.77,1.67,5.74,.96,11.45,2.02,17.28,2.4,2.5,.16,3.13-.64,3.23-2.94,.25-5.48,.73-10.95,1.11-16.42Zm-158.48-68.6h.09c0-3.33,0-6.65,0-9.98-.01-8.38-7.62-12.84-14.94-8.56-5.06,2.96-8.64,6.74-8.14,13.53,.56,7.72-.25,15.52,2.04,23.12,.4,1.32,.45,2.2,2.02,1.82,5.8-1.42,12.29-1.74,17.14-4.71,3.04-1.86,1.08-8.04,1.77-12.23,.16-.97,.02-1.99,.02-2.99Zm-.19,66.78c0-4.82,.02-9.64,0-14.45,0-1.5-.1-2.96-1.58-3.96-3.76-2.56-7.85-4.28-12.14-2.02-4.54,2.39-9.06,5.16-8.96,11.42,.11,7.26,.13,14.44,1.7,21.69,.72,3.31,.97,4.29,4.34,4.28,16.23-.06,16.82-.57,16.64-16.94Zm158.3-46.33c.08,0,.17,0,.25,0,0-1,0-2,0-2.99,.1-11.23-5.32-17.59-15.68-18.37-6.58-.5-10.08,2.98-10.54,9.36-.5,6.88,1.43,13.41,1.98,20.12,.15,1.88,1.71,1.98,3.17,2.5,4.16,1.48,8.48,.88,12.7,1.41,7.76,.97,7.76,1.05,8.1-6.54,.08-1.83,.01-3.66,.01-5.49ZM129.16,99.21c7.69-3.12,15.75-5.57,23.01-9.49,18.56-10,37.54-19.14,56.69-27.91,4.27-1.96,5.68-3.85,5.44-8.43-.22-4.25-.9-5.03-4.73-2.86-16.16,9.18-32.42,18.2-48.66,27.26-11.12,6.2-22.17,12.51-31.76,21.43Zm-5.04,132.1c.88-.06,2.86-.2,4.84-.33,6.53-.41,6.87-.78,7.08-7.22,.15-4.45,.37-8.9,.57-13.36,.48-10.77-2.55-13.95-11.67-12.37-4.47,.77-7.26,2.26-7.23,7.79,.03,5.45-1.19,10.92-2.92,16.27-2.95,9.13-2.69,9.21,6.72,9.21,.5,0,.99,0,2.6,0Zm199.65-93.72c-5.86-1.69-11.07-3.13-16.25-4.7-3.17-.96-3.83,.84-3.86,3.32-.16,15.48-.26,30.96-.45,46.44-.02,1.9,.71,2.58,2.5,2.93,4,.77,5.73-1.1,7-7.43,1.88-9.31,2.37-18.7,1.72-28.15-.23-3.25,.97-5.84,3.41-7.87,1.74-1.44,3.57-2.76,5.92-4.55Zm103.31,153.02c6.84-1.02,13.05-2.05,19.29-2.83,2.48-.31,3.3-1.55,3.72-3.81,1.47-8.08-2.86-14.7-5.36-21.76-.97-2.75-5.02-.6-5.84-2.39-1.8-3.91-3.66-1.44-5.26-.44-5.09,3.17-8.64,12.49-7.63,18.4,.7,4.08,1.89,8.16,1.08,12.82ZM136.48,159.11c-.06,0-.12,0-.18,0,0-4.13,0-8.27,0-12.4,0-1.4-.34-2.34-1.83-3.08-6.69-3.33-17.48,2.42-17.68,9.93-.19,7.2-.73,14.53,2.1,21.52,.37,.9,.06,2.04,1.51,1.74,5-1.04,10.51-1.29,14.6-4.28,2.55-1.86,.84-6.24,1.27-9.46,.17-1.31,.14-2.64,.2-3.96Zm178.39,48.21c-.36-2.5-1.57-6.18-1.26-9.72,.49-5.47-2.52-5.79-6.57-6.37-3.45-.49-3.92,.66-3.85,3.59,.23,9.15,.06,18.31,.45,27.44,.26,6.13,.06,12.31,1.45,18.38,.38,1.65,.95,2.36,2.56,2.17,1.02-.12,2.06,.39,2.66-1.35,3.73-10.72,4.34-21.83,4.55-34.15Zm87.32,12.93c0-2.82-.24-5.17,.05-7.45,.49-3.83-1.22-5.01-4.75-4.8-4.32,.25-8.6-.24-12.83-1.16-1.83-.4-2.56-.08-2.66,2.06-.35,7.93,.5,15.73,2.14,23.46,.37,1.74,1.69,2.54,3.56,2.63,4.47,.22,9.3-.09,12.93-1.93,2.26-1.15,1.27-6.39,1.4-9.84,.04-1.16,.12-2.31,.15-2.98Zm-209.73,24.38c2.94-.77,5.84,1.26,5.87-3.06,.14-19.28,.37-38.55,.67-57.82,.04-2.52-.69-3.03-3.17-2.63-5.12,.82-9.46,4.24-14.92,4.02,.8,.68,1.58,.89,2.33,1.18,8.25,3.19,9.39,5.31,9.1,14.1-.24,7.48-1.94,14.66-3.47,21.9-.5,2.39-2.53,5.66,2.78,4.36,.68-.17,1.48,.4,1.36,1.07-1,5.35,3.61,10.61-.56,16.89Zm151.33-100.69c6.31,4.47,7.52,10.27,6.32,16.88-.15,.81,.05,1.73-.24,2.47-2.8,7.21-3.59,14.37-.37,21.74,.76,1.73,.33,3.95,.78,5.86,.84,3.51,4.15,3.36,6.63,3.54,2.58,.19,2.66-2.17,2.62-4.28-.21-12.78-.42-25.55-.44-38.33,0-2.64-.71-4.85-3.04-5.67-3.67-1.29-7.42-2.79-12.27-2.2Zm58.39,35.14c.36-11.03-3.33-16.5-12.05-17.83-4.74-.73-8.01,2-8.05,6.79-.02,2.98-.04,5.97,.19,8.93,.8,10.43,2.46,12.05,11.66,11.8q7.94-.22,8.25-9.68Zm-205.8,96.51c.24-6.99,1.35-13.69,1.81-20.45,.19-2.87-.71-3.59-3.52-3.57-13.64,.14-27.29,.19-40.94-.03-3.19-.05-3.66,1.19-4.16,3.87-.64,3.42,1.08,6.36,1.11,9.62,.05,5.27,.56,10.54,.88,15.82,1.97-5.97,4.95-11.33,7.17-16.99,1.78-4.52,5.3-7.32,9.38-9.17,4.01-1.82,7.91-2.79,12.41,.58,7.21,5.4,12.95,11.51,15.84,20.32Zm162.49-54.25h.33c0-6.64-.03-13.28,0-19.92,.02-4.4-3.63-2.77-5.78-3.51-1.39-.48-2.55-.21-2.54,1.81,.06,10.5-3.07,20.46-5.31,30.57-.17,.79-.74,2.01,.15,2.22,4.96,1.19,3.04,5.3,3.27,8.12,.39,4.91,3.92,2.83,6.23,3.3,2.86,.58,3.74-.9,3.68-3.66-.14-6.3-.05-12.62-.05-18.92Zm-192.78-32.94c-.46-.28-.92-.57-1.38-.85-3.69,.75-7.36,1.58-11.07,2.22-1.72,.3-1.51,1.47-1.51,2.58,.04,15.22-2.58,30.25-3.03,45.44-.19,6.23,.29,6.64,7.18,5.75-2.15-3.85,.13-7.17,1.03-10.75,1.7-6.77,1.64-13.74,2.07-20.68,.5-8.18-3.21-17.6,6.71-23.72Zm27.87-11.68c3.44,.4,4.83-.64,4.69-4.05-.75-18.27-1.45-36.55-1.92-54.83-.09-3.63-1.68-4.33-4.57-3.72-4.72,1-8.98,3.23-14.15,5.41,1.46,.21,2.07,.26,2.67,.39,9.51,2.12,11.97,5.42,11.58,14.91-.29,6.96-2.08,13.63-3.34,20.41-.35,1.86-2.89,5.37,2.46,3.74,.9-.27,1.8,1.05,1.66,2.03-.76,5.31,2.62,10.27,.91,15.72Zm3.75-70.42c1.77,3.48,6.06,4.55,5.93,9.13-.42,13.97-.4,27.95-.52,41.92-.05,5.77,0,11.55,0,17.27,5.16,.15,6.63-2.14,6.26-6.7-.61-7.61-1.6-15.2-1.16-22.9,.82-14.26,1.34-28.54,2.02-43.43-4.44,1.67-8.37,3.15-12.52,4.72Zm187.2,49.11c-2.96-.85-4.68-1.35-6.4-1.84-9.34-2.66-9.63-2.67-9.98,6.77-.41,10.94-.19,21.91-.37,32.86-.04,2.34,.92,3.21,3.07,3.58,2.37,.41,1.97-1.3,2.57-2.6,2.97-6.42,3.44-13.14,3.8-20.11,.33-6.58-3.14-14.89,7.31-18.66ZM87.01,279.22c-.22,9.27,3.43,15.05,9.42,16.46,2.97,.7,4.31,.39,3.81-3.14-.73-5.08-1.41-10.31-.1-15.3,1.54-5.85-.54-10.67-3.31-15.34-2.66-4.47-5.48-4.25-7.95,.33-.96,1.77-1.75,3.68-1.5,5.68,.51,4.17-.09,8.26-.36,11.32Zm-6.75-45.33c4.91-.22,9.05-.5,13.19-.57,2.76-.05,3.92-1.58,4.04-4,.3-5.95,.79-11.92,.57-17.86-.26-6.95-2.17-8.13-9.1-6.79-1.39,.27-3.12,0-3.08,2.3,.14,9.18-3.13,17.71-5.61,26.93Zm364.51,1.81c.26-5.78,.61-11.55,.7-17.33,.02-1.4,.63-3.46-1.82-4-10.42-2.29-11.95-1.04-11.62,9.61,.02,.66,.09,1.33,.13,1.99,.65,10.33,1.37,10.81,12.21,11.01,1.66,.03,4.73,.49,4.7,3.88-.02,1.96,.49,3.94,.88,5.89,.23,1.18-.58,2.8,1.24,3.4,.82,.27,1.81,.32,2.27-.44,.7-1.17,.75-2.56-.05-3.73-3.01-4.42-1.84-9.22-1.66-14.05,.2-5.53,1.56-11.13-.15-16.72-.95,7.19-3.18,13.92-6.83,20.49Zm-241.66-28.87c-.05,10.97,.1,21.94,1.22,32.86,.19,1.9,.03,4.45,3.46,4.19,3.57-.27,2.22-2.74,2.12-4.39-1.1-18.75-2.07-37.48-.16-56.24,.15-1.46,1.87-4.46-1.9-4.29-2.65,.12-5.03,.42-4.85,4.44,.36,7.8,.1,15.62,.1,23.44Zm165.1,13.09c.26,5.07,.4,12.37,1.17,19.6,.21,1.95-.18,5.63,2.29,5.8,2.8,.19,1.64-3.27,2.24-5.13,.05-.16,.04-.34,.11-.48,5.19-11.79,4.08-24.04,2.47-36.28-.52-3.95-4.22-2.31-6.5-2.77-2.49-.5-1.71,1.88-1.74,3.13-.1,4.64-.04,9.28-.04,16.13ZM97.99,169.88c.12,0,.23,0,.35,0,0-1.99,.02-3.98,0-5.97-.01-.99-.08-1.99-.15-2.98-.29-4.12-4.12-6.66-7.98-4.98-3.16,1.37-5.69,3.81-5.79,7.43-.14,4.95-.05,9.96,.56,14.87,.9,7.27,1.35,7.23,8.39,5.7,3.34-.73,4.81-2.26,4.66-5.63-.13-2.81-.03-5.63-.03-8.44Zm112.64,90.59c0-2.41-.08-4.41,.02-6.4,.12-2.22-1.23-2.26-2.87-2.3-1.74-.04-2.81,.19-2.71,2.36,.2,4.24,.36,8.45,.72,12.7,1.11,12.89,1.12,25.85-.08,38.79-.22,2.41-.69,4.83-2.01,6.48-1.67,2.08-1.37,4.19-1.64,6.39-.39,3.17,2.08,2.82,3.87,3.23,2.71,.63,2.22-1.33,2.45-2.96,2.68-19.5,1.37-39.14,2.25-58.28Zm3.42-159.34c-.13,23.18-.42,45.91,.56,68.63,.07,1.74,.27,3.26,2.63,3.36,3.04,.13,2.04-2.1,2-3.44-.47-15.91-1.25-31.82-1.47-47.74-.09-6.56-2.94-14.25,6.22-18.56-3.75-.85-6.47-1.47-9.95-2.26Zm43.54,150.67c1.62,2.49,2.51,2.41,3.55,2.46,17.42,.81,26.09,9.44,27.02,26.92,.08,1.57,.1,2.9,3.11,4.2,0-10.96-.05-21.34,.05-31.72,.02-1.71-.75-1.87-2.04-1.87-10.24,0-20.48,0-31.69,0Zm-5.24,1.72c.01-.52,.02-1.04,.04-1.56-7.17,0-14.37,.37-21.5-.13-4.65-.33-5.94,1.54-5.58,5.53,.66,7.46,1.42,14.91,2.3,23.98,4.48-13.84,10.07-25.13,24.75-27.81Zm193.18-64.89c.55-8.43-1.24-12.08-6.95-14.18-3.71-1.36-6.19,.14-6.54,4.01-.55,5.96,.51,11.74,1.95,17.48,.32,1.26,1.26,1.72,2.52,1.93,6.51,1.08,8.26-.26,8.72-6.78,.06-.82,.2-1.64,.3-2.46Zm-113.3,62.17c-.03,.49-.07,.99-.1,1.48,2.5,.35,4.99,.76,7.5,1.02,6.8,.72,10.71,5.3,13.11,10.9,1.68,3.92,2.2,8.43,2.74,12.73,.92,7.42-.12,14.87-.15,22.31,0,.86,.03,2.83,.58,2.31,2.1-1.97,5.05,1.05,6.66-1.38-2.4-3.27-2.09-7.27-2.85-11.11-1.69,1.29-.65,3.23-1.71,4.62-1.05-2.28-.79-4.29-.73-6.26,.31-11.11,.66-22.23,.98-33.34,.05-1.59,.55-3.37-2.21-3.33-7.93,.1-15.87,.03-23.8,.03Zm-117.12-40.46c-.06,0-.11,0-.17,0,0,9.66-.05,19.32,.05,28.97,.01,1.35-1.12,3.59,1.78,3.71,3.28,.13,2.06-2.37,2.15-3.89,.19-3.32,.15-6.66,.17-9.98,.08-15.8,.13-31.59,.22-47.39,0-1.68-.24-2.87-2.35-2.97-2.74-.13-1.81,1.86-1.82,3.07-.07,9.49-.04,18.99-.04,28.48Zm83.24,100.04c-2.73-4.09-3.1-8.71-3.21-13.33-.14-6.24,.39-12.35,1.51-18.6,1.36-7.56,.52-15.54,1.46-23.3,.22-1.82,.63-3.54-2.4-3.61-2.78-.07-2.91,1.48-2.97,3.37-.19,6.64-.27,13.28-.51,19.92-.34,9.29,.81,18.73-1.16,27.82-2.05,9.48-2.39,9.62,7.27,7.73Zm-223.35-21.63c7.01-11.39,4.35-24.95,11.19-36.21-2.82,.9-4.06-1.04-5.75-1.99-4.55-2.57-5.43-2.18-5.44,2.76-.02,11.47,0,22.94,0,35.44ZM147.57,118.4c3.62,1.06,5.64-.37,7.75-1.22,17.9-7.12,35.77-14.3,53.67-21.4,2.09-.83,3.92-2.09,2.78-4.31-1.13-2.21-2.95-.09-4.22,.46-19.74,8.63-39.43,17.37-59.99,26.46Zm21.73,63.27c3.99-.6,8.24-1.21,12.48-1.89,.59-.09,1.12-.53,1.68-.81-2.35-4.2,2.32-7.23,1.84-11.13-.11-.89,.35-2.08-1.3-1.98-5.79,.35-10.62,3.44-15.58,5.85-2.59,1.26-1,5.15-2.03,7.75-.86,2.16,1.06,2.28,2.9,2.22Zm256.65,26.79c-1.73-2.21-3.54-4.54-1.89-6.9,3.16-4.52,2.76-9.62,3.53-14.63,.97-6.3-3.74-13.79,4.65-18.85-2.98-.71-5.08-1.16-7.16-1.71-1.91-.51-2.97,.12-2.85,2.13,.79,12.31-.3,24.61-.26,36.92,0,2.52,1.1,3.21,3.97,3.05Zm-156.99-37.24c-5.26-1.11-10.38-2.53-15.59-3.11-2.23-.25-9.15-4.39-5.32,4.09,.17,.39,.02,1.03-.19,1.46-1.48,2.97,.57,3.03,2.63,3.59,3.64,.98,7.5,.37,11.06,2.25,3.21,1.69,6.3,1.74,5.51-3.5-.28-1.84,1.41-2.87,1.9-4.77Zm-89.92,73.52c.81-.1,2.26-.29,3.72-.48-.82-3.79,2.74-6.45,2.56-10.1-.08-1.68-1.01-1.48-2.28-1.67-3.92-.59-7.48,1.3-11.19,1.37-5.23,.09-5.18,3.97-5.44,7.09-.29,3.38,3.11,2.47,5.07,2.89,2.25,.49,4.6,.57,7.56,.9Zm119.69-53.91c-1.63,.23-1.75,.87-1.79,1.53-1.12,16.15-2.24,32.3-3.33,48.45-.09,1.4-.52,3.05,2.05,2.93,2.05-.09,2.96-.6,2.98-2.82,.06-8.29,.7-16.6,.34-24.86-.37-8.37,1.2-16.78-.24-25.23Zm-30,53.23c-2.67-3.24,.07-7.51-2.9-9.09-2.59-1.37-6.12-.96-9.23-1.35-1.8-.23-3.61-.43-5.4-.74-2.46-.43-5.12,.63-4.87,2.71,.3,2.44,.1,7.09,3.75,6.83,5.97-.43,11.61,1.37,18.65,1.63Zm67.91-1.24c0,.17,0,.34,0,.51,.66,0,1.37,.16,1.98-.03,1.62-.5,4.26,.98,4.5-2.3,.2-2.82-1.92-2.94-3.8-3.62-3.68-1.33-7.27-2.91-10.93-4.31-5.25-2.02-5.63-1.76-5.95,3.62-.08,1.32-.23,2.66-.59,3.92-.52,1.86,.27,2.25,1.92,2.23,4.29-.06,8.58-.02,12.87-.02Zm78.79,30.07c-.26-5.89,1.67-11.48,1.73-17.24,.01-1.29,.86-3.51-1.43-3.58-6.39-.2-12.78-.07-19.17-.07,9.56,2.04,13.08,9.34,16.14,17.45,.19-3.67,.38-7.34,.56-11.01,1.1,4.87,.53,9.76,2.17,14.44ZM107.15,145.58c1.54-5.23,5.33-6.75,9.29-8.25,7.14-2.7,14.26-5.45,21.24-8.52,3.99-1.75,7.43-2.78,9.89,2.58,2.42-3.9,4.4-7.47,8.26-9.44-18.79,3.33-36.09,10.38-52.51,19.62,.96,1,2.09,2.19,3.83,4.01Zm314.88,97.34c2.32-2.21,3.4-3.53,3.92-5.61,2.09-8.31,2.28-16.57,.54-24.97-.4-1.91-1.07-2.5-2.8-2.58-2.34-.1-1.63,1.64-1.63,2.75-.05,9.78-.03,19.56-.03,30.41Zm-99.69-58.34c-.73,2.26-.11,3.13,2.16,3.45,5.09,.72,10.14,1.75,15.19,2.7,1.96,.37,3.45,.6,3.7-2.27,.19-2.23,.41-3.82-2.36-4.35-4.89-.93-9.76-2-14.6-3.12-3.36-.78-4.81,.32-4.09,3.59Zm-15.48,83.25c4.25-8.44,10.68-14.03,19.97-16.28-5.28-.46-10.23-.42-15.17-.47-6.25-.06-7.84,1.32-6.41,7.35,.72,3.06,.39,6.12,1.61,9.39Zm144.7-54.57c1.83-.52,1.26-1.9,1.29-2.94,.26-10.13,.53-20.25,.68-30.38,.1-6.74-1.12-7.84-9.33-7.89,7.51,3.58,7.22,9.07,6.03,15.15-1.03,5.27-3.88,10.39-.49,16.15,1.59,2.71,1.27,6.54,1.82,9.9Zm-191.09-105.96c.16-.4,.32-.8,.47-1.2-.71-.33-1.39-.73-2.12-.97-13.57-4.48-27.13-8.97-40.72-13.37-1.23-.4-3.04-2.38-3.81,.62-.67,2.57,1.15,3,2.99,3.47,6.76,1.72,13.52,3.45,20.26,5.24,7.65,2.03,15.29,4.14,22.93,6.21ZM80.12,216.04c0-3.49,.05-6.99-.03-10.48-.02-1.07,.16-2.54-1.63-2.49-1.48,.05-1.22,1.26-1.29,2.19-.73,10.94-1.5,21.88-2.11,32.83-.07,1.19-1.06,3.34,1.21,3.55,2.08,.2,1.95-1.78,2.17-3.24,1.08-7.42,1.88-14.86,1.68-22.37Zm53.33-27.58c-2-2.41-1.07-4.24,.8-6,.99-.93,1.27-2.61,.64-3.72-.9-1.57-2.3,.14-3.54,.08-3.28-.15-5.5,2.78-8.67,3.38-3.73,.71-2.92,4.39-2.83,6.54,.08,2.17,2.9,.94,4.44,.87,2.8-.12,5.59-.67,9.16-1.15Zm-16.58,49.38c.42,3.95,2.68,5.28,6.34,5.08,1.63-.09,3.28,.39,4.94,.51,1.37,.1,3.35,1.08,3.91-.68,.67-2.12,1.19-4.77,.47-6.71-.67-1.83-3.24-.92-4.95-.43-3.52,1.02-7.01,2.08-10.71,2.23Zm271.74,14.39c.04-.42,.08-.84,.11-1.25-4.55,0-9.12,.33-13.63-.09-4.35-.41-5.64,1.44-5.11,5.27,.4,2.88,1.05,5.73,1.68,9.06,4.41-6.72,7.38-14.25,16.94-12.98Zm-173.66,35.46c1.5-1.32,1.93-1.52,1.94-1.74,.66-10.74,.45-21.52,1.71-32.23,.14-1.16-.35-1.85-1.65-1.92-1.52-.08-2.02,.57-2.02,2.03,.03,10.88,.02,21.76,.02,33.85Zm173.93-94.76c-2.1-.13-3.6-.47-3.75,1.51-.12,1.61-.37,3.22,2.02,3.73,3.37,.72,6.64,1.84,9.98,2.72,1.48,.39,3,.73,3.04-1.7,.03-1.56,.99-3.39-1.48-3.98-3.52-.83-7.05-1.64-9.81-2.28Zm-.4,46.42c-1.15,.1-3.24-.59-3.43,2.31-.18,2.77,1.85,2.73,3.58,2.99,2.78,.42,5.57,.7,8.37,1,1.94,.21,3.02-.37,3.18-2.64,.17-2.26-.75-2.98-2.74-3.08-2.8-.15-5.6-.36-8.96-.58Zm-245.05-15.67c-.69-10.92,1.05-20.81-.18-31.24-3.45,4-3.43,25.13,.18,31.24Zm216.3,56.85c3.66-7.94,1.43-17.23,3.21-26.01,.23-1.15,1.12-3.3-1.34-3.45-2.44-.15-1.79,2.11-1.81,3.3-.12,8.92-.07,17.83-.07,26.16Zm-31.26-152.75c.14-.48,.27-.96,.41-1.44-11.36-3.31-22.48-7.46-34.08-9.92-.12,.41-.23,.83-.35,1.24,11.34,3.37,22.68,6.74,34.02,10.12Zm-186.88,136.43q1.72-11.64-9.77-10.97c4.05,3.04,6.33,7.02,9.77,10.97Zm-21.93-10.07c-3.37-1.38-5.98-.21-8.53-.24-1.58-.02-1.85,1.72-1.38,2.62,1.81,3.52,.56,7.45,1.86,11.33,3.02-4.43,2.44-10.54,8.06-13.71Zm243.92-35.67c-3.32,7.77-1.72,16.02-2.96,23.9-.18,1.16,.39,1.98,1.65,1.88,1.38-.12,1.3-1.26,1.3-2.25,0-7.78,0-15.56,0-23.53ZM77.98,159.3c.06,8.93,.46,17.87,.38,26.8,1.85-2.23,1.31-4.8,1.56-7.2,.68-6.58,.28-13.14-1.94-19.61Zm33.71,60.56c-2.86,4.65-3.48,14.09-1.62,22.3,.97-7.92,2.13-14.55,1.62-22.3Zm323.68,18.27c.76,2.61-2.08,5.77-.22,7.19,2.16,1.65,4.94-.75,7.76-2.13-2.78-1.83-4.16-4.47-7.54-5.06ZM76.39,152.92c3.52-1.54,6.63-2.91,10.37-4.54-9.59-2.36-10.88-1.8-10.37,4.54Zm367.45,52.34c-.88-2.85-4.06-1.93-6.19-2.86-1.21-.53-2.72-.34-2.53,1.15,.47,3.67,4.18,2.66,6.38,3.84,1.53,.82,1.98-.38,2.34-2.13Zm-27.27,26.19c-.53,5.84-.98,10.59-1.37,15.35-.06,.7-.47,1.78,.79,1.92,1.16,.13,1.22-.79,1.25-1.62,.21-4.85,1.52-9.74-.68-15.64ZM91.11,192.9c2.49-.32,5.55,.29,5.65-3.72,.04-1.67-1.39-1.54-1.96-1.23-2.3,1.26-5.63,1.47-6.47,4.3-.38,1.27,1.77,.5,2.77,.66Zm47.08-20.27c7.03-4.39,2.92-10.32,3.67-15.19-.89,4.77-3.99,8.98-3.67,15.19Zm2.89-32.3c.04-2.14,1.41-4.71-.64-5.45-2.67-.97-5.44,.44-7.76,2.58,2.8,.96,5.44,1.86,8.39,2.87Zm289.13,112.73q-6.67-.74-5.68,7.5c1.91-2.52,3.63-4.79,5.68-7.5Zm19.53,.81c1.31,2.03,2.57,3.99,3.95,6.12,1.08-6.93,.99-7.08-3.95-6.12ZM103.39,203.52c-1.6,3.31-.87,6.86-1.1,10.85,2.73-3.73,1.52-7.33,1.1-10.85Zm198.32-77.52c-2.18-1.4-4.66-1.45-7.51-2.13,2.25,2.88,3.66,6.86,7.51,2.13ZM101.86,259.53c.69-3.37,1.87-6.7-4.02-5.34,1.38,1.83,2.61,3.46,4.02,5.34Zm25.65-159.77c.21-.12,.43-.24,.64-.36-.11-.11-.25-.33-.33-.31-.24,.05-.45,.2-.67,.31,.11,.11,.22,.22,.36,.36Zm-5.85,2.14c-.11,.11-.33,.25-.31,.33,.05,.24,.2,.45,.31,.67,.11-.11,.33-.24,.31-.33-.05-.24-.2-.45-.31-.67Zm-1.5,1.5c-.11-.11-.25-.33-.33-.31-.24,.05-.45,.2-.67,.31,.11,.11,.24,.33,.33,.31,.24-.05,.45-.2,.67-.31Z"/>
</svg>