<svg xmlns="http://www.w3.org/2000/svg" width="158" height="99" stroke="none" stroke-linecap="round" stroke-linejoin="round" fill="#fff" fill-rule="evenodd"><path d="M144.9523 35.6407c-3.0586.5429-4.4922 1.0976-6.0273 2.3359-1.0586.8516-1.0859.9687-.3399 1.3906 1.5508.875 2.1837 1.9258 2.6211 4.3672.2071 1.1406.2149 22.4883.0079 23.6602-.4844 2.789-1.0313 3.7695-2.4141 4.3437-.5235.2188-.8203 1.125-.6523 2 .0625.336 15.6952.4961 15.8203.1602.2773-.7344-.1446-1.8477-.8477-2.2305s-1.6719-1.4609-1.8086-2.0195c-.039-.1602-.1797-.6758-.3164-1.1406-.2227-.7735-.2461-2.168-.3008-16.6485l-.0547-15.8047-.5195-.1367c-1.3281-.3516-1.8789-.4258-3.125-.4141-.7383.0079-1.6562.0704-2.043.1368m-62.3164 1.0586c-2.0468.3671-3.582.9609-4.957 1.9218-1.3242.9219-1.4453 1.3203-.5547 1.793.8594.4609 1.668 1.3477 2.0117 2.2109.5547 1.3946.5743 1.9375.6406 15.6407l.0625 13.2734h.5899c.6016.0039 2.4492.2969 3.3359.5312.8086.2149 1.4805.5352 2.9258 1.4024 2.875 1.7266 5.9883 2.1719 9.1133 1.3008l1.0586-.2891c3.7891-1.0273 7.2109-4.5976 8.8945-9.2851.1523-.4258.332-.9024.3985-1.0547s.1523-.4414.1914-.6328.1836-.8282.3203-1.4102c.75-3.1601.1445-8.5508-1.2852-11.4766-2.8164-5.7617-10.9101-7.3984-15.2851-3.0898-.4297.4219-.8243.7656-.8789.7656s-.1016-2.4883-.1055-5.5273-.0547-5.6094-.1172-5.711c-.3398-.5351-4.164-.7578-6.3594-.3632M3.3508 37.7735c0 .1758-.0391.6367-.086 1.0312l-.0859.711.7344.2383c.9843.3164 1.4765.6953 1.9414 1.4804l.3867.6602v12.8867c0 13.2187.0078 13.0039-.5274 14.8281-.2148.7266-1.1366 1.7461-1.9257 2.1172l-.6446.3047-.0429 1.0195-.0391 1.0195h16.207v-.832c0-1.1211-.0547-1.2148-.9257-1.6406-.918-.4492-1.4727-1.2148-1.9297-2.6562l-.3164-.9961V41.8946l.3203-.6016c.3945-.7305 1.2148-1.3516 2.0898-1.5703l.6524-.1641-.086-.5234a7.846 7.846 0 0 1-.0859-1.0508l-.0039-.5273H3.3547l-.0039.3164m119 7.3594c-8 1.207-13.2383 7.1718-13.2383 15.0703 0 13.8359 16.8554 20.25 27.1172 10.3242 1.5859-1.5313 1.5664-1.3789.3437-2.4844l-.9804-.8867-.9727.7773c-4.625 3.6875-10.5586 2.875-13.7656-1.8867-.832-1.2344-1.7852-4.5273-1.2031-4.1719.6913.4297 7.1484.4532 8.6835.0352.1563-.043.7188-.1797 1.25-.3047s1.1328-.2969 1.336-.375a21.21 21.21 0 0 1 .6523-.2461c6.6602-2.2812 7.7813-10.3359 1.9024-13.6719-3.4922-1.9804-7.3907-2.7422-11.125-2.1796m-62.3867.0117c-1.8594.2148-3.3164.5117-4.9844 1.0078-5.4102 1.6172-7.8906 7.375-3.8165 8.8672 3.2657 1.1992 6.3048-.0821 6.7813-2.8594.3906-2.25 1.336-3.1563 3.3008-3.1563 2.8008 0 4.3515 2.2579 4.3515 6.3282 0 2 .2539 1.8359-2.8163 1.8398-6.711.0039-11.5743 1.5469-14.6016 4.6289-2.6914 2.7422-2.5977 7.5508.2031 10.4649 3.9766 4.1367 13.9414 3.3906 16.8164-1.2578.4024-.6563.4688-.4883.6719 1.7265.5859 6.4102 3.5781 10.8438 8.0547 11.9414 1.6992.418 2.3516.5117 3.5742.5157 6.8242.0234 11.4414-5.043 8.9649-9.8399-.9844-1.9101-4.3711-2.332-5.8985-.7344-.6055.6328-.7617 1.2696-.8711 3.5391-.1171 2.3672-.2891 2.8867-1.1289 3.3555-1.2461.6992-2.4336.2304-2.957-1.1758-.2891-.7657-.293-1-.2969-11.7969-.0078-12.0508-.0312-12.5391-.7969-15.0976-.1171-.3868-.332-.9727-.4805-1.3008s-.2695-.6328-.2695-.6758-.2656-.4727-.5898-.9531c-1.8398-2.7227-4.3672-4.3633-7.8594-5.0977-1.0156-.2148-4.3711-.3828-5.3515-.2695M31.8 45.5664c-10.375.8633-14.3125 8.5274-6.9766 13.5743.5743.3945 3.1758 1.9765 3.25 1.9765.0234 0 .5235.2852 1.1133.6328s1.1055.6328 1.1485.6328.4999.2696 1.0195.6016 1.1797.7266 1.4765.8789c1.7266.8985 3.336 2.5938 3.336 3.5117 0 3.0313-3.4766 4.7539-7.0781 3.5079-2.4258-.8438-2.961-2.1915-1.5938-4.0118 2.4922-3.3125-2.9844-6.1367-6.2812-3.2383-3.2188 2.8243-.9063 8.1758 4.3203 9.9883 10.5351 3.6563 21.5351-2.4179 18.8086-10.3867-.7969-2.3164-3.2266-4.3672-9.1563-7.7187l-1.3086-.7578c-.375-.2188-.7109-.4024-.7461-.4024-.207 0-2.6211-1.6641-3.125-2.1523-2.3359-2.2578 1.4727-4.7891 5.2383-3.4844 1.4766.5117 1.8125 1.0039 1.8398 2.6797.0704 4.0078 5.2227 4.8984 6.4766 1.1172 1.375-4.1328-4.4258-7.5586-11.7617-6.9493m96.6758 3.7696c4.1445 1.9336 2.121 7.9609-3.0781 9.164-1.5625.3633-4.9805.2461-5.4727-.1835-.2109-.1915.4492-3.0626 1.0625-4.6094 1.4453-3.6446 4.8242-5.6133 7.4883-4.3711m-34.543.2148c4.25 1.8203 4.5234 16.7422.3789 20.8867-1.5351 1.5391-3.8398 1.543-4.5664.0118-.8672-1.8243-.9258-13.711-.086-16.9375.7891-3.0313 2.5743-4.6875 4.2735-3.961M65.2805 59.9375c.7773.2071.1484 4.4727-.9961 6.7969-2.7774 5.6289-10.6485 2.4336-8.1328-3.3008.5507-1.25 1.8437-2.289 3.5312-2.8398 1.6406-.5313 4.7109-.8945 5.5977-.6563" fill="#e40717"/><path d="M45.2492 24.8945c-2.207 1.1524-.6211 4.543 1.6094 3.4375.2656-.1328.5039-.3086.5351-.3984.0821-.2617-.3242-.3242-.7343-.1094-1.3516.6992-2.4961-1.2734-1.3164-2.2656.4609-.3867.4336-.3867 1.7031-.1211.5938.125.5-.3203-.125-.582s-1.1211-.25-1.6719.039m4.4688.6992c-1.1875 2.6211-1.1758 2.5899-1 2.8008.1875.2266.3398.125.6015-.3945.2696-.5508 1.8047-.5625 2.1485-.0195.5078.7968.9922.5468.5781-.2969l-.3516-.7891c-1.0156-2.5-1.3359-2.7109-1.9765-1.3008m3.9375-.7812c-.2383.2383-.2305 3.2148.0117 3.543.2617.3554 2.3984.2851 2.4688-.086.039-.2109-.0665-.2461-.7813-.2461-1.1016 0-1.1641-.0898-1.1641-1.6367 0-1.6562-.1133-1.9961-.5351-1.5742m3.8633.0469c-.1251.3242-.1055 3.3398.0234 3.5429.3203.5078.4609-.0976.4219-1.8594-.0391-1.707-.1993-2.3242-.4453-1.6835m7.6288.5156c-.9961 2.0586-1.2617 2.8008-1.0859 3.0156.1719.207.3321.0938.6367-.4453.293-.5195 1.8282-.4688 2.1329.0703.5547.9649.832.3672.3515-.7539-1.1484-2.6875-1.4921-3.0039-2.0352-1.8867m19.754-.2969c-.7227.7188-.4805 1.3399.6914 1.7617.7383.2657.9961.6211.6992.9766-.2188.2656-.5469.2617-1.1094-.0195-.5156-.2579-.8945-.0899-.5976.2656.5547.6679 2.043.5703 2.3867-.1563.3555-.75.0625-1.2382-.9414-1.5703-.7032-.2304-.9297-.5547-.6523-.9336.1679-.2304.246-.2422.6718-.0898.6484.2383.8125.2187.8125-.0781 0-.1602-.1757-.3164-.4687-.4219-.7188-.2617-1.0196-.207-1.4922.2656m14.9179-.2148c-.4374.2383-.457.539-.0351.5976.3008.043.3164.1016.3164 1.4258 0 1.0859.0468 1.4219.2226 1.5664.3711.3086.4766-.0859.4766-1.793.0039-2.1093-.0898-2.2851-.9805-1.7968m2.9219.0117c-.4922.2578-.6445.8242-.3594 1.3242.1954.3398.1914.4023-.0429.7109-.7071.918.3164 1.9258 1.5703 1.5508.9062-.2734 1.1563-.9297.6094-1.5742-.1485-.1719-.1563-.3125-.0313-.6445.4219-1.1133-.6445-1.9453-1.7461-1.3672m3.9454-.0117c-.4649.2539-.6329.8047-.4141 1.3789.1249.332.1211.4726-.0274.6445-.5508.6445-.2969 1.3008.6055 1.5742 1.2539.375 2.336-.6953 1.5547-1.5351-.2657-.2852-.2696-.336-.0703-.6407.6367-.9726-.5664-2.0078-1.6484-1.4218m-47.0587.2851c-.1445.3711-.0937 2.875.0586 3.1641.207.3828 1.3907.375 2.1914-.0156 1.1563-.5586 1.3985-2.1329.457-2.9727-.5429-.4844-2.539-.6133-2.707-.1758m9.2109 1.4375c0 1.9063.043 2 .9961 2 1.3477 0 2.2384-.7461 2.2423-1.875 0-1.2539-.6524-1.7851-2.1797-1.7851H68.839v1.6601m6.8985 0c0 2.1094.5977 2.5625 2.2578 1.7149 1.9063-.9727 1.0547-3.375-1.1953-3.375h-1.0625v1.6601m4.7422-1.5664c-.1797.1758-.1055 3.0781.082 3.336.2461.332 2.5704.289 2.5704-.0508 0-.1602-.2266-.2305-.9024-.2813-1.4648-.1172-1.6836-.9883-.2461-.9883.5273 0 .7891-.0585.8398-.1953.1134-.2969-.0273-.3672-.7656-.3672-.543 0-.7109-.0585-.8359-.2929-.2852-.5352-.0782-.6914.9023-.6914.8516 0 1.2539-.1993.9727-.4805-.1133-.1133-2.5-.1055-2.6172.0117m8.0742 1.5664c0 1.9063.0469 2 .9961 2 1.3477 0 2.2383-.7461 2.2422-1.875 0-1.2539-.6523-1.7851-2.1797-1.7851h-1.0586v1.6601m4.7383-1.5664c-.1758.1758-.1015 3.0781.0859 3.336.2461.332 2.5665.289 2.5665-.0508 0-.1602-.2071-.2227-.8399-.2539-1.5273-.0782-1.7578-.8907-.2852-1.0157 1.1328-.0937 1.211-.4687.1055-.5351-1.4336-.082-1.4218-1.0117.0156-1.0117.8477 0 1.2539-.1993.9727-.4805-.1172-.1133-2.5039-.1055-2.6211.0117m16.5234.0195c0 .2813.4024.4493 1.086.4493.5703 0 .7461.0507.7461.2109 0 .1172-.0469.2109-.1055.2109s-.1992.2071-.3086.4571-.3906.7539-.6172 1.1211c-.3516.5664-.3867.7031-.2344.8906.2774.332.3829.1953 1.6368-2.1641.6914-1.3008.6992-1.289-.8633-1.289-.7383 0-1.3399.0507-1.3399.1132m-5.8906.3985c.3203.2891.3242.4492.0274.7773-.4375.4844-1.1758.2461-1.1758-.375 0-.6093.664-.8398 1.1484-.4023m3.9492.1328c.3165.6875-.4531 1.1992-1.0273.6797-.3281-.2969-.3359-.4531-.0352-.7852.3438-.3828.8672-.332 1.0625.1055m-45.9375.1992c.7891.7891.0782 2.3086-1.0469 2.2227l-.5742-.0391-.039-1.2344-.0391-1.2304h.7071c.5234 0 .7851.0742.9921.2812m9.1016-.0703c.8438.8398.2617 2.3242-.9063 2.3242-.5234 0-.5898-.1679-.5898-1.4922v-1.0429h.6406c.3867 0 .7305.0859.8555.2109m6.9531.1055c.7266 1.0937.0586 2.3672-1.1484 2.1953-.3164-.0469-.332-.1094-.3711-1.2813l-.043-1.2304h.6758c.5469 0 .7187.0625.8867.3164m12.7617-.1055c.8438.8398.2657 2.3242-.9062 2.3242-.5234 0-.5899-.1679-.5899-1.4922v-1.0429h.6446c.3828 0 .7265.0859.8515.2109m-24.7343.3516c0 .1445.0663.3047.1445.3515.3945.2461.1367.6524-.3907.6094-.4843-.043-.5234-.0781-.496-.4492.0507-.7188.7422-1.1953.7422-.5117m-15.2344.1875c.2539.707.2188.7968-.3243.7968-.4374 0-.4921-.039-.4921-.3593 0-.8946.543-1.1875.8164-.4375m53.3555 1.0273c.1445.375-.1563.6836-.7032.7305-.5195.0429-.8477-.4024-.5937-.8086.1523-.25 1.1953-.1836 1.2969.0781m3.7812-.0781c.25.4062-.0742.8515-.5937.8086-.5469-.0469-.8477-.3555-.7071-.7305.1016-.2617 1.1485-.3281 1.3008-.0781m35.836 5.4805c0 .0781-.3516.1445-.7813.1445-.5625 0-.8008.0586-.8594.2109-.0508.1367-.2734.211-.6289.211-.3008 0-.5468.0625-.5468.1406s-.2227.1406-.4962.1406-.4922.0625-.4922.1406-.121.1407-.2734.1407-.3125.0625-.3593.1406-.1837.1406-.3009.1406-.3007.0781-.4101.1758c-.4648.418-.625.5273-.7617.5273-.0821 0-.1484.0664-.1484.1407s-.0977.1406-.2149.1406c-.3242 0-2.1758 1.918-2.1758 2.25 0 .1601-.0937.2851-.2148.2851-.1719 0-.211.2422-.211 1.3438 0 1.0625.0469 1.3594.211 1.4219.1172.0468.2148.1718.2148.2851 0 .2539.4922.7539 1.0899 1.1055.25.1484.457.3203.457.3828s.1016.1094.2227.1094c.2851 0 .6211.3398.6211.6289 0 .1211.0976.2617.2109.3047.1523.0586.2148.2968.2148.8398 0 .418.0625.7617.1407.7617s.1406.5157.1406 1.2657c0 1.5273.1054 1.5156-1.2618.1406-.6132-.6172-1.2148-1.125-1.3359-1.125s-.2187-.0625-.2187-.1406-.0977-.1407-.2109-.1407-.2149-.0625-.2149-.1406-.125-.1406-.2813-.1406-.2812-.0938-.2812-.211-.1211-.2109-.2735-.2109-.3125-.0664-.3593-.1445-.2109-.1367-.3594-.1367-.2734-.0665-.2734-.1446-.1289-.1406-.2813-.1406-.2812-.0625-.2812-.1406-.2149-.1406-.4805-.1406c-.293 0-.5078-.0782-.5586-.211-.0469-.1211-.2578-.2109-.5078-.2109-.2344 0-.4258-.0625-.4258-.1406s-.25-.1407-.5547-.1407-.5937-.0625-.6445-.1406c-.1172-.1914-.6328-.1797-.6328.0156 0 .1094-.3125.1328-1.0196.0742-3.6015-.2968-5.1015-.2539-7.3593.2149-4.7461.9766-8.7656 3.7109-11.3164 7.6875-.5313.832-.6719.8945-.8633.3867-1.4454-3.793-4.6797-6.8047-8.3789-7.793-1.4297-.3828-2.1758-.4765-3.9102-.4843-1.7539-.0079-2.9765.1523-3.7187.4961-.5703.2617-.6094.082-.6094-2.7813 0-3.7422-.2461-4.6875-1.4297-5.4805s-4.8906-1.1835-7.4257-.7773c-1.4376.2305-2.4532.4336-2.7618.5508-.1562.0586-.5352.1836-.8477.2773-.5429.168-2.039.8477-2.1835.9922-.0352.0391-.2579.1797-.4883.3086-3.3867 1.9024-3.8516 5.1172-.9571 6.6094 1.1329.582 1.2305.9883 1.2774 5.3164.0468 4.1055.0195 4.2109-.711 2.625-.2499-.543-.5039-1.0078-.5624-1.0313s-.1055-.1132-.1055-.1953c0-1.6133-6.3242-6.289-8.5274-6.3047-.1601 0-.3476-.0586-.4218-.1289s-.418-.164-.7696-.207c-4.1445-.5234-7.5664-.3516-10.8437.5508-3.7891 1.039-6.8555 3.4804-8.0937 6.4414-.4883 1.164-.5938 1.25-.7149.5625-.5469-3.1641-2.8867-5.4688-6.8203-6.7188-1.4414-.457-1.6407-.5039-2.1992-.5039-.3086 0-.629-.0664-.711-.1484-.3047-.3047-6.6875-.0039-7.9179.3711-.25.0781-.3907.0351-.5313-.1563-.1484-.2031-.2265-.2226-.3594-.0937-.0898.0937-.3437.168-.5625.168s-.3945.0625-.3945.1406-.2187.1406-.4922.1406-.4922.0664-.4922.1406-.1875.1446-.414.1446-.4532.0625-.5.1367-.211.1445-.3633.1445-.2735.0938-.2735.2109-.1249.211-.2812.211-.2813.0625-.2813.1406-.1445.1406-.3203.1406-.414.125-.5234.2813-.3008.2812-.418.2812-.539.3477-.9375.7735-.7969.7773-.8828.7773-.1562.0664-.1562.1524-.1914.332-.4219.5507-.4219.4883-.4219.6055-.0976.2461-.2109.2891c-.1836.0703-.2109-.2969-.2109-2.8008 0-2.4688.0273-2.8828.2109-2.8828.1133 0 .2109-.0625.2109-.1406s.2539-.1407.5625-.1407.5625-.0625.5625-.1406.0664-.1406.1485-.1406c.1914 0 .8359-.6485.8359-.8399a.147.147 0 0 1 .1445-.1445c.0742 0 .1368-.1836.1368-.4102s.0937-.4414.2148-.4882c.3008-.1133.3008-1.4961 0-1.4961-.1758 0-.2148-.25-.2148-1.4102 0-.8437-.0548-1.4062-.1368-1.4062s-.1445-.1289-.1445-.2891c0-.3711-.6055-.9805-.9766-.9805-.1641 0-.289-.0898-.289-.2109 0-.3203-18.2735-.3203-18.3985 0-.0429.1172-.168.2109-.2773.2109-.2774 0-1.0391.7578-1.0391 1.0391 0 .125-.0625.2305-.1406.2305s-.1406.3476-.1406.7734-.0625.7734-.1406.7734c-.086 0-.1407.6133-.1407 1.5508s.0547 1.5469.1407 1.5469c.0781 0 .1406.1289.1406.2812s.0624.2852.1406.2852.1406.082.1406.1875c0 .2813.4883.7969.7539.7969.1289 0 .2305.0625.2305.1406s.2578.1406.5742.1406c1.0508 0 .9766-.9687.9766 12.7344l-.1406 12.332c-.0782 0-.1407.1954-.1407.4336 0 .5-.2773.836-.6953.836-.1601 0-.293.0625-.293.1406s-.0976.1406-.2187.1406c-.2539 0-.625.3281-.625.5508a.15.15 0 0 1-.1524.1523c-.2187 0-.5507.3672-.5507.6133 0 .1172-.0625.2539-.1406.3008-.6094.3789-.0274 5.5625.625 5.5625.1523 0 .4999.3867.4999.5547 0 .082.2227.1484.4922.1484s.4922.0664.4922.1446c0 .0898 3.0547.1406 8.875.1406s8.8711-.0508 8.8711-.1406c0-.0782.1641-.1446.3672-.1446.418 0 1.457-.9648 1.4727-1.3711.0078-.1484.039-.1757.082-.0703.0391.0977.1953.1758.3437.1758s.2695.0625.2695.1406.2227.1406.4922.1406.4922.0626.4922.1407.1289.1406.2813.1406.2812.0625.2812.1406.2227.1407.4961.1407c.3438 0 .4922.0664.4922.2109 0 .1602.1641.2109.6328.2109.3633 0 .6329.0664.6329.1563 0 .1015.289.125.8789.0703 1.3554-.125 1.3398-.125 3.1367.0469.9297.0859 2.1328.1211 2.6757.0781 1.4688-.1172 3.1641-.3438 3.8009-.5078l1.1249-.2891c.3125-.0781.6758-.1992.8087-.2695s.3046-.1289.3788-.1289c.1836 0 1.8008-.7774 2.418-1.1641 1.0117-.6289 1.3399-.8828 2.2148-1.7187 1.1212-1.0703 1.0274-1.0586 1.6407-.2227.8828 1.2031 2.2617 2.336 3.7304 3.0547 1.7344.8516 1.8516.8906 4.2695 1.4453.8087.1875 4.1641.207 4.8712.0273.2812-.0703 1.0195-.2382 1.6367-.3749s1.1875-.3008 1.2617-.3672.2344-.1172.3594-.1172.4922-.125.8125-.2813c.9023-.4336 1.1211-.3789 1.3008.3164.3437 1.3242.5351 1.8985.8593 2.5352.0703.1328.1251.3086.1251.3828s.2226.4883.4921.9102.4922.8281.4922.8945.1133.2422.2461.3945.4961.5899.8008.9766c.9414 1.1914 2.7891 2.7656 3.7383 3.1875.2343.1055.4257.2383.4257.2969s.086.1054.1876.1054.5155.1602.9218.3555c4.7188 2.2773 11.5 1 15.375-2.8945.8984-.9102 1.9649-2.6485 1.9649-3.2188 0-.1328.0586-.3008.1328-.375s.1562-.6758.1758-1.332l.0429-1.1953 2.8867-.0821c3.211-.0898 4.5821-.3554 6.5821-1.2656.3281-.1484.6328-.2734.6797-.2734s.5038-.2461 1.0234-.5508c2.5-1.4727 4.7578-4.0234 6.293-7.125l.4492-.8984c.0664-.1055.4609.3007.6523.6679.3867.7422 1.2461 2.2032 1.336 2.2735.0547.039.2734.3086.4922.6015 2.4257 3.2578 7.2422 6.1211 11.2187 6.6758 1.207.168 5.0195.1289 6.2617-.0625.7461-.1172 1.168-.125 1.2617-.0312.1798.1835.7891.1835.7891 0 0-.0782.25-.1407.5625-.1407s.5625-.0664.5625-.1406.2227-.1406.4922-.1406.4922-.0664.4922-.1406.1289-.1446.2891-.1446.3202-.0937.3632-.2109.2032-.2109.3516-.2109.2656-.0626.2656-.1407.125-.1406.2813-.1406.2812-.0625.2812-.1406.1563-.1407.3516-.1407.3516-.0624.3516-.1406.1288-.1406.2812-.1406.2812-.0625.2812-.1406.0703-.1406.1524-.1406c.1992 0 .5547.3593.5547.5624 0 .2266.3632.5626.6055.5626.1132 0 .246.0976.289.2109s.2109.2109.3672.2109.2852.0664.2852.1446c0 .0898 3.0507.1406 8.871.1406s8.875-.0508 8.875-.1406c0-.0782.1563-.1446.3516-.1446.2188 0 .3516-.0781.3516-.2109 0-.1133.0937-.2109.2109-.2109.2695 0 .7735-.4297.7735-.6641 0-.0977.0624-.1797.1406-.1797s.1406-.2227.1406-.4922.0664-.4922.1406-.4922c.0821 0 .1407-.3984.1407-.9179s-.0586-.9141-.1407-.9141-.1406-.4687-.1406-1.125-.0586-1.1289-.1406-1.1289-.1406-.125-.1406-.2813-.0665-.2812-.1485-.2812c-.164 0-.5547-.3477-.5547-.4922 0-.1953-.418-.4922-.6953-.4922-.1602 0-.2891-.0664-.2891-.1406s-.1288-.1406-.2851-.1406c-.1875 0-.2813-.0977-.2813-.2852 0-.1523-.0625-.2812-.1406-.2812s-.1406-.2852-.1406-.6329-.0625-.6328-.1406-.6328c-.0938 0-.1406-5.4218-.1406-15.9843l-.211-15.9844c-.1289 0-.211-.1328-.211-.3516 0-.1914-.0624-.3515-.1405-.3515s-.1407-.0977-.1407-.2227c0-.3086-.3476-.6211-.6953-.6211-.1601 0-.2891-.0625-.2891-.1406s-.1289-.1406-.2851-.1406-.2813-.0938-.2813-.211c0-.1562-.164-.2109-.6328-.2109-.3477 0-.6328-.0664-.6328-.1445 0-.0899-1.1758-.1407-3.2383-.1407s-3.2382.0508-3.2382.1407m6.0038 3.0273c.4415.1172.8555.293.918.3906s.1133 7.0938.1172 15.5508l.1523 16.1211c.4883 2.4102.9727 3.2187 2.336 3.9023.625.3125.6758.4024.8203 1.4688.1563 1.1641.7539 1.0859-8.1836 1.0859h-7.9375v-.4765c0-1.4492.1328-1.7696.8984-2.1563 1.1407-.5742 1.5586-1.1523 2.004-2.7969.3984-1.4804.4101-24.8554.0117-26.1875-.5039-1.6718-.918-2.2421-2.168-3.0156-.9024-.5547-.9726-.7344-.4609-1.1914 1.3124-1.168 2.8828-1.9922 4.5703-2.3945l1.4805-.3594c.8476-.2148 4.5351-.1758 5.4413.0586m-61.5273.9609c1 .2969.9453-.0234 1.0234 6.0235l.0703 5.4883.8712-.8438c4.2929-4.1484 12.4218-2.4844 15.2187 3.1211 2.2773 4.5586 2.1718 11.3516-.2539 16.375-2.1406 4.4336-4.8242 6.8398-8.7969 7.8867-3.8398 1.0117-6.8242.6719-9.6523-1.0976-2.0469-1.2813-2.7617-1.5274-5.6953-1.9571l-1.2696-.1875-.082-13.2382c-.1055-16.4219-.1172-16.4883-2.6797-17.8165-.9297-.4804-.7148-.9531.957-2.0664 1.1563-.7656 3.2383-1.5742 4.129-1.6015.1953-.0039.4804-.0625.6367-.1289.4531-.1953 4.8398-.1641 5.5234.0429m-69.082 1.7852c.1015 1.1758.0976 1.1875-.8164 1.4258-.7383.1914-1.5235.832-1.8477 1.5078-.2304.4844-.25 1.375-.25 13.6172v13.0937l.3281.9805c.4454 1.3281.9258 1.957 1.8867 2.4727.8868.4765 1.0157.75.9298 1.9726l-.043.6289-8.1172.0391c-7.0977.0312-8.1289.0078-8.1992-.1758-.2891-.7539.0859-2.0547.6679-2.3203 1.1172-.5156 1.9063-1.6055 2.2461-3.1055.0899-.3945.1602-5.4765.1914-13.5508l.0469-12.9179-.3047-.6446c-.3789-.8086-1.0273-1.3359-1.9844-1.6211l-.7421-.2226.0273-.836c.0156-.457.0664-.9765.1094-1.1523l.0781-.3164 15.6953.0703.0977 1.0547m44.5195 6.6289c6.8945 1 10.3516 4.2539 11.5234 10.8359.1094.6172.1914 4.711.2461 12.5313.086 11.4258.0899 11.6289.3789 12.1836.5899 1.125 1.5899 1.4648 2.6251.8828.8437-.4766.9687-.8516 1.1132-3.2969.2187-3.6758.9649-4.6211 3.6446-4.6094 4.9374.0235 5.6133 6.6407.9882 9.6641-7.5195 4.9102-16.9179.6289-18.1601-8.2734-.2579-1.8399-.4336-3.3789-.4414-3.875l-.0039-.4922-.2305.3515c-3.5195 5.379-14.3515 5.543-17.9258.2774-2.6719-3.9336-1.4101-8.582 3.1016-11.418 1.0156-.6406 2.4453-1.3008 3.3438-1.5469 3.1757-.8711 4.8242-1.1015 8.6249-1.207 3.2266-.0898 3.1016-.0234 3.0977-1.5859-.0117-3.3867-1.043-5.4219-3.1367-6.1875-2.043-.75-4.3047.5078-4.3321 2.4062-.0429 3.1485-4.1367 4.9102-7.457 3.2071-3.1992-1.6446-1.6367-6.1172 2.8711-8.2149 1.9688-.918 2.8086-1.1406 6.0703-1.6211 1.211-.1797 2.8867-.1836 4.0586-.0117m64.1719.0664l1.5156.3008c.2539.0469.4961.1406.5391.207s.1757.1211.2968.1211c.3438 0 2.5626.9844 3.3516 1.4883 5.8242 3.7109 4.9961 11.0078-1.5508 13.6406l-1.2656.5078c-.1562.0625-.4726.1563-.7031.2032s-.6758.1484-.9883.2265c-2.1406.5313-4.8008.6641-7.6367.3828-.9453-.0898-1.7461-.1406-1.7774-.1054-.0703.0781.2266 1.6953.3477 1.8945.0469.0781.125.3008.1719.5.25 1.0547 2.2109 3.414 3.5742 4.293 1.8398 1.1914 5.4297 1.6875 7.2929 1.0039 1.9766-.7227 2.336-.9258 3.8282-2.168l.7344-.6094.957.8633c.5273.4766 1.0117.9609 1.0781 1.0781.1992.3399-2.6563 3.043-4.0625 3.8516-8.6211 4.9648-18.7578 2.4805-22.8945-5.6172-4.4883-8.7695.5781-19.8945 9.9375-21.8359l1.2695-.2735c.9531-.2226 4.8047-.1914 5.9844.0469m-90.0782.7031c3.9102.9961 6.004 3.0039 6.004 5.7578 0 2.461-2.5313 4.0352-4.8789 3.0313-1.3946-.5938-1.7539-1.207-1.8829-3.1992-.1054-1.5742-.2734-1.9102-1.1758-2.3789-2.5624-1.3321-6.4257-.2774-6.4257 1.7578 0 .957.9492 1.8398 3.6172 3.3594 7.0742 4.0312 10.0859 6.2148 10.9765 7.9648 1.2188 2.3984.9649 5.6836-.6094 7.8555-.4609.6406-2.3671 2.4609-2.7929 2.6718-.2305.1133-.5742.3047-.7695.4297-.668.4258-2.4805 1.0274-4.2969 1.4297-1.0898.2422-5.7187.2383-6.9687-.0039-1.8126-.3515-4.4805-1.2226-4.7891-1.5625-.0391-.043-.2383-.164-.4415-.2695-1.3163-.6758-2.8202-2.3672-3.2187-3.6094-.0977-.3125-.2344-.7109-.3007-.8867-.379-1 .1093-3.1836.9452-4.2031 2.9297-3.5899 9.6446-.625 6.7969 3-.9257 1.1757-.9687 1.9648-.1523 2.7812 2.1914 2.2031 7.164 1.7852 8.2656-.6914.8867-1.9961.1563-3.3984-2.5976-4.9687l-2.0743-1.2071-2.1836-1.2656-1.5195-.8672-1.4062-.8086c-7.6446-4.3125-5.9805-12.0273 3.0273-14.0469l1.2656-.2773c1.3867-.2969 6.1133-.168 7.5859.207m87.6485 3.4453c-2.8359.8907-4.7578 3.8985-5.3789 8.4141-.1055.7773.0195.8125 2.9492.8125 4.2617 0 6.6328-1.5195 7.5195-4.8047.6211-2.3047-1.2968-4.7422-3.6875-4.6875-.3281.0039-.957.125-1.4023.2656m-32.9727.2891c-1.1249.3359-2.2421 2.1016-2.8476 4.5-.2969 1.1797-.4648 12.9648-.2071 14.6602.3829 2.5195 1.7969 3.4297 3.7852 2.4375 3.5273-1.7579 5.082-10.6407 3.1563-18.086-.6446-2.5117-2.2852-3.9922-3.8868-3.5117M61.7258 60.1953c-3.6406.625-5.3164 1.9258-5.8594 4.5469-.5586 2.6914 1.2734 4.8242 4.1484 4.8242.7305 0 1.0117-.0703 1.9219-.4727 1.3868-.6132 2.4375-2.164 3.1172-4.5976.1719-.6172.5469-4.2422.4571-4.3945-.1016-.1641-2.6485-.1016-3.7852.0937" fill="#faf8f9"/><path d="M27.9992 21.4727v21.4765h.836c.4609 0 .875-.0625.9218-.1406s.8203-.1406 1.8321-.1406c1.125 0 1.7773-.0547 1.8398-.1563s.2813-.1211.6055-.0547c.2812.0586 1.1445.1563 1.9219.2227 1.8789.1562 2.6445.2734 2.8085.4258.0742.0703.3086.125.5196.125s.4258.0625.4726.1406.1758.1406.2852.1406c1.3711 0 4.7969 2.6563 5.6328 4.3672l.5039 1.0195c.0703.1329.125.4024.125.5977 0 .5469.2266.4219.5742-.3125.8789-1.8438 3.7266-4.6836 4.6992-4.6836.1211 0 .2188-.0508.2188-.1094s.207-.1953.4609-.3047l1.1602-.5039c.9375-.4101 1.6445-.6328 2.0078-.6328.1641 0 .3359-.0625.3867-.1406s.3086-.1406.5782-.1406.6015-.0547.7343-.125c.8047-.4297 4.8555-.6055 6.9258-.3047l3.1758.5859c.043.0703.2617.125.4843.125s.4453.0625.4922.1407.1875.1406.3086.1406c.2695 0 2.3477.9961 2.4141 1.1562.0273.0625.1172.1133.2031.1133.7031 0 4.6094 3.9102 4.6094 4.6172 0 .0781.0508.168.1172.1914s.3164.4531.5625.9531l.4453.9024v-2.9024l-.1211-2.9765c-.0703-.043-.168-.418-.2227-.836-.1054-.8672-.4257-1.2773-1.3788-1.7695-3.125-1.6094-1.8673-5.2969 2.5702-7.5391l1.0196-.5156c.1328-.0664.3984-.125.5898-.125s.3789-.0547.4219-.125.25-.1562.4648-.1992l1.7266-.3672c3.2773-.7109 7.7266-.2305 8.957.9609 1.0391 1.0039 1.1836 1.6368 1.1836 5.125v2.8047l.3868-.082 1.8867-.3711 1.5-.2891 1.8086.2891 2.8046.5781c.043.0703.2032.125.3555.125s.3829.0586.5196.1289.4687.2266.7422.3438c2.7109 1.1758 5.8241 4.582 6.5039 7.1211.0351.1328.1953.0117.4609-.3516 1.457-1.9883 2.0312-2.6484 3.1797-3.6484 1.2929-1.1328 2.5703-2.043 2.8594-2.043.1249 0 .2265-.0547.2265-.1172s.5234-.3515 1.1641-.6445l1.4062-.6602c.1329-.0703.3984-.1289.5899-.1289s.3789-.0547.4219-.125.3164-.1601.6093-.1992 1.1602-.2109 1.9375-.3789c1.4141-.3086 4.7735-.3359 6.8633-.0586l.668.0859V0H27.9992v21.4727m19.3282 3.2265c.5898.4453.1406 1.4766-.4766 1.0938-.793-.4961-1.6641-.0664-1.6641.8203 0 .8242 1.2266 1.4687 1.6094.8476.2695-.4336 1.0235.125.8359.6133-.207.543-2.5937 1.0117-2.5937.5117 0-.0781-.0781-.1445-.1758-.1484-.5742-.0273-1.0859-1.4219-.8945-2.4375.2304-1.2266 2.3672-2.0547 3.3594-1.3008m3.8202.3321l.3829.7734c.0703.1328.125.3398.125.457s.0625.211.1406.211.1406.0859.1406.1875.1289.4453.2852.7656c.3242.6719.3437.8984.1094 1.1328-.3321.332-.7735.1914-1.0157-.3242-.2187-.457-.2851-.4922-.8672-.4922-.5742 0-.6601.043-.9218.4922-.6016 1.0195-1.4961.4687-1.0196-.625l.332-.7852c.9727-2.4492 1.7071-3.0234 2.3086-1.7929m3.2383-.3047c.0469.1211.086.8164.086 1.5468v1.3282h.7656c.9883 0 1.4414.3984 1.0859.9531-.082.1328-.4883.1719-1.5117.1406l-1.3945-.039-.0391-1.8946.0313-2.0781c.1015-.2617.875-.2305.9765.043m3.8204 1.8867v2.043h-.9884l-.039-1.8946c-.0469-2.2461-.0352-2.2929.5664-2.2344l.461.0469v2.0391m3.6093-1.9141c1.7383.7305 1.918 3.0274.3047 3.8672-.414.2149-2.4726.211-2.6914-.0078-.293-.293-.2265-3.4805.0781-3.7891.3125-.3164 1.625-.3554 2.3086-.0703m4.8282.6836l.8007 1.7656c.4532.9883.4844 1.1641.2383 1.4102-.3281.3242-.7617.1914-1.039-.3242-.418-.7774-1.5665-.711-1.879.1094-.1132.3007-.2382.3828-.5703.3828-.789 0-.6992-.5821.4297-2.8633.1485-.3008.2695-.6094.2695-.6953 0-1.0235 1.2696-.8672 1.7501.2148m4.4843-.6133c2.3125.9922 1.418 4.0079-1.164 3.9258l-1.1993-.039-.039-1.8829c-.0469-2.375.4883-2.8242 2.4023-2.0039m6.7969-.0468c.8984.375 1.332 1.0273 1.332 1.9961 0 .7773-.5351 1.7265-.9765 1.7265-.0821 0-.1484.0664-.1484.1445 0 .0938-.4493.1329-1.2344.1055l-1.2305-.039-.0391-1.8672c-.0508-2.3672.4649-2.8282 2.2969-2.0664m5.3672-.0078c.5195.5195.1953.8398-.9023.8828-1.2305.0507-1.5391.4492-.3516.457 1.4844.0117 1.6797 1.0234.2109 1.0937-1.2148.0586-1.2734.4493-.0703.4571.9336.0039 1.3476.2383 1.2813.7226-.0469.3203-.0821.3282-1.5977.3282h-1.5469l-.039-1.8829c-.0352-1.6679-.0118-1.9023.2109-2.0703.3633-.2812 2.5234-.2695 2.8047.0118m3.4297-.0821c0 .0742.125.1719.2812.2227.3555.1133.3633.5156.0118.832-.211.1914-.3321.2109-.5548.0938-.457-.2461-1.082-.2032-.8632.0585.0937.1172.3008.211.4609.211 1.0313 0 1.6484 1.5742.9219 2.3516-.7656.8124-3.3047.0703-2.7539-.8086.1796-.2891.7304-.375.875-.1329.1328.211 1.0937.1797 1.0234-.0351-.0351-.0977-.1796-.1953-.3281-.2188-1.3359-.2109-1.9727-1.5156-1.1641-2.3789.3203-.3398 2.0899-.5039 2.0899-.1953m4.1211.1367c2.3086.9883 1.414 4.0079-1.1641 3.9258l-1.1953-.039-.043-1.8829c-.0469-2.375.4922-2.8242 2.4024-2.0039m5.2617-.0546c.5234.5195.1953.8398-.8985.8828-1.2343.0507-1.539.4492-.3515.457 1.4805.0117 1.6797 1.0234.2109 1.0937-1.2226.0586-1.2773.4532-.0625.4532.9883 0 1.5469.3711 1.2891.8554-.1367.2539-.2774.2774-1.6562.2383l-1.5079-.039-.039-1.8164c-.0508-2.3204-.0391-2.336 1.6211-2.336.8633 0 1.2421.0547 1.3945.211m4.9101 1.8984v2.043h-.9844l-.039-1.5039-.0429-1.5079-.379-.0429c-1.0312-.1172-.3359-1.1328.7344-1.0703l.7109.0429v2.0391m3.5001-1.7656c.3906.3593.539 1.3672.2304 1.5586-.0898.0546-.0351.2382.1406.4843.6876.9688.0117 1.836-1.4336 1.836-1.3593 0-2.0781-.8946-1.4453-1.7969.1641-.2344.1797-.3789.0704-.5859-.7149-1.3321 1.289-2.5625 2.4375-1.4961m3.9453.0273c.3945.3945.4843.9844.2226 1.4688-.1094.207-.0898.3515.0703.5859.6328.9023-.0859 1.7969-1.4453 1.7969-1.4297 0-2.2148-1.0235-1.4336-1.8633.1875-.2031.2344-.3516.1406-.4453-.2929-.2969-.1601-1.2071.2305-1.5703.5508-.5078 1.6953-.4961 2.2149.0273m4.2226.0586c.1172.332-.1797 1.2969-.4726 1.5391-.0469.039-.1953.2929-.3282.5625-.6875 1.3828-.8906 1.6211-1.3789 1.6211-.7695 0-.6094-.8008.461-2.3438.3945-.5664.3281-.6641-.4766-.7109-.7929-.0469-1.0625-.4141-.6601-.9024.3398-.4062 2.6992-.2109 2.8554.2344m-9.4492.6563c-.0977.0351-.1758.1445-.1758.246 0 .2149.2696.3438.5273.2539.0977-.0351.1758-.1445.1758-.246 0-.211-.2695-.3438-.5273-.2539m3.9414 0c-.0938.0351-.1758.1445-.1758.246 0 .2149.2735.3438.5312.2539.0938-.0351.1758-.1445.1758-.246 0-.211-.2734-.3438-.5312-.2539m-46.7891 1.0234v.9883h.6211c.6524 0 1.0704-.375 1.0704-.9649 0-.4414-.6798-1.0078-1.2149-1.0078h-.4766v.9844m9.4375 0v.9883h.4844c.8945 0 1.2149-.9375.5508-1.6016-.7148-.7148-1.0352-.5273-1.0352.6133m6.8985 0v.9883h.4648c.8438 0 1.1563-1.0703.4961-1.6875s-.9609-.4024-.9609.6992m12.8164 0v.9883h.4844c.8945 0 1.2148-.9375.5508-1.6016-.7149-.7148-1.0352-.5273-1.0352.6133m-39.2617-.2539c-.2305.2305-.211.3945.043.3945.1171 0 .2109-.125.2109-.2812 0-.3282-.0274-.3399-.2539-.1133m15.3515 0c-.2304.2305-.2148.3945.0391.3945.1172 0 .2109-.125.2109-.2812 0-.3282-.0234-.3399-.25-.1133m37.4414 1.0117c-.207.2539.1407.4063.6367.2812.2735-.0664.3125-.1249.1837-.2812-.2071-.25-.6133-.25-.8204 0m3.7969.0117c-.1445.168-.1055.2227.2031.3008.3985.1016.7266-.1016.5704-.3516-.1328-.2187-.5743-.1914-.7735.0508m.5195 41.4141c-.2109.3515-.3867.6992-.3867.7734s-.0625.1367-.1406.1367-.1406.0625-.1406.1367c0 .1524-1.0821 1.8829-1.5039 2.4141-1.1289 1.4102-3.7735 3.5625-5.1133 4.1641-1.9375.8672-2.4063 1.0117-4.7891 1.4804-.9258.1797-4.4453.2305-4.8945.0664-.3047-.1093-.3164-.0859-.3164.7344 0 .4649-.0625.8828-.1406.9336s-.1407.2696-.1407.4922c0 1.0078-1.2304 3.1875-2.4179 4.2774-.4141.3789-1.004.8554-1.3125 1.0546l-.6367.4493c-.0352.0468-.2735.1718-.5274.2812s-.457.25-.457.3086-.125.1055-.2813.1055-.2812.0625-.2812.1406-.0899.1406-.1993.1406-.4101.1055-.6679.2344c-.8828.4414-.9609.4687-1.3047.4687-.1914 0-.3867.0664-.4336.1407s-.3321.1406-.6328.1406-.5859.0664-.6328.1406c-.0547.086-1.0352.1446-2.4649.1446s-2.414-.0586-2.4648-.1446c-.0508-.0742-.3672-.1406-.7031-.1406s-.6602-.0625-.7071-.1406-.2343-.1407-.4179-.1407-.668-.164-1.082-.3671l-2.6251-1.4141c-.1015-.1016-.2539-.1875-.332-.1875-.2227 0-3.3594-3.2109-3.3594-3.4375 0-.1094-.0469-.2227-.1055-.25-.2343-.1055-1.2265-1.9023-1.582-2.8633l-.332-.8125c-.1289-.2929-.2305-.6875-.2305-.8711s-.0664-.3789-.1406-.4258-.1445-.2109-.1445-.3593c0-.2657-.0118-.2657-.4571-.0196-2.5703 1.4141-8.9883 1.8672-11.4414.8047-.2304-.1015-.6757-.2695-.9844-.3711s-.625-.2343-.6992-.2969-.2148-.1132-.3125-.1132c-.6328 0-3.4648-2.3086-4.1914-3.418-.3398-.5156-.3281-.5195-1.4961.5898-.5625.5352-1.1875 1.0586-1.3867 1.1641s-.3945.2227-.4336.2656c-.0585.0664-.582.3243-2.5703 1.2813-.1328.0664-.3672.1172-.5195.1172s-.3125.0664-.3633.1406-.2617.1406-.4766.1406-.4375.0508-.4961.1094c-.3281.3281-4.4922.7773-6.1367.6601L29.3 77.5273l-1.3008-.0742V98.293h.9141c.5156 0 .9141-.0625.9141-.1407s.3202-.1406.7109-.1406c.5 0 .7305-.0625.789-.2109s.293-.211.8399-.211c.418 0 .7578-.0625.7578-.1406s.3516-.1406.7773-.1406.7735-.0625.7735-.1406.3476-.1406.7734-.1406.7773-.0665.7773-.1407c0-.082.3985-.1406.918-.1406.6875 0 .9414-.0547 1-.2109s.3125-.2149.9805-.2149c.5078 0 .9024-.0586.9024-.1367s.3984-.1445.914-.1445.918-.0586.918-.1407.4687-.1406 1.125-.1406 1.125-.0586 1.125-.1406.4492-.1406 1.0586-.1406 1.0547-.0586 1.0547-.1407.4687-.1406 1.1171-.1406c.8047 0 1.1758-.0586 1.3281-.2109s.5313-.211 1.418-.211c.711 0 1.2071-.0586 1.2071-.1406s.6094-.1406 1.5508-.1406 1.5468-.0547 1.5468-.1406.6563-.1407 1.6836-.1407c.9688 0 1.7188-.0625 1.7657-.1406.0546-.0859.9452-.1406 2.1992-.1406 1.7422 0 2.1211-.0391 2.1875-.211.0703-.1796.539-.2109 3.0234-.2109 1.8672 0 2.9414-.0547 2.9414-.1445s3.6367-.1406 10.6328-.1406l10.6328.1406c0 .0898 1.0782.1445 2.9571.1445 2.5351 0 2.957.0274 2.957.2109 0 .1758.3203.211 2.043.211 1.2656 0 2.0429.0508 2.0429.1406s.6797.1406 1.7578.1406 1.7618.0547 1.7618.1407.6094.1406 1.5469.1406 1.5507.0547 1.5507.1406.5625.1406 1.4063.1406c1.1601 0 1.4101.0391 1.4101.211s.211.2109 1.0469.2109c.5781 0 1.086.0625 1.1367.1406s.6211.1407 1.2735.1407c.6992 0 1.1914.0585 1.1914.1406s.3984.1406.914.1406.9141.0625.9141.1406.4219.1407.9883.1407.9843.0625.9843.1445.3946.1367.8985.1367c.6719 0 .9218.0547.9844.2149.0586.1523.3046.2109.9218.2109.461 0 .879.0625.9258.1406s.4336.1407.8555.1407.7656.0624.7656.1406.3477.1406.7735.1406.7734.0625.7734.1406.3437.1406.7617.1406c.543 0 .7812.0586.8398.211s.2891.2109.7891.2109c.3906 0 .7109.0625.7109.1406s.3985.1407.9141.1407h.9141V77.875h-.5352c-.293 0-.5937.0586-.668.1289s-.7343.1641-1.4726.2031-1.6133.1133-1.9492.1641c-.3868.0625-.668.0391-.7656-.0586-.0899-.0898-.6719-.1562-1.3868-.1562-.6796 0-1.2695-.0626-1.3203-.1407s-.2851-.1406-.5234-.1406-.668-.0703-.9453-.1602c-.7188-.2265-1.586-.5507-1.8711-.6992-.1368-.0703-.3438-.1289-.461-.1289s-.2109-.0625-.2109-.1406-.0937-.1406-.2071-.1406c-.2148 0-1.2929-.5586-1.9296-1.0039-.2031-.1446-.4375-.2618-.5156-.2618s-.1641-.0468-.1876-.1054-.3007-.293-.6093-.5196c-1.8438-1.3437-4.2149-4.0468-5.0508-5.75-.4727-.9726-.4844-.9726-.9727-.1679" fill="#0c2c74"/><path d="M44.5617 25.0039c-.918.9219-.7383 3.375.2539 3.4336.0703.0039 0-.1368-.1562-.3086-1-1.0977-.7461-2.7422.5234-3.3789.3828-.1953.4258-.2461.1875-.2461-.1679 0-.5312.2226-.8086.5m2.4492-.25c.2696.1406.5195.2344.5508.2109.1211-.0859-.4883-.4531-.7656-.457-.1992-.0039-.1367.0703.2148.2461m2.8516-.0742c-.2227.2851-.9258 1.7968-.8633 1.8593.0313.0313.2891-.414.5703-.9882.5039-1.0274.5704-1.2227.293-.8711m1.1367.375c.1641.3046.3281.5273.3594.4961.082-.0821-.4453-1.0469-.5664-1.0469-.0547 0 .039.2461.207.5508m2.4102-.3711c-.1836.4804.0078 3.9687.2187 3.9843.1211.0079.1367-.0117.0352-.0429-.1289-.043-.1758-.5742-.1758-2.0078s.0469-1.9688.1758-2.0235c.1367-.0547.1367-.0703-.0039-.082-.1016-.0039-.211.0742-.25.1719m.7578.0039c.0859.1015.1719.8125.1953 1.582l.0391 1.4023.4218.0352c1.0469.0938 1.3555.1953 1.4805.5.0899.2266.125.2461.1328.0742.0157-.4492-.3945-.6797-1.1992-.6797h-.7656v-1.3281c0-1.375-.0703-1.7695-.3125-1.7695-.0938 0-.0898.0625.0078.1836m3.0312.0312c-.1289.332.0079.3711.2032.0586.1093-.1758.1172-.2734.0273-.2734-.082 0-.1875.0976-.2305.2148m.793-.125c.2774.1406.1836 3.8125-.1016 3.9883-.2265.1406-.2226.1524.0352.1133.3476-.0547.4453-4.0664.1016-4.1367-.1016-.0196-.1172-.0039-.0352.0351m1.5156.1758c-.5.5078-.3164 3.957.2149 3.957.0664 0 .0234-.0976-.0977-.2226-.3437-.3399-.3242-3.4024.0235-3.6641.5468-.418 2.2382-.1367 2.8867.4766.2148.1992.3867.3125.3867.25 0-.7774-2.7891-1.4297-3.4141-.7969m5.6211-.0117c-.1289.1445-.2344.332-.2344.4219s-.1249.3828-.2812.6601-.2773.5781-.2734.6719c.0078.2265.6953-1.1602.6953-1.4024 0-.1015.0586-.1835.125-.1835s.164-.0977.207-.211c.1094-.2812.043-.2695-.2383.043m.918-.0781c.1211.0937.3633.5078.543.914s.3554.707.3867.6758c.1328-.1367-.7305-1.7656-.9375-1.7656-.1875 0-.1836.0195.0078.1758m3.0117-.0508c-.0468.0742.1641.0937.4844.0508 2.5508-.3399 3.7929 2.8437 1.4961 3.8437-.3281.1445-.3672.1953-.1602.1992.1563 0 .4453-.1406.6406-.3125 1.3009-1.1445 1.1016-3-.3906-3.6406-.6445-.2773-1.9336-.3633-2.0703-.1406m6.8203-.0156c0 .0586.2578.082.5743.0507 2.2656-.2148 3.5078 1.875 2.0585 3.4649-.2969.3281-.2109.4531.0938.1406 1.1406-1.168.8007-2.9258-.6797-3.5469-.543-.2265-2.0469-.3086-2.0469-.1093m4.6094.0898c-.3476.2617-.3125 3.9414.0391 3.9648.1211.0079.1367-.0117.0351-.0429-.332-.1094-.2421-3.6563.0937-3.836.4376-.2343 2.336-.1875 2.543.0625.3516.4219.0665.6211-.9414.6641-1.2851.0586-1.4687.5781-.2304.6484 1.3554.0782 1.4297.8321.0898.9024-1.2383.0625-1.2187.582.0234.6484 1.0313.0508 1.6758.6133 1.0586.918-.082.039-.0625.0586.0352.039.2891-.0586.3008-.6523.0156-.8671-.1484-.1133-.6016-.1993-1.0703-.1993-1.2031-.0078-1.1445-.3984.0703-.457 1.4688-.0703 1.2735-1.082-.2109-1.0937-1.1875-.0079-.8789-.4063.3516-.4571 1.0976-.0429 1.4218-.3633.9023-.8828-.2813-.2812-2.4414-.293-2.8047-.0117m4.1445.125c-.168.1797-.3008.4492-.2968.5976.0078.254.0195.25.1288-.0234.0665-.164.293-.4336.504-.5976.2344-.1836.3047-.3008.1796-.3008-.1132 0-.3437.1445-.5156.3242m4.1407-.1992c-.0469.0742.164.0937.4843.0508 2.5274-.336 3.7579 2.6875 1.5469 3.8007-.3515.1758-.4101.2461-.2109.2461.6797 0 1.4804-1.082 1.4804-1.9961 0-.9218-.4375-1.6211-1.2304-1.9609-.6446-.2773-1.9336-.3633-2.0703-.1406m4.5156.1367c-.332.3633-.2852 3.8789.0508 3.9023.1211.0079.1367-.0117.0351-.0429-.3281-.1094-.2383-3.6563.0977-3.836.4375-.2343 2.3359-.1875 2.5429.0625.336.4063.0626.6211-.871.6758l-.8868.0547.9844-.0117c1.0586-.0117 1.3867-.336.8633-.8555-.3359-.3359-2.5039-.2969-2.8164.0508m6.0469.0078c-.2696.2969-.2539.7422.0273.7969.1015.0195.1172.0039.0352-.0352-.3164-.1562-.1368-.6289.3164-.8242.3515-.1523.3867-.1992.1601-.2031-.1601-.0039-.4023.1172-.539.2656m1.4374-.0976c.1329.1562.168.7148.1407 2.0273l-.0391 1.8125-.3867.043-.3867.0468V27.125c0-.8125-.0469-1.5078-.1055-1.5469s-.0742.6445-.0351 1.5078l.0702 1.5703h.9844V26.625c0-1.6797-.0351-2.043-.2109-2.0977s-.1797-.0351-.0313.1485m1.6602.0429c-.3516.2657-.2226.2617.293-.0039.2187-.1172.3086-.2109.1914-.207s-.3359.0976-.4844.2109m1.4688-.1172c.7226.2617 1.1406 1.3828.6875 1.836-.1211.1172-.1016.2187.0664.3906.3711.3672.4218.8437.1445 1.2852l-.2539.4023.3125-.2695c.3867-.3321.3984-.8321.0273-1.3555-.1757-.2461-.2304-.4297-.1406-.4844.5313-.332-.1679-1.9258-.8281-1.8945-.1914.0117-.1914.0234-.0156.0898m2.3437.2461c-.3906.3633-.5234 1.2735-.2305 1.5703.0938.0938.0469.2422-.1406.4454-.3789.4023-.3633 1.0468.0274 1.3828l.3125.2695-.2422-.3828c-.3165-.5078-.3008-.836.0586-1.2227.2187-.2344.2578-.3593.1406-.4765-.4492-.4493-.0312-1.5704.6875-1.8321.1797-.0664.1758-.0781-.0156-.0898-.1211-.0039-.3906.1445-.5977.3359m1.6914-.207c.6407.2578.9336 1.0937.6016 1.7109-.1133.2149-.0977.3633.0703.6211.457.6914.168 1.3477-.7148 1.6094-.379.1133-.3829.1211-.0547.1328.8203.0274 1.3984-1.0976.914-1.7851-.1601-.2344-.1797-.3789-.0703-.586.3672-.6836-.1601-1.8594-.8203-1.832-.1601.0039-.1367.043.0742.1289m1.8867.0664c-.3984.4805-.125.8477.6641.8945.8047.0469.8711.1446.4766.711-.5274.7617-1.0313 1.8281-.9844 2.082.0781.4141.8164.4336 1.1289.0274.3711-.4844.3125-.6797-.0664-.2071-.3477.4336-.836.4688-.9141.0664-.0234-.1289.2734-.7578.6602-1.4023.7851-1.3086.7695-1.3867-.3008-1.3907-.6133 0-.6719-.0312-.6719-.3359 0-.832 2.7852-.7187 2.8359.1172.0118.2266.0274.2383.0782.0508.1992-.7539-2.3438-1.293-2.9063-.6133m-22.832.3359c.2461.4571-.0391.668-.6719.5-.6211-.1679-1.039-.0273-.914.3008.0429.1133.1445.207.2226.207s.0664-.0898-.0312-.2109c-.2188-.2617.4062-.3047.8632-.0586.2227.1172.3438.0977.5548-.0937.3242-.293.3515-.7031.0546-.8164-.1679-.0625-.1836-.0274-.0781.1718m15.0312.1172c-.1405.1446-.1093.875.0548 1.1836.1093.2071.0937.3516-.0704.586-.4804.6875.0977 1.8125.918 1.7851.3242-.0117.3242-.0195-.0586-.1328-.8789-.2617-1.168-.918-.7148-1.6094.1797-.2734.1875-.3984.0547-.6484-.0899-.1719-.1289-.5235-.0899-.7852.082-.4883.0664-.539-.0938-.3789m-56.2421.2969c-.6836.1055-.9805 1.2305-.5157 1.9375.2422.3672 1.3438.5156 1.5313.207.1367-.2148.5938-.1679.6875.0703.1328.3477-.0469.5977-.5898.8243-.2852.1211-.4063.2187-.2657.2226.3164.0117.8946-.3633 1.0039-.6445.1876-.4883-.5664-1.0469-.8359-.6133-.0469.0742-.3437.1406-.6602.1406-1.3242 0-1.3554-1.8906-.0351-1.9961.3633-.0312.457-.0742.2734-.1211-.1523-.0429-.4219-.0546-.5937-.0273m57.2812.0938c-.3789.457.25 1.0078.6719.5859.1797-.1797.1992-.2891.082-.4766-.207-.3242-.5312-.375-.7539-.1093m3.9492-.004c-.2304.2774-.0586.7852.2618.7852.3828 0 .6601-.3906.4804-.6797-.1992-.3164-.5273-.3633-.7422-.1055M47.3 25.625c-.1054.0625-.2891.082-.4062.0351-.1368-.0507-.1758-.0234-.1094.086.125.207.5976.2148.7227.0156.1328-.2109.0233-.2813-.2071-.1367m22.4414.0547c-.0391.1054-.0547.5937-.0312 1.0898l.0429.9023.4688.043c.4687.0469 1.0078-.2695 1.0078-.5898 0-.0821-.0977-.0117-.2188.164-.1523.2188-.3632.3125-.7031.3125h-.4844v-.9765c0-.9024.0235-.9805.3165-1.0391l.3164-.0586-.3204-.0195c-.1757-.0117-.3554.0664-.3945.1719m6.9336-.0977c-.0508.0508-.0937.5586-.0937 1.125v1.0352h.5429c.6954 0 1.0079-.336 1.0079-1.0821 0-.5312-.3087-1.0312-.6368-1.0312-.0664 0 .0195.1289.1875.2851.6602.6172.3477 1.6875-.4961 1.6875h-.4648v-.9765c0-.9024.0273-.9805.3164-1.0391.2968-.0547.2968-.0625.0234-.0781-.1601-.0117-.332.0234-.3867.0742m12.7813.0977c-.0391.1054-.0547.5937-.0313 1.0898l.043.9023.4687.043c.4727.0469 1.0117-.2695 1.0117-.5898 0-.0821-.1015-.0117-.2226.164-.1523.2188-.3594.3125-.7031.3125h-.4844v-.9765c0-.9024.0234-.9805.3164-1.0391l.3164-.0586-.3203-.0195c-.1758-.0117-.3555.0664-.3945.1719m14.3046.164c0 .1016-.0781.211-.1758.2461-.2577.0899-.5273-.0391-.5273-.2539 0-.1016.0781-.2109.1758-.2461.2578-.0898.5273.043.5273.2539m3.9453 0c0 .1016-.082.211-.1758.2461-.2577.0899-.5312-.0391-.5312-.2539 0-.1016.082-.2109.1758-.2461.2578-.0898.5312.043.5312.2539M61.7063 26c.707.707.3163 1.5468-.754 1.6406l-.6367.0508.6602.0234c.7109.0274 1.2421-.3945 1.2421-.9922 0-.3242-.5155-1.0937-.7343-1.0937-.082 0 .0195.1679.2227.3711m9.1211-.0274c.1796.1875.3554.3125.3906.2813.082-.086-.4258-.625-.5859-.625-.0743 0 .0156.1523.1953.3437m19.7148 0c.1797.1875.3555.3125.3906.2813.082-.086-.4219-.625-.5859-.625-.0742 0 .0156.1523.1953.3437m3.5469-.1328c.0234.2344.1484.2891.7265.3242 1.3281.086 1.5586.8242.2852.9141l-.7773.0508.8124-.0117c1.4102-.0196 1.1485-1.0508-.2734-1.0625-.5-.004-.6719-.0625-.7305-.25s-.0664-.1836-.0429.0351m18.1406.2852c-.168.2773-.3008.5507-.3047.6015s-.125.2578-.2773.4493c-.293.3789-.3711.6367-.1446.496.0742-.0468.2461-.3203.3789-.6054s.2774-.5547.3203-.5938.1641-.2187.2657-.3984c.3047-.5469.082-.5-.2383.0508m-49.2227.0195c.1289.5391.1953.5898.1953.1484 0-.1992-.0625-.4062-.1445-.457-.0977-.0586-.1133.0469-.0508.3086m-12.7656.0625c-.1641.3086-.1601.3203.0547.1445.2031-.1718.2344-.1562.2344.0938 0 .1601-.1133.3164-.2461.3555-.1875.0468-.168.0664.0703.0781s.3164-.0586.3125-.3008c-.0039-.5625-.2227-.7539-.4258-.3711m15.2773.0508c-.1758.2656-.1991.414-.0937.5234.2148.211.5977.0352.5781-.2695-.0156-.2344-.0195-.2344-.0781-.0039-.0352.1367-.1562.2461-.2656.2461-.2656 0-.2539-.1289.0312-.4453.1289-.1446.1992-.2969.1524-.3399s-.1914.086-.3243.2891m18.8125-.0508c-.0077.3672 1.0391 1.0703 1.4102.9453.0937-.0312-.0781-.1406-.3867-.2422-.3164-.1054-.6563-.3437-.7891-.5586-.1523-.2422-.2304-.2929-.2344-.1445m2.0587.1172c.3202.1445.6523.3789.7343.5234s.1523.1836.1563.0899c.0078-.2344-.8829-.8868-1.2071-.8828-.1562 0-.0234.1132.3165.2695M67.2297 27c.4687 1.1054.4844 1.1757.3164 1.4882-.1485.2813-.1406.2891.0703.1172.3125-.2578.2969-.4101-.1289-1.3398-.4024-.8789-.6133-1.0938-.2578-.2656m-4.1485-.0118c-.0117.0938-.0586.2813-.1093.4258-.0704.1992-.0508.2188.082.0938.0977-.086.1445-.2774.1094-.4219s-.0742-.1875-.0821-.0977m-11.1445.0938c0 .0352.0938.2891.211.5625.3398.8125-.2383 1.3945-.6367.6484-.0899-.164-.1915-.2617-.2266-.2265-.1485.1484.3164.6601.6015.6601.5196 0 .6836-.3476.4727-.9961-.1563-.4687-.4219-.8789-.4219-.6484m34.1563.2734c.1093.2774-.8243.375-.9922.1055-.1485-.2422-.6954-.1562-.8789.1328-.0938.1524-.1172.3086-.0469.3516s.1523-.0508.1953-.207c.0742-.293.5782-.3868.7305-.1368.1172.1875 1.0156.1797 1.1367-.0117.0508-.0859.0196-.2305-.0703-.3203-.1289-.125-.1445-.1055-.0742.0859m7.9961.0352c.0234.2383.1484.2851.8671.3242 1.043.0508 1.7032.6445 1.0235.918-.1328.0547-.1328.0742-.0039.082.0937.0078.2383-.1133.3203-.2617.2539-.4766-.3125-.8516-1.2813-.8516-.6484 0-.8242-.0508-.8828-.2461s-.0664-.1875-.0429.0352m13.5273.0352c.0156.1953-.086.2382-.4727.2187s-.4413.0039-.2421.1172c.4023.2226.8671.0898.918-.2656.0233-.1758-.0157-.3203-.0899-.3203s-.125.1132-.1133.25m-43.8437.3007c-.2618.6328-.0782 1.0274.4531.9727.2382-.0234.4648-.1367.5-.2539.0507-.1719.0273-.1758-.125-.0352-.4961.4688-1.0157.0078-.6875-.6093.1015-.1876.1484-.375.1094-.418s-.1524.1133-.25.3437m39.2343.0469c.0899.1445.6367.1328.875-.0156.1211-.0781-.0117-.1172-.375-.1055-.3125.0078-.5351.0625-.5.1211m-53.5586.2148c-.0468.1329-.1835.3555-.3007.4922s-.1446.2461-.0625.2461.2812-.2226.4414-.4922.2265-.4921.1484-.4921-.1797.1093-.2266.246m13.0469.1094c-.1836.1953-.5273.4102-.7617.4805s-.3164.1289-.1758.1367c.4375.0196 1.5234-.7226 1.332-.9101-.0312-.0352-.2109.0976-.3945.2929m24.5586-.0078c-.0508.1328-.289.3321-.5273.4375-.3438.1485-.375.1914-.1446.1953.3086.0039 1.0117-.6367.8594-.789-.0508-.0508-.1328.0195-.1875.1562m-29.9062.25c0 .125.0702.2695.1523.3203.2422.1524.2656.0196.0469-.2773-.1641-.2266-.1992-.2344-.1992-.043m27.4609.0938c.1953.1562.5117.2812.7031.2773l.3555-.0078-.3633-.1094c-.1953-.0625-.5156-.1875-.7031-.2812l-.3438-.168.3516.2891m-39.5703.1718c0 .0664.1562.1211.3515.1211s.3516-.0234.3516-.0547-.1562-.082-.3516-.1211-.3515-.0117-.3515.0547m32.6718-.0195l-.3515.1133.3867.0117c.211.0078.3868-.0469.3868-.125s-.0157-.1328-.0352-.125-.1954.0625-.3868.125m26.3321 0l-.3516.1133.3867.0117c.2149.0078.3867-.0469.3867-.125s-.0156-.1328-.0351-.125-.1914.0625-.3867.125m2.2539.0195c0 .0664.1601.1211.3516.1211s.3515-.0234.3515-.0547-.1562-.082-.3515-.1211-.3516-.0117-.3516.0547m-24.082 5.1368c-.5626.1367-.6212.1679-.211.1171 2.6133-.332 6.0625-.1953 7.6211.2969.2109.0664.2227.0547.0547-.0508-.8906-.5781-5.6367-.8047-7.4648-.3632m-1.5469.3359c-.2813.1797.0703.1797.4922 0l.2812-.1211-.2812-.0078c-.1563-.0039-.3789.0547-.4922.1289m9.4922.3242c.1484.0938.4883.3594.7617.5899.3398.2929.4375.332.3164.1367-.1836-.2891-1.043-.918-1.2383-.9024-.0586.0039.0117.086.1602.1758m-11.4649.2305l-.9844.5078c-1.6406.832-3.957 2.8047-3.9413 3.3594.0039.0859.1445-.0352.3125-.2657.9258-1.2812 2.5-2.4648 4.332-3.2695.582-.2539.9297-.457.7734-.4531s-.375.0586-.4922.1211m12.9766 1.6484c.2227.6758.2617 1.2461.2617 3.7344l.1055 2.9336c.2617-.0078.5351-.2774.2812-.2774-.2265-.0039-.2461-.2304-.2461-2.7773 0-2.6719-.2226-4.4063-.5624-4.4063-.0586 0 .0156.3555.1601.793M73.507 39.082c-.207.457-.1992 1.1484.0195 1.6601.1485.3516.168.2579.168-.8085l-.0117-1.2071c-.0078 0-.0859.1602-.1758.3555m1.086 3.1484c.3398.3203.6875.5743.7773.5703s.0352-.082-.1133-.1757-.4961-.3477-.7734-.5703c-.3711-.293-.3438-.2461.1094.1757m-15.0508-.0625c-1.2696.1524-1.1641.1602 2.043.1563 3.2656-.0039 3.3359-.0117 2.0429-.1719-1.6093-.1992-2.3281-.1953-4.0859.0156m35.0664-.0078c-.8633.1563-.7734.1641 1.4765.168h2.3946l-1.1953-.1719c-1.4258-.2031-1.5039-.2031-2.6758.0039m27.0391.0274l-.7774.1953.918-.1016c1.1172-.1211 4.5898-.1211 6.125 0 .9805.0781 1.0352.0742.4218-.0508-1.1914-.2422-5.7968-.2695-6.6874-.0429m-88.2266.3398c-.0547.0898.1953.1367.6602.1289.5859-.0117.6718-.0391.3945-.1289-.5078-.1641-.957-.1641-1.0547 0m23.7266 0c-.2656.1719.1679.1719.707 0 .3437-.1094.3398-.1133-.0742-.125-.2305-.0078-.5157.0508-.6328.125m7.8984-.0898c.0312.0273.3125.0937.6211.1484.4062.0664.5039.0508.3516-.0508-.1876-.1289-1.1133-.2226-.9727-.0976m27.8711.0898c-.2773.1797.0742.1797.4922 0l.2812-.1211-.2812-.0078c-.1524-.0039-.375.0547-.4922.1289m5.9141 0c.5429.1758.832.1758.5625 0-.1133-.0742-.3672-.1328-.5625-.125l-.3516.0117.3516.1133m21.2656.0078c-.1524.1016-.0977.1172.2109.0469.5196-.1172.6289-.1953.2695-.1914-.1484 0-.3632.0664-.4804.1445m-90.3399.2735c-.0976.1601.2227.1601.8477 0 .3984-.1016.3867-.1094-.168-.125-.3242-.0079-.6289.0468-.6797.125m6.7031-.0899c.0313.0313.3125.0938.6211.1485.4024.0664.504.0507.3516-.0508-.1875-.1289-1.1133-.2227-.9727-.0977m19.3516.0899c-.1054.1679.1719.1679.5625 0 .25-.1055.2422-.1211-.0976-.1289-.2071-.0079-.418.0507-.4649.1289m10.9844 0c.3867.1679.5234.1679.4218 0-.0468-.0782-.2265-.1368-.3944-.1289-.3008.0078-.3008.0117-.0274.1289m33.2343 0c.3868.1679.5235.1679.422 0-.0469-.0782-.2266-.1368-.3946-.1289-.2969.0078-.3008.0117-.0274.1289m18.8711 0c-.1054.1679.0352.1679.422 0 .2695-.1172.2695-.1211-.0274-.1289-.1719-.0079-.3476.0507-.3946.1289m-43.3046.1328c0 .082.0585.1484.1367.1484.3242 0 .6992.6446.7851 1.3594.0547.418.1641.7969.2422.8477.1524.0937.0938-.3516-.1836-1.3829-.1328-.4921-.9804-1.3359-.9804-.9726m-47.5977.1484c0 .1641.3359.1641.8438 0 .3008-.0937.2617-.1133-.2461-.125-.3281-.0078-.5977.0469-.5977.125M37.8664 43c.1562.1328.9805.2148.9024.0898-.0469-.0781-.2813-.1406-.5235-.1406s-.4101.0234-.3789.0508m16.8867.0898c-.2773.1836.0743.1836.4961 0l.2813-.1211-.2813-.0078c-.1562-.0039-.3789.0547-.4961.1289m13.0274 0c.3867.168.5273.168.4218 0-.0469-.0781-.2265-.1367-.3945-.1289-.2969.0078-.2969.0117-.0273.1289m50.0625-.0039c-.1172.0664-.7344.3594-1.3711.6523s-1.1641.5704-1.1641.6212.4336-.1212.961-.379l1.7265-.7461c.4961-.1796.6407-.2734.4102-.2695-.1915 0-.4454.0547-.5625.1211m-78.2969.3711l.9492.3672c.1758.0859.3516.125.3907.082s-.1329-.1523-.3868-.2461l-.707-.3008c-.1328-.0703-.3867-.125-.5625-.1211-.2031.0039-.0859.0821.3164.2188m13.8008.1328c-.8321.4336-.6758.4297.3633 0 .457-.1914.707-.3437.5507-.3359s-.5664.1562-.914.3359m15.4921-.1328l.7501.3594c.1445.0781.2968.1054.3359.0625.0859-.086-1.1562-.6485-1.418-.6446-.0898.0039.0586.1016.332.2227m33.2305.1016l.9883.5078c.1914.1015.2891.1211.211.0429-.2188-.2148-1.4688-.8789-1.6602-.8789-.0938 0 .1133.1485.4609.3282m-60.2187.8437c2.125 1.3555 2.9531 2.1406 3.6758 3.4805.2695.5.4922.8359.4922.7422.0195-.8516-2.1289-3.2383-3.6954-4.1094-.5625-.3164-.9218-.3984-.4726-.1133m61.9101.0938l.9102.75c1.2109.9726 2.4531 2.5117 3.1836 3.9375.1875.3671.3633.6015.3906.5234s-.0156-.2266-.0899-.3203-.3241-.5039-.5507-.9102c-.7422-1.3554-2.2774-3.0234-3.5469-3.8554-.3555-.2344-.4883-.2891-.2969-.125m-52.8789.3593l-.4219.3516.5626-.3086c.7109-.3906.7226-.3984.4804-.3984-.1093 0-.3867.1601-.6211.3554m20.2188-.3125c.0351.0274.2812.1914.5507.3672l.4962.3164-.4219-.3633c-.2344-.1992-.4844-.3632-.5547-.3632s-.1016.0195-.0703.0429m43.1523.3946l-.7734.5468c-.1172.0665-.1797.1485-.1406.1836s.4726-.2109.9648-.5508.8086-.6171.7031-.6132-.4453.1953-.7539.4336m-64.7461.9101l-.8085.711c0 .039.3828-.2227.8476-.5821.7266-.5586.9531-.7773.8086-.7734-.0195 0-.3985.293-.8477.6445m23.6953.3555c1.2657 1.2539 1.7579 1.8203 2.1406 2.4687.1602.2657.3204.4532.3594.4141.1993-.1953-1.6718-2.3984-2.8515-3.3594-.5274-.4258-.4375-.3047.3515.4766m39.1328.2305c-1.1406 1.0117-2.2929 2.2773-2.7343 3.0039-.0742.125.0508-.0039.2773-.2813s1.0703-1.1523 1.8711-1.9453c1.5703-1.5625 1.7773-1.8359.5859-.7773M48.2492 47c-.3984.4648-1.125 1.6015-1.0625 1.664.0312.0352.2578-.2383.5-.6093l.6719-.9844c.2773-.375.1953-.4258-.1094-.0703m-1.4531 2.3359c-.1172.2813-.2774.5156-.3516.5156s-.1406.0938-.1406.211.0508.2109.1172.2109c.1328 0 .75-1.2969.6563-1.3867-.0352-.0352-.1602.168-.2813.4492m29.2461.4805l.75 1.4414c.082 0-.1328-.5703-.4219-1.125-.1836-.3555-.4726-.6367-.3281-.3164m32.8828.5351c-.2148.2657-.3242.4844-.25.4844.1523 0 .7813-.8281.6953-.918-.0312-.0312-.2305.1641-.4453.4336m-1.3203 17.7735c-.0469.1328-.211.4218-.3594.6406s-.2422.4258-.2031.4648.2148-.1875.3945-.5039c.1914-.3398.3985-.5508.5078-.5078.1016.0391.1836.0156.1836-.0508 0-.25-.4336-.2851-.5234-.0429m.8047.9257c0 .504 2.6992 3.8165 3.7383 4.5899.2187.1601-1.5938-1.8125-1.9258-2.0977-.0469-.0429-.4492-.6132-.8946-1.2734-.9023-1.332-.9179-1.3516-.9179-1.2188m-2.4492 1.8633c-.375.5743-.9336 1.3282-1.2423 1.6797s-.4999.6328-.4257.6328.2852-.1992.4687-.4453l.5001-.6055c.2382-.246 1.4804-2.2109 1.4296-2.2617-.0234-.0273-.3516.4219-.7304 1M43.968 73.3867c-.4571.4609-1.168 1.0664-1.5821 1.3398s-.707.5391-.6601.586.1328.0273.1875-.0469.2617-.2227.4609-.3242.8242-.6289 1.3867-1.1641c1.168-1.1094 1.1563-1.1054 1.4961-.5898.7383 1.1289 3.5586 3.4179 4.211 3.4179.1094 0 .2383.0664.289.1407s.1915.1367.3243.1289-.1016-.1641-.5118-.3516c-1.539-.7031-3.9336-2.6601-4.1718-3.4102-.211-.6679-.5703-.6015-1.4297.2735m59.7226.2617c-.3672.4063-.2031.4531.1797.0508.1797-.1797.2695-.3321.1993-.3321s-.2383.129-.379.2813m8.8008.2656c0 .0743.332.375.7383.668l.8125.6133c.0391.039.2109.1523.3867.25.5977.3359.3164.0469-.4922-.5078l-1.1289-.8555c-.1719-.168-.3164-.2422-.3164-.168m-10.1875.9414c-.5313.4063-1.3711.9453-1.8594 1.2032s-.8671.4961-.832.5312c.1289.1289 2.5781-1.3711 3.4297-2.0977.6953-.5898.1914-.3437-.7383.3633m-61.8438.9844c-.5429.2617-.9023.4805-.8046.4805.2031.0039 1.8632-.8086 1.8632-.9141 0-.0859.0782-.1172-1.0586.4336m74.504-.0937c.2383.2148 1.4765.8593 1.6523.8593.0937-.0039-.2383-.2265-.7383-.496-.9179-.4922-1.1562-.5899-.914-.3633m-52.4649.8593c-.2695.1485-.4218.2735-.3359.2774.1758.0078 1.039-.4063 1.039-.4961 0-.1172-.2109-.0469-.7031.2187m.8555-.0429c-.0039.1719.0547.3476.1328.3984s.1406.2539.1445.4649.1016.5351.2188.7304l.2148.3516-.0859-.3516c-.3633-1.4297-.6133-2.0664-.625-1.5937m35.2656.3242c-.3086.1445-.4922.2656-.4023.2734.1953.0118 1.1758-.3906 1.1758-.4843 0-.1133-.1758-.0626-.7735.2109m-61.6094.1406l-.3515.1133.3789.0156c.207.0078.4179-.0508.4648-.1289.0977-.1562.0078-.1562-.4922 0m24.4688-.0547c-.0781.0781-.4336.1797-1.7266.4961-.3086.0742-.9414.1914-1.4062.2578l-.8477.125.8477-.0468c1.1523-.0626 3.5898-.6407 3.5898-.8516 0-.0937-.3594-.0781-.457.0195m-33.2695.336c-.9961.3593 6.5546.4297 7.7461.0703l.7031-.2149-.6329.0782c-2.4491.3046-6.9179.3242-7.4218.0312-.0625-.0391-.2422-.0234-.3945.0352m23.1836.0429c.4374.2422 1.1445.3828 2.3047.4492l.8437.0508-.8437-.125c-.7813-.1132-1.4337-.25-2.3243-.4883l-.3515-.0937.3711.207m45.9921-.0937c-.0508.0468-.2968.1367-.5547.1953-.4179.1016-.4257.1133-.0937.125.207.0078.5859-.0781.8477-.1914.3554-.1524.3984-.207.1796-.211-.1601-.0038-.332.0352-.3789.0821m21.0899.1172c.7382.3203 1.4179.5 1.8437.4843.3516-.0156.3321-.0312-.1523-.1289-.3086-.0625-.8477-.2109-1.1953-.3359-.7656-.2656-1.086-.2812-.4961-.0195m-23.0234.3593l-.4922.1016.4922.0195c.2734.0078.5898-.0468.7031-.1211.2578-.1679.082-.1679-.7031 0m32.707.0977c.1367.0352.3554.0352.4922 0s.0234-.0664-.2461-.0664-.3829.0313-.2461.0664m-72.8711.1445c.4101.0313 1.043.0313 1.4062 0s.0313-.0507-.7422-.0507-1.0742.0234-.664.0507m34.6992.3399c-.0156.2773-.0664.7226-.1172.9844-.0664.3632-.0469.4374.0782.3203.1054-.0977.1484-.4649.1171-.9883-.0273-.4649-.0625-.6055-.0781-.3164m.6484-.2774c.3282.1328 3.7188.1367 3.9219.0078.0899-.0546-.8086-.1015-2-.1015l-1.9219.0937m30.2305-.0351c.0508.082.3828.1523.7422.1523.8008 0 .7461-.0742-.1524-.2031-.4765-.0703-.6562-.0547-.5898.0508m5.9883.0117c-.4805.1016-.4805.1016.1679.1211.3634.0117.7032-.043.7501-.1211.0937-.1563-.1758-.1563-.918 0m-3.3086.2813c.1133.1796 1.0625.1796 1.3399 0 .1484-.0977-.0274-.1368-.6094-.1407-.5078 0-.7852.0508-.7305.1407M64.3352 79.375c-.0079.3007 1.2695 2.582 1.4492 2.582.0625 0-.0118-.1758-.1641-.3906s-.5039-.836-.7812-1.375-.5-.9063-.5039-.8164m25.3594.9179c-.0079.1289-.0509.3516-.0977.4922-.0743.2461-.0703.2461.082.0078.0859-.1406.1328-.3593.0976-.4922-.0586-.2187-.0663-.2187-.0819-.0078m-.6446 1.6758c-.5312 1.1211-1.9766 2.6602-3.375 3.5977l-1.0273.7578c.1132 0 .6875-.3008.8047-.4258.039-.0391.3242-.2344.6367-.4375 1.4375-.9336 3.8125-3.8906 3.4297-4.2734-.0352-.0352-.2462.3164-.4688.7812m-23.164.1758c-.0079.1719.9921 1.3633 1.1406 1.3633.0703 0-.0664-.2149-.3047-.4766l-.6328-.7383c-.1094-.1445-.2031-.2109-.2031-.1484m1.746 2.0391l.5938.5898c.1445 0-.2032-.418-.6328-.7656l-.5156-.4141.5546.5899m.7813.6796c0 .1133.7422.7579.8711.7579.0547 0 .1796.0781.2812.1796.2695.2618 1.2695.8282 1.336.7579.0351-.0313-.2227-.2266-.5664-.4258s-.918-.5899-1.2735-.8633-.6484-.4531-.6484-.4063m3.3828 2.0899c0 .1289 1.1797.6367 1.4688.6328.1601-.0039.0039-.1055-.3438-.2265s-.6953-.2735-.7656-.3438c-.1446-.1367-.3594-.1719-.3594-.0625m11.207.039c-.0586.0548-.4336.211-.832.3399-.5508.1836-.6367.2422-.3516.25.2071.0039.418-.0547.4649-.1328s.1992-.1406.3359-.1406c.2656 0 .8945-.4102.6406-.418-.0859 0-.1992.043-.2578.1015m-9.3046.7422c.0468.0743.2812.1368.5234.1368.5312 0 .4765-.0704-.1446-.1875-.2929-.0547-.4336-.0352-.3788.0507m7.1093-.0039l-.3515.1133.3788.0156c.2071.0079.418-.0507.4649-.1289.0976-.1601.0078-.1601-.4922 0m-5.7109.2735c.0507.082.3203.1523.6015.1523.6211 0 .5664-.0742-.1523-.2031-.3672-.0664-.5117-.0508-.4492.0508m4.1601.0078l-.4922.1055.5899.0195c.3242.0078.6289-.0469.6797-.125.0937-.1524-.0391-.1524-.7774 0" fill="#4a6498"/><path d="M45.1828 24.75c-1.5703.7891-1.3594 3.8711.2617 3.832.1367-.0039.0586-.0976-.1914-.2344-2.2187-1.1992-.6601-4.4648 1.668-3.4921.2851.1211.5117.3125.5117.4375 0 .2343.0117.2343-1.2422-.0274-1.0391-.2187-1.8047 1.5664-.9805 2.2774l.3086.2695-.2421-.3828c-.7344-1.168.0625-2.2735 1.332-1.8516 1.0234.3399 1.332-.457.3359-.8711-.6484-.2695-1.164-.2578-1.7617.043m4.7617.0625c-.25.3906-.7461 1.4531-1.0586 2.2656-.125.3242-.2813.6524-.3476.7266-.2071.2304-.1328.625.1445.7734s.5859-.0859.7656-.5898c.168-.4766 1.668-.3438 1.9727.1757.1406.2305.3281.4219.418.418.1093 0 .1171-.039.0273-.1055-.082-.0546-.2578-.2773-.3984-.496-.3438-.543-1.879-.5313-2.1485.0195-.2617.5195-.414.6211-.6015.3945-.1758-.2109-.1876-.1797.9999-2.8008.5587-1.2343.8399-1.2187 1.4336.0821.1368.2968.2813.5078.3204.4648s-.1094-.4062-.3282-.8203c-.4609-.8555-.8711-1.0273-1.1992-.5078m3.7187-.2188c-.0976.0391-.1757.1368-.1757.2188s.0938.0703.2226-.0391c.3594-.2968.4766.0782.4805 1.5664 0 1.6016.0586 1.6836 1.1719 1.6836.7656 0 .8281.0235.7578.2813-.039.1562-.0157.2812.0547.2812.1875 0 .1602-.5273-.0313-.6445-.0898-.0547-.5156-.1406-.9531-.1875l-.789-.082-.0391-1.4024c-.0469-1.5742-.1758-1.8867-.6993-1.6758m3.7032.2227c-.6016.8594-.1758 4.125.4961 3.7656.375-.2031.4219-3.8515.0508-3.9961-.3086-.1172-.3008-.1211-.5469.2305m7.9102-.0313c-.1328.1563-.2422.3633-.2422.4649s-.0743.2578-.168.3476-.125.2071-.0781.254.2265-.2071.3984-.5665c.4844-1.0351.8711-.6523 1.9961 1.9766.4805 1.1211.2031 1.7188-.3516.7539-.3242-.5703-1.8984-.5898-2.1484-.0273-.0742.1718-.1875.3164-.2461.3164s-.1055.0664-.1055.1484c0 .2422.2891-.0078.4258-.375.2148-.5586 1.7227-.5039 1.961.0703.2109.5078.6601.6563.8554.2891.1485-.2774-.0156-.7578-.9765-2.8281-.5274-1.1407-.8672-1.3516-1.3203-.8243m19.6249.0821c-.2382.1992-.4336.4258-.4336.5039s.1954-.0547.4336-.293c.4727-.4726.7735-.5273 1.4923-.2656.2929.1055.4687.2617.4687.4219 0 .2968-.1641.3164-.8125.0781-.4258-.1523-.5039-.1406-.6719.0898-.2773.3789-.0508.7032.6523.9336 1.4219.4688 1.4962 1.7032.129 2.1602-.3477.1172-.5352.2187-.4102.2226 1.7266.0664 2.0703-1.8632.4453-2.4726-1.1406-.4258-1.0469-1.0156.1133-.707.9726.2578 1.0781-.5469.1133-.8829-.6836-.2382-1.0469-.1875-1.5196.211m14.8126-.1563c-.4961.2149-.625.6836-.2344.8321.3437.1328.4375.0937.164-.0664-.3555-.2071-.3086-.3594.1953-.6133.9258-.461 1.0117-.2774.9415 2.0781-.0274.8906 0 1.5898.0585 1.5547s.1055-.875.1055-1.8633c0-2.207-.125-2.4023-1.2304-1.9219m2.9609.0156c-.5313.2657-.7422.9727-.4766 1.5625.1329.2891.1211.4258-.0508.6915-.4375.664.0196 1.625.7539 1.5976.1446-.0078.1016-.0703-.1249-.1758-.7266-.3359-.8907-.9023-.4376-1.4922.2344-.3086.2383-.371.043-.7109-.3125-.5469-.1328-1.0703.4649-1.3555 1.1093-.5234 2.164.4688 1.6093 1.5118-.1171.2148-.1054.3398.0469.5156.5898.6914.3203 1.3164-.707 1.6289-.7539.2344-.5235.3047.2695.082.8985-.25 1.2031-1.1445.5899-1.7539-.168-.1719-.1876-.2734-.0665-.3906.8906-.8945-.7109-2.3242-1.914-1.711m4.1836-.1328c-.7266.2891-1.1367 1.3907-.6875 1.8399.1172.1172.0781.2422-.1407.4765-.5508.5938-.2187 1.4258.668 1.6719.793.2227 1.0196.1524.2656-.082-1.0234-.3125-1.2968-.9375-.707-1.6289.1524-.1758.1641-.3008.0508-.5156-.5547-1.0352.5-2.0391 1.5899-1.5196.5781.2735.7773.9336.4374 1.4492-.1992.3047-.1953.3555.0704.6407.4883.5234.3163 1.1367-.418 1.4765-.2266.1055-.2735.168-.125.1758.7383.0274 1.1875-.9336.7461-1.6055-.168-.2578-.1836-.4062-.0703-.621.5234-.9805-.6172-2.1758-1.6797-1.7579M57.964 26.543c.0391 1.7617-.1015 2.3672-.4218 1.8593-.129-.2031-.1485-3.2187-.0235-3.5429.2461-.6407.4063-.0235.4453 1.6836m1.6836-1.7032c-.3476.2618-.3671 3.3242-.0234 3.6641.7812.7812 3-.0547 3.4102-1.2852.2539-.7617-.4219-2.2929-1.0079-2.2929-.0781 0 .0586.1797.3086.3984 1.3829 1.2383.2813 3.2617-1.7773 3.2617-.9297 0-1.0157-.1562-1.0157-1.8789 0-1.832-.0351-1.7812 1.2462-1.7969.7578-.0078.9726-.0468.7265-.125-.5625-.1796-1.5976-.1484-1.8672.0547m9.4024-.0547c-.1914.0782.0898.1211.8437.1211s1.0313-.0429.8438-.1211c-.1524-.0664-.5352-.121-.8438-.121s-.6914.0546-.8437.121m6.793.0079c-.211.125-.2462.375-.2462 1.8164 0 2.0039.0704 2.1289 1.1719 2.0937l.7305-.0273-.7031-.0547c-1.0391-.0781-1.0586-.1172-1.0586-2.0235v-1.6718l1.0898-.0117c.7422-.0079 1.0039-.0469.8125-.129-.3945-.1718-1.5-.164-1.7968.0079m4.7851.0195c-.2109.1523-.0313.1836 1.125.1836 1.3008 0 1.375.0156 1.332.2812-.039.2305-.0156.2461.1368.1016.5664-.5508-1.8829-1.0859-2.5938-.5664m8.1016-.0234c-.4141.164-.4961 3.3164-.0977 3.7148.586.5859 2.3945.1289 2.9805-.75.6016-.8984.1171-2.832-.7109-2.8281-.0938 0 0 .1406.207.3164 1.5 1.2656.5273 3.3437-1.5586 3.3437-.9492 0-.9961-.0937-.9961-2v-1.6601l1.0898-.0117c.7422-.0079 1-.0469.8086-.129-.3671-.1601-1.3242-.1562-1.7226.004m4.7109.0234c-.207.1523-.0273.1836 1.1289.1836 1.2969 0 1.375.0156 1.3281.2812-.039.2305-.0117.2461.1368.1016.5664-.5508-1.879-1.0859-2.5938-.5664m16.586-.0274c-.1836.0782.1953.1211 1.0937.129 1.5391.0117 1.582.0507 1.082.9375-.375.6718-.2578.7851.1328.1289.336-.5743.375-.9219.129-1.168-.1954-.1953-2.0001-.2149-2.4375-.0274m-38.6328.4571c1.5039 1.2695.5273 3.3437-1.5704 3.3437-.9063 0-.9687-.1211-1.0234-1.9804l-.043-1.6094-.0312 1.6445c-.0352 1.9492.039 2.086 1.1132 2.086 2.0118 0 3.1133-1.8594 1.9454-3.2774-.2383-.289-.5078-.5234-.5977-.5234s0 .1406.2071.3164m6.8515-.0781c1.0273.7148.8984 2.539-.2188 3.1289-.2929.1562-.4257.2851-.3008.2851.6524.0196 1.3907-1.043 1.3907-1.9961 0-.625-.6485-1.6679-1.0313-1.6484-.0898.0039-.0195.1094.1602.2305m24.6992.2109c-.3984.3984-.0976 1.0976.4727 1.0976.3046 0 .7656-.3945.7656-.6562 0-.457-.9023-.7774-1.2383-.4414m3.8672.0898c-.3008.3321-.293.4883.0351.7852.5743.5195 1.3438.0078 1.0274-.6797-.1953-.4375-.7187-.4883-1.0625-.1055m-2.9961.1953c.1172.1875.0977.2969-.082.4766-.4219.4219-1.0508-.1289-.6719-.5859.2227-.2657.5469-.2149.7539.1093m3.9375-.0078c.1797.2891-.0976.6797-.4804.6797-.3204 0-.4922-.5078-.2618-.7851.2149-.2578.543-.211.7422.1054m-47.4765 1.0664l.039 1.2344.5742.0391c.5664.0429 1.3281-.4492 1.3281-.8516 0-.0781-.1328.0235-.2929.2305-.2383.3008-.4063.3711-.9258.3711h-.6328l.0469-1.1289c.0234-.6172-.0039-1.125-.0664-1.125s-.0938.5547-.0703 1.2304m1.0976-1.1367c.1172.043.3516.2422.5274.4492s.3163.293.3163.1954c0-.2657-.5273-.7422-.8085-.7266-.1953.0078-.2032.0273-.0352.082m8.1679.9492c0 1.5704.4063 1.9219 1.4024 1.211.8008-.5703.5156-2.2813-.3711-2.2422-.1992.0078-.207.0273-.0469.0859 1.1563.4258.8946 2.2461-.3046 2.1289l-.4688-.0429v-1.0938c0-.5976-.0469-1.0898-.1055-1.0898s-.1055.4687-.1055 1.0429m6.9298.1875c.0429 1.3789.1992 1.5352 1.1289 1.1485.9648-.3985.8828-2.4063-.1016-2.3672-.2031.0078-.2227.0312-.0703.0859 1.1757.4336.9023 2.1563-.3399 2.1563h-.5273l.0469-1.1289c.0234-.6172-.0078-1.125-.0664-1.125s-.0938.5547-.0703 1.2304m4.6718-1.0312c-.1758.4531.1992.7695.9649.8125.6523.0391.7343.0781.6914.3242-.0352.2305-.0117.25.1406.1016.3438-.3321-.0429-.6563-.8789-.7344-.6797-.0625-.7617-.1055-.75-.3867.0117-.3633-.0547-.4102-.168-.1172m8.1133.8437c0 1.5704.4102 1.9219 1.4024 1.211.8007-.5703.5156-2.2813-.3711-2.2422-.1993.0078-.2071.0273-.0469.0859 1.1562.4258.8945 2.2461-.3047 2.1289l-.4688-.0429v-1.0938c0-.5976-.0468-1.0898-.1054-1.0898s-.1055.4687-.1055 1.0429m4.7031-.8437c-.1757.4531.1993.7695.9649.8125.6015.0351.7344.0898.7187.2891-.0117.1367.0391.2461.1055.2461.1836 0 .1524-.4766-.043-.6758-.0937-.0899-.4765-.168-.8476-.168-.7109 0-1.0703-.3125-.6602-.5742.1484-.0938.1524-.125.0196-.1289-.1016 0-.2188.0898-.2579.1992m17.3711-.1055c.0977.0391.1407.1289.0977.1992s-.0117.1289.0703.1289.1485-.0937.1485-.2109-.1095-.207-.2462-.1992c-.1484.0039-.1758.0391-.0703.082m-45.793.3125c-.4765.5274-.3632 1.0664.2344 1.1172.5274.043.7852-.3633.3906-.6094-.0781-.0468-.1445-.207-.1445-.3515 0-.3868-.207-.4532-.4805-.1563m18.7891-.1484c0 .4609.4805.9609 1.1758 1.2305.8398.3242.9649.6718.2657.7382-.5118.0508-.4883.3086.0273.3086.9335 0 .7734-.8125-.2344-1.1992-.5703-.2187-.7969-.3984-.9883-.7773-.1328-.2696-.2461-.4024-.2461-.3008m-34.2148.2969c-.3242.6054-.1875.9922.3476.9922.543 0 .5782-.0899.3243-.7969-.1914-.5274-.4532-.6016-.6719-.1953m.5547.5351c.0039.2266-.0781.3164-.2774.3164-.3164 0-.3632-.2851-.125-.7304.1836-.3438.3985-.1211.4024.414m15.2929.1328c-.0859.2227-.4492.2461-.5781.0391-.0508-.082.0195-.3164.1562-.5234l.2423-.3711.125.3359c.0703.1836.0937.418.0546.5195m-1.6171.0821l-.4649 1.0429c-.164.3438-.0664.75.1836.75.1211 0 .1211-.0508.0039-.1914-.1601-.1953-.0664-.5234.5078-1.75.1211-.2539.1875-.4922.1524-.5273s-.207.2695-.3828.6758m46.3398.2617c-.6094 1.0117-.6836 1.3828-.3047 1.5078.1836.0586.1836.0352.0234-.1641s-.1484-.3047.125-.7617c.6407-1.0742.8516-1.4805.8008-1.5273-.0273-.0313-.3164.3984-.6445.9453m-59.1562-.6133c-.004.0977.0468.2852.1132.4219l.3047.6328c.1016.2109.2071.3633.2344.332s-.1055-.3906-.293-.8086-.3516-.6758-.3593-.5781m59.996.668c-.164.2773-.2969.5429-.2969.582s-.1327.2773-.2929.5195l-.293.4453.3633-.4218c.1992-.2344.3633-.4766.3633-.543s.1328-.3047.2969-.5352.2656-.4492.2265-.4843-.2031.1601-.3672.4375m-30.3906.1562c-.1758.457.1563.6836 1.0977.7578 1.4335.1094 1.25.4688-.2969.5703l-1.1953.0821 1.0781.0234c2 .0508 2.3047-.8828.3242-.9844-.7695-.039-.8398-.0703-.8281-.3593.0117-.375-.0547-.4102-.1797-.0899m12.8164 0c-.1758.457.1563.6836 1.0977.7578 1.4336.1094 1.25.4688-.2969.5703l-1.1992.0821 1.082.0234c1.2266.0313 1.5235-.043 1.5235-.3828 0-.418-.3165-.5742-1.1563-.5742s-1.25-.293-.8008-.5781c.1484-.0899.1524-.125.0196-.125-.1016 0-.2227.1015-.2696.2265m8.8945-.0781c-.2343.375.0704.8359.5508.8359.75 0 1.1368-.8515.4375-.9531-.2578-.0391-.2617-.0312-.0351.1094.5312.3281-.0469.8906-.668.6523-.293-.1133-.2656-.6172.0352-.6992.2226-.0586.2226-.0664.0078-.0781-.1329-.0117-.2813.0508-.3282.1328m3.7774.0781c-.1406.375.1602.6836.707.7305.4414.039.5196-.0039.5977-.3086.1055-.4258-.0156-.6563-.336-.6328-.2031.0117-.2031.0234.0196.082.3945.1016.25.668-.1875.7109-.5508.0586-.8125-.1757-.5938-.5234.1094-.1797.1211-.289.0274-.289-.0782 0-.1836.1054-.2344.2304m-59.8359.3594c-.0664.1055-.0274.1367.1093.082.2774-.1054.6016.0977.4766.3008s-1 .5742-1.3984.5938c-.2617.0156-.2657.0273-.0391.0859.3438.0859 1.4531-.3399 1.5508-.6016.1875-.4843-.4336-.8945-.6992-.4609m37.6367-.0703c-.3282.3281.3164 1.0469.9218 1.0234.0977-.0039-.039-.1133-.3125-.2461-.5625-.2773-.6718-.6797-.1679-.625.1875.0196.289-.0273.2383-.1054-.0977-.1602-.5352-.1915-.6797-.0469m-38.75.3281c.0468.0781.2382.1406.4219.1406s.375-.0625.4218-.1406c.0547-.0859-.1172-.1406-.4218-.1406s-.4727.0547-.4219.1406m8.6953.8047c.2929.0312.7656.0312 1.0586 0s.0508-.0547-.5313-.0547-.8164.0234-.5273.0547m28.1992 5.1211c-1.5977.2734-3.957.9375-3.8203 1.0703.0625.0625.7031-.1094 1.4297-.3828.3086-.1172 1.3242-.3203 2.7617-.5508 2.5352-.4062 6.2383-.0195 7.4258.7773s1.4297 1.7383 1.4297 5.4805c0 2.8633.039 3.043.6093 2.7813 1.0821-.5 4.6758-.6836 6.3243-.3242 4.7265 1.0312 8.0507 3.8124 9.6835 8.1054.1915.5078.3321.4453.8633-.3867 2.004-3.1289 5.0742-5.6016 8.6094-6.9336.3711-.1406.6407-.2852.6055-.3242-.2149-.211-3.2422 1.3047-4.7578 2.3828-1.5742 1.1211-4.3321 3.9492-4.336 4.4453 0 .168-.6679.9687-.7422.8867-.0312-.039-.3008-.5781-.5937-1.1953-1.4492-3.0781-4.0508-5.4805-7.0586-6.5195-2.8203-.9766-6.7148-1.082-8.8203-.2383-.2305.0899-.2461-.0977-.2461-2.8164 0-4.7109-.4844-5.5586-3.5195-6.1914-1.1563-.2383-4.6094-.2813-5.8477-.0664m-5.3906 1.7851c-1.1055.6407-2.7774 1.9805-2.6406 2.1133.0351.0391.4453-.2773.9101-.6992s1.0235-.8555 1.2383-.9648.4258-.2383.4609-.2813.375-.2187.7422-.3906c.6211-.2891.8203-.4492.5586-.4492-.0625 0-.6328.3007-1.2695.6718m67.2852.0391c-.2383.082-.1251.0938.3515.0391.3867-.043.7305-.1055.7617-.1328.1133-.0977-.7617-.0235-1.1132.0937m4.0937-.0937c.0351.0273.3125.0898.625.1367.3906.0586.4766.0468.2813-.043-.2735-.1211-1.0274-.2031-.9063-.0937m1.2695.2812c.0313.0273.2461.0898.4805.1445.3086.0664.3672.0547.2109-.0508-.1914-.1289-.832-.2187-.6914-.0937m.8985 15.1562l.039 7.4297V43.5469c-.0195-4.0821-.039-.7422-.039 7.4296M82.7101 36.6211c-.1992.0859-.1132.1015.2813.039.3086-.0468.5899-.1093.6211-.1367.1211-.1054-.6329-.0273-.9024.0977m4.8555-.0078c.4805.1523.8516.1523.4922 0-.1524-.0664-.4063-.1211-.5625-.1172-.2266.0039-.2109.0273.0703.1172m-76.4024.8086l7.8087.039.1093 1.4766-.0117-.7774-.0156-.7734h-7.8477l-7.8515-.0039 7.8085.0391m-8.0155 1.1054c-.1095.9922-.0626 1.1055.4882 1.2344.3047.0664.2969.0586-.0469-.0859-.3984-.168-.3984-.1719-.3007-1.1211.0507-.5274.0624-.9571.0273-.9571s-.1133.418-.1679.9297m86 4.3868c-.0313 5.039.0156 5.7421.332 5.2265.0624-.1015.0391-.125-.0586-.0664-.1211.0742-.1719-1.2773-.1992-5.2227l-.0391-5.3242-.0351 5.3868m-15.1251-4.5782c-.9648 1.3516-.3476 3.2422 1.4297 4.3907.7852.5078 1.0039.7304 1.1446 1.164.1679.5274.3359 5.0586.2422 6.6641l-.0469.7734-.4141-.8437c-2.1562-4.3711-5.793-7.0079-10.9922-7.9727-1.2734-.2344-6.4453-.2305-7.6054.0078-5.8438 1.2031-9.0508 3.1914-10.7344 6.6602-.5586 1.1523-.7422 1.332-.7422.7265 0-1.6445-2.2187-4.3164-4.5742-5.5078-1.3243-.668-2.4375-1.1015-2.5508-.9883-.0391.043.1679.1524.4609.25 3.7149 1.211 6.0547 3.5743 6.586 6.6524.1211.6875.2265.6016.7148-.5625 1.2734-3.0391 4.3008-5.4024 8.3086-6.4922 1.1094-.3008 1.2774-.3398 2.0391-.4649 2.8437-.4726 8.793-.3632 9.3594.1719.0742.0703.2617.1289.4218.1289 2.2031.0157 8.5273 4.6914 8.5273 6.3047 0 .0821.0469.168.1055.1953s.3125.4883.5625 1.0313c.7305 1.5859.7578 1.4805.711-2.625-.0469-4.3281-.1446-4.7344-1.2774-5.3164-1.789-.9219-2.414-2.5391-1.5976-4.1445.3906-.7735.3671-.8282-.0782-.2032m2.4571 1.2266c-.125.2031-.1172.3164.0469.5195.203.25.207.25.0703-.0312-.0977-.2071-.0938-.3438.0195-.4571.0859-.0859.1289-.1914.0937-.2265s-.1406.0508-.2304.1953m61.9258-.2227c0 .0352.2226.1953.5.3594s.4609.2305.414.1524c-.0937-.1524-.914-.6094-.914-.5118m-16.2657 2.918l-1.6211.293c-.5039.0859-1.1367.2461-1.4062.3515-.543.211-.4727.2031.9844-.1015 1.8945-.3946 3.8086-.5743 5.2812-.4961l2.6055.1406 1.0546.0586-.914-.1328c-1.3633-.1914-5.1797-.2656-5.9844-.1133m18.7461.3398c.1133.5196.1953.629.1914.2696 0-.1485-.0664-.3633-.1445-.4805-.1055-.1562-.1172-.0976-.0469.2109M6.2375 54.7812l.0391 6.2305V48.5469c-.0235-3.4258-.0391-.6211-.0391 6.2343m9.8594-.1445l.0351 6.0937V48.5469c-.0195-3.3477-.0351-.6094-.0351 6.0898m14.082-11.793c-.461.0743-1.1289.2227-1.4766.3282s-.4453.1601-.2109.1211c1.6562-.2852 2.7266-.3789 5.125-.4336 1.8203-.0469 2.7774-.0157 2.8789.082.082.082.4375.1445.7891.1367l.6406-.0156-.8438-.1914c-.9843-.2227-5.5703-.2383-6.9023-.0274m7.957.3868c.1172.0781.3711.1328.5664.1289.3203-.0078.3282-.0157.0704-.1289-.418-.1797-.9141-.1797-.6368 0m103.0156 12.414l.086 11.5899c.1211-.5508.1211-22.8516.0039-23.2735-.0508-.1758-.0899 5.0782-.0899 11.6836M79.4289 44.3594c0 .1914.0469.5078.1094.7031.1523.4726.1523-.0391 0-.6328-.0938-.3789-.1055-.3868-.1094-.0703m-19.4648.6875c-.2696.0468.5155.0859 1.746.0859 1.2657 0 2-.043 1.6915-.0977-.6602-.1171-2.75-.1093-3.4375.0118m34.9257.0117c-.1992.0625.1094.0781.7032.039.582-.0429 1.082-.0976 1.1171-.125.1094-.0976-1.4726-.0234-1.8203.086m27.25.0039c-.1758.0742.0118.0898.4922.0391.4258-.043.8008-.1016.8321-.129.121-.1054-1.0547-.0273-1.3243.0899m4.0234-.0899c.0352.0313.4415.0899.9063.1329.5547.0507.6992.039.4219-.0352-.4375-.1172-1.4336-.1914-1.3282-.0977m-32.6835.3789c-.1524.1016-.0977.1172.2109.0469.5195-.1172.6328-.1953.2734-.1914-.1484 0-.3671.0664-.4843.1445m27.1094-.0078c-.3594.1563.0116.1563.4921 0 .2852-.0898.2969-.1132.0703-.1171-.1523 0-.4062.0507-.5624.1171m7.8164 0c.4804.1563.8515.1563.4921 0-.1523-.0664-.4062-.1171-.5625-.1171-.2265.0039-.2109.0273.0704.1171m-97.3438.2422c.25.0313.6641.0313.9141 0s.0468-.0547-.4571-.0547-.7109.0235-.457.0547m4.6485 0c.1718.0313.457.0313.6327 0s.0313-.0625-.3164-.0625-.4921.0274-.3163.0625m20.7343.0469c-.1562.1055-.0976.1172.2109.0469.5196-.1133.629-.1953.2696-.1914-.1485 0-.3633.0664-.4805.1445m62.0313.3516c-.5664.2578-.2266.2578.3711 0 .2617-.1133.3789-.2032.2656-.1992s-.4024.0898-.6367.1992M79.7492 59.0039l.0352 6.2305v-12.461c-.0196-3.4297-.0352-.625-.0352 6.2305m-10.4766-12.207c.0313.0273.2774.1914.5508.3632l.4922.3203-.4219-.3632c-.2344-.1992-.4804-.3633-.5507-.3633s-.1055.0195-.0704.043m20.8945.5547l-.5585.5976.5976-.5586c.5586-.5156.6641-.6367.5586-.6367-.0234 0-.2929.2695-.5977.5977m42.9141-.2461c.2852.1914.5703.3515.6289.3515s-.1211-.1601-.4062-.3515-.5664-.3516-.6289-.3516.125.1562.4062.3516m-80.9687.3632c-.8164.5821-.7578.6719.0703.1133s.8164-.5508.6601-.5429c-.0703.0039-.3984.1992-.7304.4296m51.4375.5508c.3008.3086.582.5625.6211.5625s-.1758-.2539-.4805-.5625-.582-.5625-.6211-.5625.1797.2539.4805.5625m-31.9688.5625c.4609.4649.8711.8477.9102.8477s-.3086-.3828-.7656-.8477-.8711-.8437-.9102-.8437.3086.3789.7656.8437m43.082-.3398l-.5507.5.5977-.4531c.5468-.418.6796-.5508.5507-.5508-.0234 0-.2929.2265-.5977.5039m-72.164.1953c.1641.2305.3711.4648.4571.5156s-.0157-.1328-.2344-.418c-.4688-.6171-.6485-.6953-.2227-.0976m8.2344.1797l-.5547.5976.5976-.5547c.5547-.5195.6641-.6406.5547-.6406-.0195 0-.289.2696-.5976.5977m84.5039.1054c.3789.3868.7227.7071.7617.7071s-.2422-.3203-.6211-.7071-.7265-.7031-.7656-.7031.2422.3164.625.7031m-102.4844-.3203c.2539.0313.6328.0313.8438 0s.0078-.0586-.4571-.0586-.6406.0274-.3867.0586m1.6523.1797c.1563.0664.379.1211.4922.1211.1328 0 .1094-.043-.0703-.1211-.1562-.0664-.375-.1211-.4922-.1211-.1328 0-.1054.0469.0703.1211m1.4063.4453c.1562.086.4453.2891.6406.4532s.1524.0937-.1015-.1602-.543-.4531-.6406-.4531-.0508.0742.1015.1601m89.707.1172c-.1758.0782-.2031.1211-.0703.1211.1172 0 .336-.0547.4922-.1211.1797-.0742.2031-.1211.0703-.1211-.1172 0-.3359.0547-.4922.1211m-32.832.25c-.0898.0586.1094.1055.4414.1055s.5351-.0469.4453-.1055-.289-.1015-.4453-.1015-.3555.0429-.4414.1015m-33.875.5625c-.4101.4375-.7344 1.0117-.6328 1.1133.039.0391.1132-.0664.168-.2344s.2851-.5195.5195-.7851c.5039-.5742.4609-.6485-.0547-.0938m5.168.3164c.3789.3867.7226.7031.7617.7031s-.2422-.3164-.6211-.7031-.7266-.7031-.7656-.7031.2422.3164.625.7031m27.4531-.1054l-.5586.5976.6328-.5625.6914-.5976c.0352-.0196 0-.0352-.0742-.0352s-.3867.2695-.6914.5977m32.3945-.2344l-.4218.3633.4921-.3203c.6329-.4063.6368-.4063.4844-.4063-.0742 0-.3203.1641-.5547.3633m12.4493.1289c.2382.457.4335.7148.4335.5625 0-.0781-.1328-.3008-.289-.4922-.1914-.2344-.2422-.2578-.1445-.0703m-99.3087.4922c.043.3476.1055.6601.1328.6914.1055.1211.0274-.7734-.0937-1.043-.082-.1875-.0976-.0703-.0391.3516m6.543-.2813c.0078.3633.2305.9649.2344.6328.0039-.1562-.0508-.4062-.1172-.5625-.0742-.1718-.1172-.1992-.1172-.0703M29.3 50.7656c.0039.3086.0312.4219.0664.2461s.0313-.4297-.0039-.5625-.0625.0078-.0625.3164m82.6093.3164c-.4062.4883-.5781.7383-.5078.7383.0391 0 .2422-.2188.4492-.4922.3829-.5039.4297-.6914.0586-.2461m-82.4999.3946c-.004.1523.9765 1.1289 1.4765 1.4687.1524.1055-.0508-.1055-.457-.4727s-.8008-.7773-.875-.9062-.1406-.1719-.1445-.0898m28.6054.2734c-.0156.2344-.0585.582-.0976.7773l-.0743.3516.1524-.3477c.0859-.1914.1289-.539.0977-.7734l-.0548-.4297-.0234.4219m-8.9922.6367c0 .4258.0274.5977.0586.3867s.0313-.5625 0-.7773-.0586-.0352-.0586.3906m88.3047 1.4063c0 .6601.0235.9296.0547.5976s.0274-.8672 0-1.1953-.0547-.0586-.0547.5977m-100.1718-.9415c-.0118.2383.4101.8868.7929 1.2227l.3985.3516-.3672-.4219c-.2071-.2305-.4727-.6133-.5938-.8438s-.2266-.371-.2304-.3086m69.1601.2383c0 .1172.0547.336.1211.4922.0781.1797.1211.2031.1211.0703 0-.1172-.0547-.3359-.1211-.4922-.0742-.1796-.1211-.2031-.1211-.0703m-48.5937.168c-.0118.2461-.836 1.1602-1.3477 1.4922-.1562.1016-.0664.0703.1953-.0703.5781-.3047 1.3438-1.2149 1.2383-1.4727-.0508-.1289-.0781-.1133-.0859.0508m-14.7969.4297c-.207.2851-.2422.3828-.0898.2578.2304-.1875.582-.7148.4726-.7148-.0273 0-.1992.207-.3828.457m-10.2812.375c.1953.1602.4179.2891.496.2891.1485 0-.1054-.1954-.5664-.4297-.1875-.0977-.164-.0508.0704.1406m73.9687.2929c0 .2735.0273.3829.0625.2462s.0351-.3555 0-.4922-.0625-.0235-.0625.246m-31.8398 0c0 .1172.0546.3399.121.4923.0743.1796.1211.207.1211.0703 0-.1133-.0547-.336-.1211-.4922-.0781-.1758-.121-.2031-.121-.0704m-41.422.0626c0 .039.1876.1718.422.289s.4218.1875.4218.1485-.1914-.168-.4218-.2891-.422-.1836-.422-.1484m18.586.9257c.1953.0625.4805.1133.6367.1133.2227 0 .2071-.0234-.0703-.1133-.1953-.0625-.4805-.1132-.6367-.1132-.2227 0-.207.0234.0703.1132m44.957.2813c0 .2695.0274.3828.0665.2461s.0351-.3594 0-.4922-.0665-.0274-.0665.2461m-43.7929-.043c.1367.0352.3554.0352.4922 0s.0234-.0664-.2461-.0664-.3829.0313-.2461.0664m36.1055.6406c-.1134.9493-.086 11.8711.0312 12.418.0507.2266.0898-2.6406.0898-6.3711l-.0156-6.7851c-.0078 0-.0547.332-.1054.7382m17.6953-.1054c0 .3867.0273.5273.0586.3164s.0312-.5313 0-.707-.0626.0039-.0586.3906m2.582-.1367c-.0508.1289-.082.3359-.0782.4648s.0704.0469.1367-.1797c.1329-.4453.086-.664-.0585-.2851m10.6992.1406c-.0469.1289-.082.3359-.0742.4648s.0703.0469.1367-.1797c.1328-.4453.0859-.664-.0625-.2851m-98.0977.4883c.1641.2343.3321.4218.3711.4218s-.0664-.1875-.2304-.4218-.336-.4219-.3711-.4219.0625.1914.2304.4219m14.3633-.3594c0 .039.1875.168.4219.2891s.4219.1875.4219.1484-.1915-.168-.4219-.2891-.4219-.1875-.4219-.1484m60.6641 2.543l.0859 3.0273c.0235.1953.043-.8203.0469-2.2539s-.0352-2.793-.086-3.0273-.0703.7812-.0468 2.2539m12.0898-1.5899c-.0469.1758-.082.4492-.0742.6055s.0703.0312.1406-.2696c.1367-.5859.0781-.8789-.0664-.3359m27.1602.1524c-.1445.2461-.6172.832-1.043 1.2968-.75.8125-.7539.8203-.1015.211.6757-.6329 1.5742-1.8008 1.4687-1.9063-.0313-.0312-.1758.1485-.3242.3985m-74.3906-.2188c.6015.0274 1.582.0274 2.1835 0s.1094-.0469-1.0937-.0469-1.6914.0196-1.0898.0469m65.9414.2617l-.4219.3594.457-.3008c.25-.1679.4571-.332.4571-.3633 0-.1054-.0586-.0703-.4922.3047m-68.4766-.1289c.1367.0352.3594.0352.4922 0s.0273-.0625-.2461-.0625-.3828.0274-.2461.0625m60.4727.418c-.0899.5586-.0274.7578.2304.7422.1211-.0078.1211-.0313-.0078-.0821-.1211-.0507-.1484-.2422-.0859-.621.0468-.3047.0547-.5547.0156-.5547s-.1055.2343-.1523.5156m-61.668-.2734c.1719.0312.457.0312.6328 0s.0313-.0625-.3164-.0625-.4922.0273-.3164.0625m-1.5156.1796c-.2774.0899-.293.1133-.0704.1133.1563 0 .4415-.0508.6329-.1133.2812-.0859.2929-.1093.0703-.1093-.1524 0-.4375.0507-.6328.1093m-16.8985.7618c0 .039.2852.2695.6328.5078s.6329.4023.6329.3672-.2852-.2696-.6329-.5079-.6328-.4062-.6328-.3671m13.3789.1562c-.4609.2617-.3008.2656.3008.0039.2578-.1133.3789-.207.2617-.207s-.3711.0898-.5625.2031m68.7578.1758c.5235.0234 1.379.0234 1.8985 0s.0976-.0508-.9492-.0508-1.4727.0234-.9493.0508M75.382 69.2148l.0391 5.3242V63.9766c-.0234-2.9297-.0391-.5704-.0391 5.2382m33.6406-9.1562c0 .7773.0235 1.0742.0547.664s.0274-1.0429-.0039-1.4062-.0508-.0313-.0508.7422m-84.4062-.9922c0 .0977 1.2812.957 1.3398.9023.0274-.0273-.2656-.2578-.6445-.5078s-.6953-.4297-.6953-.3945m16.6211.2695c0 .0391.1875.2071.4219.3711s.4218.2696.4218.2305-.1914-.2031-.4218-.3711-.4219-.2695-.4219-.2305m22.6367.6133c.25.0312.6641.0312.9141 0s.0468-.0547-.4571-.0547-.7109.0235-.457.0547m-21.6406.2148c.0312.0196.2812.2266.5507.461l.4922.4219-.414-.4571c-.2266-.2539-.4727-.4609-.5508-.4609s-.1094.0156-.0781.0351m-15.6445.1719c0 .0391.1914.168.4218.2891s.4258.1836.4258.1445-.1914-.1679-.4258-.289-.4218-.1836-.4218-.1446m80.3085.5c0 .3477.0274.4883.0626.3164s.0312-.4609 0-.6328-.0626-.0351-.0626.3164m-41.3984.4922c0 .3867.0273.5273.0586.3125s.0313-.5273 0-.7031-.0625.0039-.0586.3906m-21.9492.2813c.4922.7226.5898.8086.3164.2695-.1211-.2344-.3242-.5195-.4571-.6289s-.0663.0547.1407.3594m4.2266.4453c-.2188.2851-.3243.4726-.2344.4179.1797-.1093.789-.9335.6914-.9335-.0352 0-.2422.2343-.457.5156m9.2968.082l-.5586.5977.5977-.5547c.3281-.3047.5976-.5742.5976-.5977 0-.1094-.1211 0-.6367.5547m62.461-.1523c0 .0664.1874.1172.4218.1172s.4219-.0235.4219-.0547-.1914-.0821-.4219-.1172-.4218-.0078-.4218.0547m8.5195-.0235c-.1797.0781-.2031.1211-.0703.1211.1171 0 .3359-.0547.4922-.1211.1797-.0742.2031-.1211.0703-.1211-.1172 0-.3359.0547-.4922.1211m-6.7266.2422c.1758.0313.4609.0313.6367 0s.0313-.0625-.3163-.0625-.4922.0273-.3204.0625m5.2149 0c.1758.0313.4297.0313.5625-.0039s-.0078-.0625-.3203-.0625-.418.0312-.2422.0664m-61.1914.4609c0 .2735.0273.3829.0625.2461s.0351-.3554 0-.4921-.0625-.0235-.0625.246m57.3906-.3203c.25.0313.6328.0313.8437 0s.0039-.0586-.4609-.0586-.6367.0274-.3828.0586m2.1094 0c.2539.0313.6328.0313.8476 0s.0039-.0586-.4609-.0586-.6368.0274-.3867.0586m-99.1758.2539c.7305.2657.9844.2579.3711-.0078-.2617-.1132-.5781-.2031-.7032-.1992s.0235.0977.3321.207m4.7187-.0664c.3672.25.9844.5664.9844.5039 0-.0781-.9727-.6523-1.1015-.6484-.0509 0 0 .0664.1171.1445m13.6641-.1289c-.0039.0508.0859.3047.1992.5625s.207.3789.207.2656c0-.2031-.3984-1.0117-.4062-.8281m65.0781.1914c0 .1563.0508.4102.1172.5625.1563.3594.1563-.0078 0-.4922-.0898-.2812-.1133-.2968-.1172-.0703m-62.0508.4375c-.1328.1992-.2148.3867-.1835.418s.164-.1367.3007-.3672c.3008-.5117.2109-.5547-.1172-.0508m-19.7226.4805c.668.7774.6797.7891.5234.4922-.0781-.1563-.3242-.4414-.5429-.6328l-.4024-.3516.4219.4922m69.5312.1406c0 .2696.0274.3789.0665.2461s.0351-.3593 0-.4922-.0665-.0273-.0665.2461m12.5039.2227c0 .1484.0664.3633.1445.4804.1055.1524.1172.0977.0469-.2109-.1132-.5195-.1953-.6289-.1914-.2695m-64.746.6914c0 .3086.0312.4219.0625.2461s.0351-.4297 0-.5664-.0665.0117-.0625.3203m52.0078.293c-.0508.2031-.0665.4023-.0352.4335s.1054-.1093.1563-.3125.0663-.4023.0351-.4374-.1055.1093-.1562.3164m-61.9024.3867c0 .0234.2071.2266.457.457l.461.4141-.4141-.461c-.3867-.4257-.5039-.5195-.5039-.4101m11.461 1.5742c0 .9297.0234 1.2891.0507.8047s.0274-1.25 0-1.6914-.0507-.043-.0507.8867m74.1601-1.5625c0 .1328.836 1.3516.9297 1.3516.0391 0-.1328-.3008-.3828-.668-.5508-.8164-.5469-.8125-.5469-.6836m-100.6172.9297c-.0547.2422-.0703.4687-.0312.5078s.1054-.1406.1523-.3867c.1172-.586.0039-.6992-.1211-.1211m7.9961.3242c-.1718.2461-.4453.6211-.6094.836s-.2695.3867-.2343.3867c.1055 0 1.2695-1.5508 1.207-1.6133-.0312-.0313-.1953.1445-.3633.3906m16.8906.0977c0 .2695.0274.3828.0665.246s.0351-.3593 0-.4921-.0665-.0274-.0665.2461m60.5469-.0665c-.2383.5196-.1914.629.0625.1602.1172-.2226.1914-.4258.1563-.4609s-.129.1054-.2188.3007m5.3985.629c.1172.2304.25.4218.289.4218s-.0313-.1914-.1484-.4218-.25-.4219-.2891-.4219.0274.1875.1485.4219m11.5468.4218c.4571.4649.8672.8438.9063.8438s-.3047-.3789-.7657-.8438-.8671-.8437-.9062-.8437.3047.3789.7656.8437m14.1445.1758c.3477.3672.6485.668.6719.668.1055 0-.0078-.125-.6289-.707l-.668-.6289.625.6679m-116.5937-.1641c.0039.1875.0664.4376.1407.5508.0976.1485.1132.0664.0507-.2812-.1133-.6055-.1914-.7227-.1914-.2696m131.1328-.082c0 .1563.0508.4414.1133.6328.0898.2813.1133.293.1133.0704 0-.1524-.0508-.4375-.1133-.6329-.0898-.2773-.1133-.2929-.1133-.0703m-134.6211.3516c0 .2734.0274.3828.0625.2461s.0352-.3555 0-.4922-.0625-.0235-.0625.2461m91.0156.6055c-1.4218 2.9921-3.7812 5.6718-6.2968 7.1523-.5196.3047-.9766.5508-1.0235.5508s-.3515.125-.6796.2734c-.7852.3594-2.1211.7852-3.125.9922-.4414.0938-.7696.2031-.7305.2422.1406.1406 1.9336-.3281 3.4687-.9063 3.6094-1.3593 6.4414-4.1328 8.6914-8.5156.2227-.4336.5391-.3945.6602.086.2265.914 3.8203 5.4335 4.3164 5.4335.0547 0-.3633-.4687-.9258-1.0468s-1.2031-1.2891-1.4258-1.5821-.4414-.5703-.496-.6093-.3086-.4532-.5743-.9141c-1.3828-2.4375-1.2812-2.375-1.8594-1.1562m-101.25-.3829c-.0507.2071-.0663.4024-.0312.4336s.1016-.1054.1523-.3125.0665-.4023.0352-.4375-.1015.1094-.1563.3164m20.7344.1055c-.0351.1797-.0195.4492.0352.5977.0625.1797.0976.0742.1055-.3281.0117-.6602-.0469-.7696-.1407-.2696m106.8438.461l-.4219.3632.457-.3047c.25-.1679.457-.332.457-.3632 0-.1055-.0585-.0704-.4921.3047m-29.8906.6328c-.2539.3789-.4297.6914-.3946.6914.0977 0 .9571-1.2774.9024-1.336-.0274-.0273-.2578.2617-.5078.6446m33.5624.2539l-.414.5078.4765-.4531c.2618-.2501.4453-.4766.4141-.5078s-.25.1757-.4766.4531m-47.8203-.043c.004.1484.0664.3633.1485.4805.1015.1523.1172.0976.0469-.211-.1172-.5195-.1954-.6289-.1954-.2695m-54.457.4844c-.3281.3086-.5469.5586-.4883.5586s.3555-.2539.6563-.5625c.707-.7266.6016-.7227-.168.0039m24.6367-.3243c.2149.0313.5625.0313.7735 0s.039-.0585-.3867-.0585-.5977.0234-.3868.0585m65.9922.1133c.2617.1133.5781.2032.7032.1992s-.0235-.0976-.3321-.207c-.7305-.2617-.9844-.2578-.3711.0078m5.4414 0c-.5703.2618-.2304.2618.3711 0 .2617-.1133.3789-.2031.2617-.1992s-.3984.0938-.6328.1992m-103.3203.418c.2305.1953.461.3516.5156.3516s-.0937-.1563-.3242-.3516-.4609-.3515-.5117-.3515.0898.1601.3203.3515m66.5547.2461l-.4101.457.457-.414c.2499-.2266.457-.4297.457-.4571 0-.1093-.1172-.0117-.5039.4141m32.9649-.3125c.4257.1055 2.2773.1797 2.1679.0859-.0313-.0273-.6289-.082-1.3242-.1211s-1.0781-.0234-.8437.0352m-110.2071.2305c.1914.3984.9727 1.1758 1.1797 1.1758.0898 0 .0039-.1094-.1875-.2422s-.4219-.336-.5117-.4571c-.5117-.6758-.6368-.8008-.4805-.4765m96.4062.6094c.4571.4648.8672.8476.9063.8476s-.3086-.3828-.7656-.8476-.8711-.8438-.9063-.8438.3047.3789.7656.8438m22.6641-.2461l-.5547.6015.5977-.5586c.5547-.5195.6641-.6406.5547-.6406-.0234 0-.293.2695-.5977.5977m-46.3945-.3555c0 .2578.9609 1.168 1.2344 1.168.1445 0 .0546-.1016-.2188-.2501-.25-.1328-.582-.4335-.7344-.6679s-.2812-.3438-.2812-.25m-84.9922.6367l-.5586.6016.5977-.5586c.5585-.5157.664-.6407.5585-.6407-.0234 0-.2929.2696-.5976.5977m16.375-.2461c.1601.2344.4688.582.6875.7774.2617.2304.2148.1367-.1484-.2852-.7383-.8594-.8868-.9922-.5391-.4922m44.5469.5781c.0039.3008.0664.836.1328 1.1836.0898.4766.0976.3555.0391-.4922-.0782-1.1914-.1914-1.625-.1719-.6914m35.7578.6446c-.7148.6718-.7617.7343-.2109.2929.6562-.5312 1.3125-1.1718 1.1835-1.1562-.0312.0039-.4687.3906-.9726.8633m37.6016-.4453c-.2735.1484-.4415.2695-.379.2734.1485.0078.9415-.4063.9415-.4883 0-.0938-.0079-.0898-.5625.2149m-74.7149.5976l-.6953.7383.7383-.6992c.4062-.3828.7383-.7149.7383-.7383 0-.1055-.1289.0117-.7813.6992M47.714 71.625c0 .0742.2696.3867.5977.6914l.5977.5586-.5625-.6328-.5977-.6914c-.0195-.0352-.0352 0-.0352.0742m33.3047.0547c.2305.0586.6133.1054.8438.1054.3554 0 .332-.0156-.1406-.1132-.7149-.1485-1.2891-.1446-.7032.0078m33.4453.1914c0 .0391.1915.2031.4219.3711s.4219.2695.4219.2304-.1875-.207-.4219-.371-.4219-.2696-.4219-.2305m23.711.1523c-.043.1094-.0508.3164-.0196.457.0313.1563.0821.0821.1251-.2031.0781-.4804.0273-.6015-.1055-.2539m-97.5.4375c-.2696.1875-.4258.3438-.3516.3438s.3282-.1563.5586-.3477c.543-.4453.4258-.4414-.207.0039m93.2265 0c-.2695.1875-.4257.3438-.3515.3438s.3281-.1563.5586-.3477c.543-.4453.4258-.4414-.2071.0039m20.0391.625l.0234.9141h-15.7695l-.1719-1.2656-.0195.7383-.0195.7421h7.9375c9.039 0 8.3554.1016 8.1328-1.2226l-.1406-.8203.0273.914m-134.6484.1055l-.0235.8789-8.1328.0352-8.1328.039 8.1367.0352c6.7813.0273 8.1484 0 8.211-.1602.039-.1055.0508-.5351.0195-.9492l-.0508-.7578-.0273.8789m24.5195.1445c-.5547.5195-1.1914 1.0938-1.4062 1.2735-.336.2734-.3477.3007-.0625.1601.1836-.0859.8242-.6328 1.4297-1.2109.6289-.6016 1.1367-.9844 1.1914-.9024s.1562.1485.2382.1485c.0977 0 .086-.0781-.0234-.211-.25-.3008-.2461-.3008-1.3672.7422m1.6563-.0898c.8281 1.5468 5.582 4.4375 6.8671 4.1758.129-.0274-.0781-.1328-.4687-.2344-2.0195-.5274-3.8828-1.5781-5.3086-2.9883-.6758-.668-1.1641-1.0976-1.0898-.9531m20.4531.6836c0 .4257.0273.6015.0586.3906s.0351-.5625 0-.7774-.0586-.039-.0586.3868m-3.7383-.3399c-.5274.2852-.4961.4024.0351.1289.2344-.1172.4219-.246.4219-.2851 0-.0899-.0156-.086-.457.1562m20.6328.0196c.2149.0312.5313.0312.7031 0s0-.0625-.3867-.0586-.5312.0273-.3164.0586m4.1172.1132c.1562.125.4102.293.5625.3672l.2813.1367L87.4953 74c-.1523-.125-.4063-.293-.5625-.3672l-.2813-.1406.2813.2304M81.1594 74c-.7266.4453-.6094.4453.2695 0 .3828-.1914.6055-.3516.4922-.3516s-.4531.1602-.7617.3516m31.8515.2539c1.6289 1.3242 5.8594 3.4883 6.1836 3.1602.0352-.0352-.332-.2032-.8203-.3711-1.4258-.5001-2.9023-1.2618-4.2969-2.2188-1.3242-.9062-1.789-1.1562-1.0664-.5703m-85.8593-.0469c.1171.0781.3359.1446.4843.1446.3594.0038.2461-.0782-.2734-.1954-.3086-.0664-.3633-.0547-.2109.0508m9.2968.0078c-.289.0899-.3047.1133-.0703.1211.1524.0078.375-.0468.4922-.1211.2461-.1601.0742-.1601-.4219 0m48.9375-.0507c.7149.6367.9805.8203.7031.4921-.1523-.1796-.4062-.3945-.5625-.4726s-.2187-.0899-.1406-.0195m-56.8242.3242c.3516.1172 1.2266.1953 1.1133.0937-.0313-.0273-.375-.0898-.7617-.1328-.4766-.0547-.5899-.043-.3516.0391m6.4766.0078c-.2813.0898-.2969.1133-.0703.1172.1562 0 .4101-.0508.5625-.1172.3593-.1563-.0079-.1563-.4922 0m-3.4805.2422c.4492.0273 1.1445.0273 1.5508 0s.0351-.0508-.8164-.0508-1.1797.0234-.7344.0508m27.2109.039c-.1797.0742-.2031.1211-.0703.1211.1172 0 .3359-.0547.4922-.1211.1758-.0781.2031-.1211.0703-.1211-.1172 0-.3359.0547-.4922.1211m-17.1718.2657c-.0899.1484-2.1211 1.1406-2.3321 1.1406-.082 0-.2539.0586-.3906.1289-.2227.1172-.6953.2539-2.0039.582-.5039.1289-2.4375.3867-3.4492.4649-.3164.0273-.1485.0547.3789.0703.5195.0117 1.2812-.043 1.6914-.1211l1.5195-.293c1.8203-.3515 5.8203-2.0976 4.8047-2.0976-.0781 0-.1758.0546-.2187.125m13.1562.0195c.4258.0586 1.0313.1055 1.3399.1015.4843-.0038.457-.0195-.211-.1132-.4257-.0586-1.0274-.1016-1.3399-.1016-.4843.0078-.457.0234.211.1133m2.293-.043c.2109.0313.5312.0313.7031-.0039s-.0039-.0586-.3906-.0586-.5274.0274-.3125.0625m33.9375.1367c.1328.0352.3554.0352.4921 0s.0235-.0664-.246-.0664-.3828.0313-.2461.0664m1.1992.1446c.25.0312.6328.0312.8437 0s.004-.0586-.4609-.0586-.6367.0273-.3828.0586m29.8516-.0039c.1718.0351.457.0351.6328 0s.0312-.0586-.3164-.0586-.4922.0273-.3164.0586m3.7304.0039c.2149.0312.5625.0312.7734 0s.0391-.0586-.3867-.0586-.5976.0234-.3867.0586m-45.9961.5351c-.0468.1289-.082.336-.0781.4649s.0703.0468.1367-.1797c.1328-.4453.0859-.6641-.0586-.2852m-17.3281.6367c-.3047.1524-.6406.2735-.7422.2735s-.2969.0586-.4336.1328-.5937.2227-1.0195.3398-.6328.2149-.4609.2227.4531-.0469.6328-.1172.6093-.207.957-.3047.8672-.2968 1.1562-.4375c.7501-.3711.8868-.3281 1.0938.3438.5781 1.9062 1.1094 3.2344 1.125 2.8125 0-.0977-.0508-.2891-.1211-.4219-.3242-.6367-.5156-1.211-.8594-2.5352-.1797-.6953-.4336-.7539-1.3281-.3086m-34.3008.6953c-.1679.1133-.1406.1407.1407.1368.1914-.0039.9843.0273 1.7578.0625l1.4101.0625-1.1953-.1094c-.6601-.0625-1.3593-.1562-1.5508-.2031s-.4453-.0274-.5625.0507m51.4297 1.1485c-.0156.668-.0625 1.4258-.1016 1.6875l-.0703.4766.1485-.4649c.0781-.2539.125-1.0156.0976-1.6875l-.0468-1.2265-.0274 1.2148m7.6211-.1602c0 .5039.0235.711.0547.4571s.0312-.6641 0-.9141-.0547-.0469-.0547.457m-55.2852-.6054c.1758.0351.461.0351.6329 0s.0312-.0625-.3164-.0625-.4883.0273-.3165.0625m20.9493.0429c.1523.0665.4687.1211.7031.1211.3593 0 .3828-.0195.1406-.1211-.1562-.0664-.4726-.1211-.7031-.1211-.3594 0-.3828.0157-.1406.1211m5.4922 0c-.2422.1016-.2188.1211.1406.1211.2305 0 .5468-.0546.7031-.1211.2383-.1054.2188-.1211-.1406-.1211-.2344 0-.5508.0547-.7031.1211m61.2578 0c.4219.1797.7734.1797.4922 0-.1172-.0781-.3399-.1328-.4922-.1289l-.2813.0078.2813.1211m-64.3907.2422c.4454.0313 1.1719.0313 1.6172 0s.0821-.0508-.8085-.0508-1.254.0235-.8087.0508m34.5235.086c-.0391.1054-.0508.6601-.0274 1.2343l.0391 1.043.125-1.1563.1211-1.1562 1.7773.0742c.9805.043 2.1289.0156 2.5547-.0586.6368-.1132.3086-.1367-1.8711-.1523-2.0976-.0117-2.6601.0234-2.7187.1719m31.7656.0195c.5391.1172 1.7031.2031 2.8203.2031s2.2774-.0859 2.8164-.2031c.9063-.1953.9063-.1992.1406-.1016-.4257.0508-1.7578.0938-2.957.0938s-2.5312-.043-2.9609-.0938c-.7657-.0976-.7657-.0937.1406.1016M64.757 80.0156c-.0039.125.7461 1.3984 1.293 2.1953 1.0507 1.5274 3.7031 3.7813 5.2461 4.457l.957.4219c.9531.4219 2.4258.8047 2.1914.5704-.0391-.0391-.4297-.1641-.8632-.2774s-1.1212-.3672-1.5235-.5625-.8203-.3555-.9219-.3555-.1875-.0468-.1875-.1054-.1914-.1914-.4258-.2969c-.9531-.4219-2.8007-1.9961-3.7382-3.1875-.3047-.3867-.6289-.7852-.7188-.8828s-.3008-.4453-.4648-.7735c-.3125-.625-.8399-1.375-.8438-1.2031m24.7422.3359c-.0547.0586-.1016.2149-.1016.3516 0 1.9063-3.9023 5.3946-7.2265 6.461-.2969.0937-.5078.2031-.4688.2421.6446.6446 5.8399-2.9218 7.0118-4.8125.6484-1.0508 1.2187-2.6718.7851-2.2422m-13.6328.5977c.0742.1406.2461.3477.3828.457.1523.125.1172.0274-.0898-.2578-.3673-.5039-.5078-.5976-.293-.1992m-6.707.8203c.1211.1953 1.5078 1.3711 1.5078 1.2735 0-.0352-.3594-.375-.8047-.7501s-.7578-.6132-.7031-.5234m16.2187.5039l-.5586.6016.5977-.5586c.332-.3047.6015-.5742.6015-.5977 0-.1054-.125 0-.6406.5547m-8.6211 3.0274c.4453.0273 1.1758.0273 1.6211 0s.082-.0508-.8086-.0508-1.2578.0234-.8125.0508m3.9961 2.25c-.2968.2969-3.4414.4648-5.2968.2773l-.918-.0898.918.1992c1.5585.3398 4.5507.1641 5.8085-.3438.3125-.125.3086-.125-.0468-.1328-.1993-.0078-.4102.0352-.4649.0899" fill="#8c9cbc"/></svg>