<?xml version="1.0" encoding="UTF-8"?>
<svg id="Capa_1" data-name="Capa 1" xmlns="http://www.w3.org/2000/svg" viewBox="0 0 341 319">
  <defs>
    <style>
      .cls-1 {
        fill: none;
        stroke: #ff931e;
        stroke-linecap: round;
        stroke-miterlimit: 10;
        stroke-width: 15px;
      }

      .cls-2 {
        fill: #ff931e;
      }
    </style>
  </defs>
  <path class="cls-2" d="m169.1,14.25c79.08-.21,143.9,64.43,144.15,143.73.24,78.04-62.72,144.22-143.75,144.48-80.86.26-144.12-65.11-144.5-143.01C24.61,79.09,88.94,14.46,169.1,14.25ZM38.19,158.11c-.69,68.38,56.02,135.96,141.23,130.65,60.06-3.74,119.89-54.22,120.49-129.39.58-72.69-58.02-131.67-130.19-131.89-72.46-.22-131.38,58.29-131.53,130.62Z"/>
  <path class="cls-2" d="m217.25,153.11h14.61c.13,1.85.34,3.46.34,5.08.03,15.01.06,30.02.01,45.02-.04,11.57-6.32,18-17.97,18.03-30.17.09-60.35.09-90.52,0-10.88-.03-17.54-6.68-17.57-17.49-.08-30.35-.08-60.7,0-91.05.03-10.89,6.72-17.56,17.45-17.6,18.48-.06,36.96-.02,55.8-.02v14.73c-1.77.13-3.67.4-5.58.4-14.17.04-28.34,0-42.51.03-7.77.02-9.84,2.07-9.85,9.76-.03,25.51-.04,51.03,0,76.54,0,7.2,2.35,9.46,9.67,9.47,25.51.02,51.01.03,76.52,0,7.21,0,9.57-2.36,9.59-9.57.03-12.51.01-25.01.01-37.52,0-1.79,0-3.59,0-5.83Z"/>
  <g>
    <line class="cls-1" x1="146.28" y1="181.76" x2="218.32" y2="109.72"/>
    <polygon class="cls-2" points="231.04 132.96 244.2 83.84 195.08 97 231.04 132.96"/>
  </g>
</svg>