<?xml version="1.0" encoding="UTF-8"?>
<svg id="Capa_1" data-name="Capa 1" xmlns="http://www.w3.org/2000/svg" viewBox="0 0 341 319">
  <defs>
    <style>
      .cls-1 {
        fill: none;
        stroke: #ff931e;
        stroke-linecap: round;
        stroke-miterlimit: 10;
        stroke-width: 30px;
      }

      .cls-2 {
        fill: #ff931e;
      }
    </style>
  </defs>
  <path class="cls-2" d="m251.5,160.53h28.1c.25,3.57.65,6.67.65,9.76.06,28.87.12,57.75.03,86.62-.07,22.26-12.17,34.63-34.56,34.69-58.05.18-116.1.17-174.15,0-20.93-.06-33.74-12.85-33.8-33.65-.16-58.39-.16-116.78,0-175.16.05-20.95,12.92-33.78,33.58-33.85,35.55-.12,71.11-.03,107.35-.03v29.01c-4.33-.02-65.25.1-92.51.17-14.94.04-18.94,3.98-18.96,18.78-.06,49.08-.08,98.17-.02,147.25.02,13.86,4.53,18.21,18.61,18.22,49.07.04,98.14.05,147.21.01,13.88-.01,18.41-4.55,18.45-18.42.07-24.06.02-48.12.02-72.18,0-3.45,0-6.9,0-11.21Z"/>
  <g>
    <line class="cls-1" x1="114.98" y1="215.64" x2="251.59" y2="79.02"/>
    <polygon class="cls-2" points="277.03 125.51 303.35 27.27 205.11 53.58 277.03 125.51"/>
  </g>
</svg>