<?xml version="1.0" encoding="UTF-8"?>
<svg id="Capa_1" data-name="Capa 1" xmlns="http://www.w3.org/2000/svg" viewBox="0 0 604.57 196.61">
  <path d="m0,14.18C5.12,3.13,13.96-.06,25.77,0c69.86.34,139.72.18,209.57.16,17.57,0,32.84,5.14,44.53,19.02.99,1.18,3.81,1.79,5.39,1.33,11.65-3.35,23.21-3.63,34.91-.26,1.38.4,3.84-.33,4.77-1.42C336.26,5.63,350.94.21,367.87.2c71.63-.06,143.26-.05,214.89-.01,14.3,0,21.73,7.59,21.76,21.95.02,8.86-.14,17.71.05,26.56.15,6.72-2.11,12.2-6.91,16.89-8.59,8.39-17.19,16.78-25.37,25.55-2.17,2.33-3.65,5.95-4.06,9.16-1.41,11.1-1.01,22.54-3.45,33.37-7.61,33.77-35.84,58.87-71.36,61.46-25.63,1.86-51.65,2.08-77.25-.01-42.67-3.5-73.93-33.67-81.93-75.8-3.12-16.41-6.14-32.83-9.37-49.22-.29-1.48-1.49-3.25-2.78-3.98-12.27-6.92-24.81-8.18-37.65-1.35-3.19,1.7-4.65,3.89-5.31,7.63-3.22,18.18-6.37,36.41-10.55,54.39-8.67,37.26-41.15,65.73-80.82,68.4-26.8,1.8-53.97,1.48-80.77-.61-36.71-2.87-67.3-36.75-69.33-73.67-.19-3.54-1.12-7.13-.7-10.58,1.42-11.77-3.55-20.2-12.44-27.33-5.03-4.04-9.48-8.89-13.79-13.73C6.87,64.93,3.55,60.11,0,55.51c0-13.77,0-27.55,0-41.32Zm444.11,24.28c0,.06,0,.13,0,.19-18.67,0-37.36-.53-56.01.15-17.11.63-27.39,13.45-24.63,30.36,2.65,16.26,5.96,32.44,9.56,48.52,4.82,21.56,25.03,38.87,47.22,39.56,22.97.72,46,.7,68.98.01,20.78-.62,38.03-17.85,39.59-38.31,1.05-13.71,1.92-27.45,2.46-41.19.97-24.9-12.84-39.21-37.63-39.29-16.51-.05-33.02,0-49.54,0Zm-283.2.01c-17.49,0-34.99-.21-52.48.05-21.89.33-35.96,15.06-35.24,36.95.46,13.94,1.62,27.86,2.37,41.79,1.15,21.39,18.3,39.34,39.81,40,22.97.7,46.01.71,68.98-.02,22.19-.7,42.26-17.99,47.18-39.63,3.39-14.93,6.43-29.94,9.17-45,3.82-21.02-7.01-33.91-28.46-34.11-17.1-.16-34.2-.03-51.31-.03Zm-124.01,16c7.94.13,14.37-6.01,14.54-13.88.17-7.79-6.16-14.37-13.97-14.54-7.75-.17-14.36,6.18-14.55,13.98-.19,7.79,6.13,14.31,13.98,14.44Zm530.61,0c7.88-.09,14.19-6.52,14.07-14.35-.12-7.82-6.64-14.18-14.43-14.08-7.77.11-14.19,6.69-14.09,14.44.11,7.84,6.54,14.07,14.45,13.98Z"/>
</svg>