<?xml version="1.0" encoding="UTF-8"?>
<svg id="Capa_1" data-name="Capa 1" xmlns="http://www.w3.org/2000/svg" viewBox="0 0 291.56 251.45">
  <defs>
    <style>
      .cls-1 {
        fill: #fff;
      }
    </style>
  </defs>
  <g>
    <path class="cls-1" d="M36.92,64c-10.44,0-20.87,0-31.31,0C1.37,64,.01,61.31,0,52.96,0,38.73,0,24.51,.01,10.29,.02,2.95,1.5,.02,5.23,.01c21.13-.02,42.26-.02,63.39,0,3.72,0,5.15,2.76,5.15,9.91,.01,14.72,.01,29.44,0,44.16,0,7.14-1.44,9.9-5.16,9.91-10.56,.02-21.13,0-31.69,0Z"/>
    <path class="cls-1" d="M36.85,93.72c10.5,0,21,0,31.5,0,4.08,0,5.41,2.6,5.42,10.53,0,14.47,.01,28.94,0,43.41,0,7.2-1.43,10.04-5.09,10.04-21.19,.02-42.39,.02-63.58,0-3.51,0-5.07-3.01-5.08-9.78-.02-14.72-.02-29.44,0-44.16,0-7.07,1.52-10.03,5.14-10.03,10.56-.03,21.13,0,31.69-.01Z"/>
    <path class="cls-1" d="M36.85,187.44c10.5,0,21,0,31.5,0,4.08,0,5.41,2.6,5.42,10.53,0,14.47,.01,28.94,0,43.41,0,7.2-1.43,10.04-5.09,10.04-21.19,.02-42.39,.02-63.58,0-3.51,0-5.07-3.01-5.08-9.78-.02-14.72-.02-29.44,0-44.16,0-7.07,1.52-10.03,5.14-10.04,10.56-.03,21.13,0,31.69-.01Z"/>
  </g>
  <g>
    <path class="cls-1" d="M145.81,64c-10.44,0-20.87,0-31.31,0-4.24,0-5.6-2.69-5.6-11.05,0-14.22,0-28.44,0-42.66,0-7.34,1.49-10.28,5.21-10.28,21.13-.02,42.26-.02,63.39,0,3.72,0,5.15,2.76,5.15,9.91,.01,14.72,.01,29.44,0,44.16,0,7.14-1.44,9.9-5.16,9.91-10.56,.02-21.13,0-31.69,0Z"/>
    <path class="cls-1" d="M145.74,93.72c10.5,0,21,0,31.5,0,4.08,0,5.41,2.6,5.42,10.53,0,14.47,.01,28.94,0,43.41,0,7.2-1.43,10.04-5.09,10.04-21.19,.02-42.39,.02-63.58,0-3.51,0-5.07-3.01-5.08-9.78-.02-14.72-.02-29.44,0-44.16,0-7.07,1.52-10.03,5.14-10.03,10.56-.03,21.13,0,31.69-.01Z"/>
    <path class="cls-1" d="M145.74,187.44c10.5,0,21,0,31.5,0,4.08,0,5.41,2.6,5.42,10.53,0,14.47,.01,28.94,0,43.41,0,7.2-1.43,10.04-5.09,10.04-21.19,.02-42.39,.02-63.58,0-3.51,0-5.07-3.01-5.08-9.78-.02-14.72-.02-29.44,0-44.16,0-7.07,1.52-10.03,5.14-10.04,10.56-.03,21.13,0,31.69-.01Z"/>
  </g>
  <g>
    <path class="cls-1" d="M254.69,64c-10.44,0-20.87,0-31.31,0-4.24,0-5.6-2.69-5.6-11.05,0-14.22,0-28.44,0-42.66,0-7.34,1.49-10.28,5.21-10.28,21.13-.02,42.26-.02,63.39,0,3.72,0,5.15,2.76,5.15,9.91,.01,14.72,.01,29.44,0,44.16,0,7.14-1.44,9.9-5.16,9.91-10.56,.02-21.13,0-31.69,0Z"/>
    <path class="cls-1" d="M254.63,93.72c10.5,0,21,0,31.5,0,4.08,0,5.41,2.6,5.42,10.53,0,14.47,.01,28.94,0,43.41,0,7.2-1.43,10.04-5.09,10.04-21.19,.02-42.39,.02-63.58,0-3.51,0-5.07-3.01-5.08-9.78-.02-14.72-.02-29.44,0-44.16,0-7.07,1.52-10.03,5.14-10.03,10.56-.03,21.13,0,31.69-.01Z"/>
    <path class="cls-1" d="M254.63,187.44c10.5,0,21,0,31.5,0,4.08,0,5.41,2.6,5.42,10.53,0,14.47,.01,28.94,0,43.41,0,7.2-1.43,10.04-5.09,10.04-21.19,.02-42.39,.02-63.58,0-3.51,0-5.07-3.01-5.08-9.78-.02-14.72-.02-29.44,0-44.16,0-7.07,1.52-10.03,5.14-10.04,10.56-.03,21.13,0,31.69-.01Z"/>
  </g>
</svg>