<?xml version="1.0" encoding="UTF-8"?>
<svg id="Capa_1" data-name="Capa 1" xmlns="http://www.w3.org/2000/svg" viewBox="0 0 383.09 340.98">
  <defs>
    <style>
      .cls-1 {
        fill: #030302;
      }

      .cls-2 {
        fill: #7fccf5;
      }

      .cls-3 {
        fill: #020303;
      }

      .cls-4 {
        fill: #f7ad00;
      }

      .cls-5 {
        fill: #a4dbf6;
      }
    </style>
  </defs>
  <path class="cls-3" d="M383.09,201.93c-1.34,1.03-1.07,2.67-1.37,4.02-5.45,24.68-27.57,42.94-52.67,43.38-5.69,.1-8.09-1.9-9.11-7.58,1.19-5.32,3.25-7.07,8.7-7.45,1.86-.13,3.75-.14,5.58-.48,19.78-3.59,33.78-20.07,33.88-39.82,.1-20.01-13.62-36.38-33.72-40.25-7.49-1.44-9.51-4.76-7.34-12.29,2.59-8.98,2.7-17.95,.14-26.94-5.62-19.76-22.42-34.33-41.73-36.26-21.23-2.12-40.05,7.82-50.02,26.41-2.7,5.04-6.03,6.73-10.13,5.13-4.17-1.63-5.55-5.24-4.04-10.54,9.57-18.43,24.31-30.26,44.6-34.9,36.7-8.4,73.87,18.43,77.72,55.94,.58,5.64,.61,11.23-.32,16.77-.41,2.45,.08,3.31,2.44,4.16,17.27,6.19,28.69,18.19,34.72,35.5,1.08,3.11,1.04,6.51,2.66,9.45v15.74Z"/>
  <path class="cls-5" d="M221.27,99.27c-1.51,5.3-.13,8.92,4.04,10.54,4.09,1.6,7.43-.09,10.13-5.13,9.96-18.59,28.78-28.53,50.02-26.41,19.31,1.93,36.11,16.51,41.73,36.26,2.56,8.98,2.45,17.96-.14,26.94-2.17,7.53-.15,10.84,7.34,12.29,20.11,3.87,33.82,20.24,33.72,40.25-.1,19.74-14.1,36.23-33.88,39.82-1.83,.33-3.72,.35-5.58,.48-5.45,.38-7.51,2.13-8.7,7.45-4.94,0-9.88,0-14.82,0-5.03-3.44-10.04-6.99-15.95-8.7-2.98-.87-3.71-2.13-3.27-5.21,4.42-30.73-14.13-60.4-43.59-70.15-10.78-3.57-21.73-3.78-32.82-2.26,.51-3.2,1.01-6.4,1.52-9.59,5.94-.85,8.05-3.52,7.89-9.62-.36-14-4.4-26.94-11.02-39.16,4.58-.02,8.89,1.65,13.38,2.21Z"/>
  <path class="cls-3" d="M209.5,155.44c11.1-1.52,22.04-1.31,32.82,2.26,29.46,9.75,48.02,39.42,43.59,70.15-.44,3.08,.29,4.34,3.27,5.21,5.9,1.72,10.92,5.26,15.95,8.7,9.43,8.42,16.12,18.47,19.13,30.93,7.93,32.86-16.47,66.06-50.16,68.05-1.99,.12-3.99,.21-5.98,.21-58.11,.01-116.21,.07-174.32-.02-27.09-.04-47.7-11.8-60-36.03-22.39-44.1,11.39-95.84,60.87-93.88,1.12,.04,2.23,.06,3.35,.1,2.88,1.28,4.76,.5,5.8-2.59,.5-1.48,1.46-2.8,2.22-4.19,15.22-20.24,34.84-27.7,59.45-20.46,1.93,.57,2.64-.29,3.55-1.62,3.4-4.97,7.47-9.33,12.11-13.19,8.33-6.92,17.99-10.99,28.35-13.64Zm-29.11,170.5c3.12,0,6.24,0,9.35,0,27.56-.05,55.13,.37,82.67-.33,17.22-.44,29.47-9.9,35.54-25.9,6.13-16.15,2.65-30.98-9.45-43.44-6.09-6.27-13.7-9.72-22.33-11.18-6.26-1.06-8.54-4.82-6.86-10.72,.99-3.49,1.83-7.01,2.16-10.62,2.16-23.45-12.56-45.23-35.19-52.16-22.26-6.82-46.49,3.17-57.82,23.84-3.82,6.97-6.34,7.78-13.51,4.34-19.59-9.39-42.57,0-49.98,20.41-2.79,7.69-4.79,8.77-12.9,6.96-34.96-7.8-67.02,24.51-59.01,59.45,5.47,23.86,24.95,39.24,50.16,39.33,29.06,.11,58.11,.03,87.17,.03Z"/>
  <path class="cls-1" d="M207.9,97.06c6.62,12.22,10.66,25.16,11.02,39.16,.16,6.1-1.95,8.77-7.89,9.62-5.11-1.38-6.58-3.14-7.05-8.24-.36-3.97-.58-7.98-1.27-11.9-6.07-34.87-41.85-59.5-76.44-52.31-26.46,5.5-44.39,21.3-51.52,47.47-7.07,25.97,.13,48.53,19.85,66.94,4.3,4.02,4.8,6.07,2.52,11.55l-2.92,2.27c-3.7,1.17-6.72,.14-9.54-2.5-24.13-22.69-33.06-50.4-24.33-82.27,8.73-31.87,30.5-51.52,62.89-58.04,32.56-6.55,64.56,7.67,82.76,35.54,.61,.93,1.27,1.81,1.91,2.72Z"/>
  <path class="cls-3" d="M145.58,19.87c0,3.99,.1,7.98-.03,11.97-.16,5.13-3.26,8.31-7.73,8.18-4.3-.12-7.14-3.26-7.2-8.29-.09-7.85-.09-15.71,0-23.56,.06-5.01,2.94-8.1,7.3-8.17,4.51-.07,7.47,3.07,7.62,8.28,.11,3.86,.02,7.73,.02,11.59Z"/>
  <path class="cls-3" d="M92.84,46.61c-.28,3.74-1.98,6.17-5.26,7.26-3.17,1.05-6.28,.27-7.96-2.46-4.81-7.82-9.39-15.8-13.73-23.9-1.71-3.18,.02-7.2,3.1-9.02,3.08-1.82,7.51-1.4,9.4,1.67,4.88,7.92,9.37,16.09,13.96,24.19,.4,.71,.38,1.67,.5,2.26Z"/>
  <path class="cls-3" d="M210.86,25.29c-.06,1.35-.66,2.85-1.47,4.26-3.85,6.69-7.69,13.39-11.6,20.03-2.64,4.47-6.83,5.85-10.66,3.65-3.82-2.19-4.81-6.62-2.31-11.05,3.92-6.94,7.9-13.84,11.96-20.69,1.98-3.34,5.31-4.68,8.54-3.73,3.2,.94,5.53,3.96,5.54,7.52Z"/>
  <path class="cls-3" d="M54.05,85.14c-.12,5.92-5.71,9.52-10.67,6.88-7.68-4.09-15.18-8.52-22.6-13.06-3.53-2.16-4.29-6.45-2.29-9.87,1.99-3.41,6.09-4.86,9.69-2.88,7.63,4.18,15.13,8.59,22.62,13.03,2.29,1.36,3.37,3.61,3.26,5.9Z"/>
  <path class="cls-3" d="M25.28,211.16c-3.86-.17-6.2-1.8-7.33-4.93-1.2-3.31-.48-6.51,2.44-8.31,7.72-4.78,15.58-9.35,23.57-13.65,3.38-1.82,7.47-.02,9.27,3.31,1.78,3.29,1.01,7.61-2.28,9.61-7.54,4.59-15.26,8.91-22.94,13.26-.93,.52-2.13,.57-2.73,.71Z"/>
  <path class="cls-3" d="M19.85,145.75c-3.98,0-7.97,.07-11.95-.02-4.76-.11-7.99-3.29-7.9-7.62,.09-4.13,3.32-7.27,7.85-7.33,8.09-.09,16.19-.09,24.28,0,4.73,.05,7.99,3.34,7.89,7.65-.1,4.18-3.25,7.2-7.84,7.3-4.11,.09-8.22,.02-12.32,.02Z"/>
  <path class="cls-5" d="M94.2,201.61c.97-.76,1.95-1.51,2.92-2.27,2.97,1.67,5.94,3.33,8.91,5-.75,1.39-1.72,2.71-2.22,4.19-1.04,3.08-2.92,3.86-5.8,2.59-1.27-3.17-2.54-6.34-3.82-9.51Z"/>
  <path class="cls-4" d="M106.04,204.34c-2.97-1.67-5.94-3.33-8.91-5,2.28-5.48,1.78-7.53-2.52-11.55-19.72-18.4-26.93-40.97-19.85-66.94,7.13-26.17,25.05-41.97,51.52-47.47,34.6-7.19,70.37,17.44,76.44,52.31,.68,3.92,.9,7.93,1.27,11.9,.47,5.1,1.94,6.86,7.05,8.24-.51,3.2-1.01,6.4-1.52,9.59-10.36,2.65-20.02,6.72-28.35,13.64-4.64,3.86-8.71,8.22-12.11,13.19-.91,1.33-1.62,2.19-3.55,1.62-24.61-7.24-44.23,.22-59.45,20.46Z"/>
  <path class="cls-2" d="M180.4,325.94c-29.06,0-58.11,.08-87.17-.03-25.2-.09-44.68-15.47-50.16-39.33-8.02-34.94,24.05-67.25,59.01-59.45,8.1,1.81,10.11,.73,12.9-6.96,7.41-20.41,30.39-29.79,49.98-20.41,7.17,3.43,9.69,2.62,13.51-4.34,11.33-20.66,35.56-30.65,57.82-23.84,22.63,6.93,37.35,28.71,35.19,52.16-.33,3.61-1.17,7.13-2.16,10.62-1.68,5.9,.59,9.66,6.86,10.72,8.63,1.46,16.25,4.91,22.33,11.18,12.09,12.46,15.57,27.29,9.45,43.44-6.07,16-18.32,25.46-35.54,25.9-27.54,.7-55.11,.28-82.67,.33-3.12,0-6.24,0-9.35,0Z"/>
</svg>