<?xml version="1.0" encoding="UTF-8"?>
<svg id="Capa_1" data-name="Capa 1" xmlns="http://www.w3.org/2000/svg" viewBox="0 0 43.54 43.54">
  <defs>
    <style>
      .cls-1 {
        fill: #e6e6e6;
      }
    </style>
  </defs>
  <path class="cls-1" d="m43.54,21.47v.51c-.03.22-.07.44-.1.67-.13,1.12-.16,2.27-.39,3.37-1.13,5.42-3.9,9.85-8.35,13.15-5.15,3.81-10.94,5.08-17.21,3.87-5.55-1.07-10.02-3.98-13.34-8.56C.46,29.36-.75,23.63.45,17.47c1.08-5.53,3.98-9.98,8.53-13.31C12.53,1.55,16.54.33,20.96.03c.57-.04.91-.04,1.54,0,1.18.08,2.38.15,3.53.4,5.56,1.16,10.04,4.04,13.37,8.64,2.55,3.53,3.91,7.5,4.05,11.87,0,.18.06.36.09.54Zm-19.39-2.76c0-.52-.02-1,0-1.47.02-.36-.09-.5-.48-.49-1.46.02-2.92.02-4.38,0-.37,0-.48.09-.48.47.01,4.94.01,9.87,0,14.81,0,.4.13.51.51.51,1.4-.02,2.81,0,4.21,0,.62,0,.62,0,.62-.61,0-2.85,0-5.7,0-8.55,0-.87.37-1.57,1.01-2.12,1.45-1.27,3.59-.67,4.11,1.18.17.62.2,1.29.21,1.93.02,2.55.01,5.11,0,7.66,0,.3.03.52.42.52,1.5-.01,3.01,0,4.51,0,.32,0,.4-.14.4-.44-.01-1.22,0-2.44,0-3.66-.02-2.17,0-4.34-.11-6.5-.07-1.43-.61-2.74-1.6-3.81-1.18-1.28-2.7-1.75-4.41-1.74-1.28.01-2.47.34-3.45,1.2-.38.33-.7.72-1.08,1.12Zm-13.42,5.91c0,2.48,0,4.96,0,7.45,0,.36.12.47.46.47,1.46-.01,2.92-.01,4.38,0,.36,0,.5-.11.5-.49-.01-4.94,0-9.87,0-14.81,0-.36-.09-.5-.48-.49-1.46.02-2.92.02-4.38,0-.37,0-.49.09-.48.47.02,2.47,0,4.94,0,7.4Zm2.62-9.93c.11,0,.23,0,.34,0,1.02-.09,1.86-.5,2.36-1.43.5-.95.44-1.91-.13-2.82-.66-1.05-2.08-1.49-3.48-1.1-1.4.39-2.19,1.61-1.97,3.03.22,1.43,1.32,2.32,2.88,2.32Z"/>
</svg>