<?xml version="1.0" encoding="UTF-8"?>
<svg id="Capa_1" data-name="Capa 1" xmlns="http://www.w3.org/2000/svg" viewBox="0 0 43.54 43.54">
  <defs>
    <style>
      .cls-1 {
        fill: #e6e6e6;
      }
    </style>
  </defs>
  <path class="cls-1" d="m43.54,21.2v1.19c-.03.17-.07.33-.09.5-.09.86-.14,1.72-.28,2.57-.7,4.21-2.51,7.89-5.4,11.02-3.53,3.82-7.88,6.12-13.05,6.85-2.47.35-4.92.28-7.35-.23-4.85-1.02-8.94-3.38-12.14-7.17C.71,30.54-.88,24.32.46,17.43c.96-4.96,3.48-9.07,7.35-12.31C11.16,2.3,15.03.65,19.39.18,19.98.12,20.57.06,21.15,0c.4,0,.79,0,1.19,0,.26.03.53.07.79.1,1,.13,2,.18,2.98.39,4.91,1.03,9.01,3.46,12.25,7.29,2.85,3.37,4.51,7.26,4.99,11.65.06.59.12,1.18.18,1.77Zm-26.15,1.48c0,.25,0,.43,0,.61,0,4.37,0,8.74,0,13.1,0,.56,0,.56.57.56,1.63,0,3.26-.01,4.89,0,.44,0,.54-.13.54-.56-.01-4.38,0-8.76,0-13.15v-.58c.21,0,.36,0,.52,0,.99,0,1.99-.01,2.98,0,.31,0,.41-.1.43-.41.08-.99.21-1.97.31-2.96.06-.56.1-1.11.15-1.73h-4.38c0-1,0-1.94,0-2.89,0-.88.43-1.31,1.3-1.31.91,0,1.82,0,2.72,0,.25,0,.4-.04.4-.35,0-1.43,0-2.86,0-4.3,0-.24-.1-.33-.33-.33-1.74.03-3.49-.03-5.23.1-2.35.17-4.12,1.85-4.63,4.14-.31,1.4-.2,2.82-.23,4.23,0,.22,0,.44,0,.71-.82,0-1.58.02-2.35,0-.35-.01-.47.1-.46.46.02,1.39.02,2.78,0,4.17,0,.39.14.48.5.46.75-.02,1.5,0,2.32,0Z"/>
</svg>