<?xml version="1.0" encoding="UTF-8"?>
<svg id="Capa_1" data-name="Capa 1" xmlns="http://www.w3.org/2000/svg" viewBox="0 0 383.27 338.42">
  <defs>
    <style>
      .cls-1 {
        fill: #fff;
      }
    </style>
  </defs>
  <path class="cls-1" d="M0,164.05c.52-2.04,1-4.09,1.56-6.12,5.65-20.5,25.59-33.42,47.04-30.48,20.22,2.77,35.81,20.74,35.99,41.48,.18,20.9-15.14,39.03-35.63,42.17-22.45,3.44-43.47-11.13-48.14-33.36-.23-1.08-.55-2.14-.83-3.21,0-3.49,0-6.99,0-10.48Zm60.64,5.42c.04-10.2-7.97-18.35-18.14-18.47-10.12-.12-18.45,8.02-18.52,18.1-.08,10.26,8.26,18.58,18.54,18.51,9.93-.07,18.09-8.24,18.12-18.14Z"/>
  <path class="cls-1" d="M0,36.8c.47-1.65,.96-3.3,1.39-4.96C6.68,11.53,26.39-2.19,46.71,.29c21.39,2.61,37.43,19.98,37.87,40.99,.45,21.42-14.53,39.42-35.64,42.84C26.48,87.76,5.18,72.86,.76,50.44,.6,49.62,.26,48.83,0,48.03c0-3.74,0-7.49,0-11.23Zm60.64,5.66c0-10.1-8.13-18.32-18.18-18.38-10.23-.06-18.55,8.25-18.49,18.46,.06,10.03,8.31,18.19,18.39,18.21,10.02,.02,18.29-8.25,18.28-18.28Z"/>
  <path class="cls-1" d="M0,290.55c.49-1.77,1-3.54,1.47-5.32,5.33-20.03,25.17-33.7,45.25-31.16,21.48,2.71,37.41,19.98,37.85,41,.44,21.25-14.49,39.35-35.29,42.77-22.73,3.74-44.09-11.07-48.53-33.64-.16-.82-.5-1.61-.76-2.42,0-3.74,0-7.49,0-11.23Zm42.42,23.96c10.02-.01,18.25-8.3,18.22-18.34-.03-10.09-8.19-18.28-18.25-18.33-10.2-.05-18.52,8.32-18.42,18.53,.1,10.04,8.35,18.15,18.45,18.13Z"/>
  <path class="cls-1" d="M246.33,157.31c41.28,0,82.55-.01,123.83,.01,9.28,0,15.31,7.78,12.36,15.91-1.74,4.78-5.3,7.4-10.34,7.98-1.23,.14-2.49,.05-3.74,.05-81.43,0-162.86,0-244.29-.03-2.22,0-4.54-.08-6.63-.73-5.36-1.67-8.74-7.11-8.1-12.46,.7-5.86,5.33-10.3,11.21-10.7,1.24-.08,2.49-.04,3.74-.04,40.65,0,81.3,0,121.96,0Z"/>
  <path class="cls-1" d="M246.05,54.34c-40.52,0-81.05,0-121.57,0-1.74,0-3.51,.01-5.22-.25-5.51-.83-9.79-5.86-9.89-11.49-.1-5.64,3.98-10.8,9.5-11.81,1.82-.33,3.72-.38,5.58-.38,81.3-.02,162.59-.02,243.89,.01,2.23,0,4.54,.08,6.66,.67,5.19,1.46,8.71,7.01,8.2,12.42-.51,5.48-4.86,10.01-10.35,10.66-1.6,.19-3.23,.17-4.85,.17-40.65,0-81.3,0-121.95,0Z"/>
  <path class="cls-1" d="M246.03,308.19c-40.77,0-81.55,0-122.32,0-7.7,0-12.18-2.92-13.85-8.89-1.93-6.88,2.66-13.92,9.75-14.87,1.23-.16,2.49-.18,3.73-.18,81.92,0,163.84-.01,245.76,.02,2.09,0,4.29,.11,6.26,.74,5.06,1.62,8.35,7,7.84,12.29-.51,5.35-4.65,9.8-10,10.59-1.84,.27-3.73,.29-5.59,.29-40.52,.02-81.05,.01-121.57,.01Z"/>
</svg>