<?xml version="1.0" encoding="utf-8"?>
<!-- Generator: Adobe Illustrator 26.4.1, SVG Export Plug-In . SVG Version: 6.00 Build 0)  -->
<svg version="1.1" id="Capa_1" xmlns="http://www.w3.org/2000/svg" xmlns:xlink="http://www.w3.org/1999/xlink" x="0px" y="0px"
	 viewBox="0 0 287.31 408.53" style="enable-background:new 0 0 287.31 408.53;" xml:space="preserve">
<style type="text/css">
	.st0{fill:#E40127;}
	.st1{fill:#FC013A;}
</style>
<g>
	<path class="st0" d="M143.61,0.02c20.33-0.33,39.77,3.89,58.24,12.19c29.01,13.03,51.44,33.49,67.11,61.19
		c8.74,15.46,14.26,32.03,16.79,49.7c4.27,29.81-0.19,58.17-13.79,84.93c-7.99,15.72-17.91,30.37-27.04,45.45
		c-29.26,48.32-58.62,96.59-87.86,144.92c-2.48,4.1-5.18,7.81-9.46,10.14c-1.33,0-2.66,0-3.99,0c0-64.34,0-128.68,0-193.03
		c5.91-0.74,11.86-1.03,17.69-2.47c27.8-6.89,48.6-29.84,53.25-58.89c4.35-27.16-8.88-55.93-32.27-70.87
		c-11.85-7.57-24.85-10.85-38.66-11.69C143.61,47.73,143.61,23.88,143.61,0.02z"/>
	<path class="st1" d="M143.61,215.51c0,64.34,0,128.68,0,193.03c-1.06,0-2.13,0-3.19,0c-4.07-2.24-6.64-5.76-9.02-9.67
		c-36.08-59.18-72.09-118.4-108.46-177.4C5.3,192.87-2.68,162.15,0.8,128.73c3.11-29.89,14.63-56.32,34.32-79.09
		C52.38,29.69,73.61,15.59,98.58,7.2c14.58-4.9,29.64-7.18,45.03-7.18c0,23.86,0,47.72,0,71.57c-6.25,0.32-12.49,0.82-18.5,2.63
		c-27.02,8.15-44.81,25.76-51.27,53.22c-6.24,26.52,1.27,49.76,20.93,68.67C108.32,209.13,124.99,214.94,143.61,215.51z"/>
</g>
</svg>
