<?xml version="1.0" encoding="UTF-8"?>
<svg id="Capa_1" data-name="Capa 1" xmlns="http://www.w3.org/2000/svg" viewBox="0 0 211.59 211.78">
  <defs>
    <style>
      .cls-1 {
        fill: #fcbe00;
      }

      .cls-2 {
        fill: #2c2292;
      }

      .cls-3 {
        fill: #d9ecfe;
      }

      .cls-4 {
        fill: #1fcdfb;
      }

      .cls-5 {
        fill: #3d3aaa;
      }

      .cls-6 {
        fill: #fd800e;
      }

      .cls-7 {
        fill: #4b96f6;
      }

      .cls-8 {
        fill: #f1f1f1;
      }

      .cls-9 {
        fill: #fe495a;
      }
    </style>
  </defs>
  <path class="cls-2" d="m211.53,115.12c-.73,4.12-1.38,8.25-2.19,12.35-8.09,40.71-41.43,74.01-82.18,82.09-26.46,5.25-51.41,1.15-74.83-12.23-.78-.45-1.58-.87-2.37-1.3-6.88-4.46-13.25-9.56-19.19-15.21-.02-.18-.04-.36-.06-.54.81-.7,1.65-1.38,2.43-2.12,3.1-2.88,5.79-6.18,9.14-8.81.41.35.83.68,1.23,1.05,23.35,21.48,50.61,29.46,81.69,22.86,49.43-10.49,80.42-61.73,67.13-110.42-4.22-15.48-12.1-28.83-23.19-40.34,2.62-3.34,5.89-6.04,8.8-9.1.79-.83,1.48-1.86,2.81-1.94,14.9,14.73,24.21,32.49,28.58,52.9.87,4.07,1.47,8.21,2.2,12.31v18.45Z"/>
  <path class="cls-5" d="m100.81.06c2.44-.12,5.6-.2,9.77,0,1.27,0,7.07.83,8.68.95,23.93,3.24,44.42,13.37,61.49,30.44-1.33.08-2.02,1.11-2.81,1.94-2.91,3.06-6.18,5.76-8.8,9.1-.16-.04-.33-.06-.49-.07-.23-.28-.42-.59-.68-.83-19.6-18.31-42.71-26.9-69.55-24.8-22.79,1.78-42.22,11.04-57.74,27.73-20.72,22.27-28.22,48.76-22.77,78.64,3.23,17.69,11.49,32.98,24.32,45.7,0,.17.02.33.05.5-3.34,2.63-6.04,5.93-9.14,8.81-.79.73-1.62,1.41-2.43,2.12-.6-.54-1.22-1.06-1.78-1.64-5.09-5.16-9.22-11.08-13.34-17.01-5.16-9.04-9.73-18.37-12.11-28.56-9.77-41.92.93-77.77,32.77-106.81C53.04,10.97,73.27,2.79,95.89.59"/>
  <path class="cls-3" d="m42.29,169.36c-.03-.16-.05-.33-.05-.5.92,0,1.43-.67,2-1.24,6.18-6.17,12.36-12.34,18.51-18.54.68-.69,1.13-1.6,1.69-2.41.35-.06.7-.11,1.05-.17,7.98,0,15.95,0,23.93.01,10.85,0,21.71,0,32.56,0,7.86.03,15.73.08,23.59.08,5.6,0,8.95-3.34,8.97-8.91.02-10.31.02-20.61,0-30.92-.01-5.73-3.34-8.99-9.15-9-7.78-.02-15.55,0-23.33,0-.06-2.56-.12-5.11-.18-7.67.06-.33.13-.66.19-.99,1.06-.53,1.96-1.24,2.81-2.09,14.04-14.07,28.1-28.12,42.15-42.18.68-.69,1.6-1.24,1.63-2.39.17,0,.33.03.49.07,11.09,11.52,18.96,24.86,23.19,40.34,13.29,48.69-17.7,99.93-67.13,110.42-31.08,6.59-58.34-1.39-81.69-22.86-.4-.36-.82-.7-1.23-1.05Z"/>
  <path class="cls-8" d="m168.65,42.43c-.03,1.15-.95,1.7-1.63,2.39-14.05,14.06-28.11,28.11-42.15,42.18-.84.84-1.75,1.56-2.81,2.09-.03-10.47-.05-7.94-.1-18.4-.03-5.39-3.41-8.74-8.82-8.77-4.87-.03-9.75-.02-14.62,0-5.78.02-9.09,3.29-9.12,9.01-.04,7.85-.06,2.7-.09,10.55-7.59,0-15.19,0-22.78,0-6.53,0-9.69,3.11-9.69,9.55,0,15.37,0,30.73,0,46.1,0,5.57,2.11,8.22,7.59,9.54-.56.81-1.01,1.72-1.69,2.41-6.15,6.2-12.33,12.37-18.51,18.54-.57.57-1.08,1.24-2,1.24-12.83-12.72-21.09-28.01-24.32-45.7-5.45-29.88,2.05-56.36,22.77-78.64,15.52-16.68,34.95-25.95,57.74-27.73,26.84-2.1,49.95,6.5,69.55,24.8.26.24.45.55.68.83Z"/>
  <path class="cls-6" d="m89.32,88.55c.03-6.47.05-22.94.09-29.41.03-4.72,3.33-7.41,9.12-7.43,4.87-.01,9.75-.02,14.62,0,5.41.03,8.79,2.79,8.82,7.23.05,8.63.07,27.25.1,35.88-.06.27-.13.55-.19.82-9.95,8.16-19.9,16.32-29.87,24.47-.75.62-1.36,1.41-2.51,1.61-.03-1.26-.08-2.52-.08-3.78-.04-9.8-.06-19.59-.09-29.39Z"/>
  <path class="cls-4" d="m89.32,71.48c.03,11.89.06,33.77.09,45.66,0,1.53.05,3.06.08,4.59-.06.32-.13.65-.19.97-7.94,7.94-15.88,15.88-23.82,23.82-.35.06-.7.11-1.05.17-5.48-1.33-7.59-3.97-7.59-9.54,0-15.37,0-40.73,0-56.1,0-6.44,3.16-9.55,9.69-9.55,7.59,0,15.19,0,22.78,0Z"/>
  <path class="cls-1" d="m122.05,79.48c7.78,0,15.55,0,23.33.01,5.81.02,9.14,2.72,9.15,10.59.02,14.16.02,30.11,0,44.27,0,9.53-.81,12.25-8.97,12.25-7.86,0-15.73-.07-23.59-.11.03-22.34.05-44.67.08-67.01Z"/>
  <path class="cls-9" d="m122.05,97.75c-.03,16.25-.05,32.51-.08,48.76-10.86,0-21.71,0-32.56,0-.04-7.94-.07-15.88-.11-23.83.06-.32.13-.65.19-.97,1.15-.25,1.76-1.21,2.51-1.96,9.96-9.89,19.91-19.79,29.87-29.69.06,2.56.12,5.11.18,7.67Z"/>
  <path class="cls-7" d="m89.3,122.69c.04,7.94.07,15.89.11,23.83-7.98,0-15.95,0-23.93-.01,7.94-7.94,15.88-15.88,23.82-23.82Z"/>
</svg>