<?xml version="1.0" encoding="UTF-8"?>
<svg id="Capa_1" data-name="Capa 1" xmlns="http://www.w3.org/2000/svg" viewBox="0 0 986.32 252.12">
  <path d="M106.78,0c18.99,14.81,37.77,29.34,56.43,44.05,13.84,10.91,28.36,21.15,41.09,33.25,30.62,29.1,49.39,64.19,49.34,107.55,0,6.45-1.19,12.91-1.98,19.34-.24,1.92-.99,3.77-1.64,6.16-45.14-21.12-89.6-15.95-133.57,1.69,5.21-5.62,11.01-10.87,15.59-17.03,11.49-15.45,15.05-33.48,15.31-52.3,.41-29.4-6.41-57.53-16.36-84.86-6.59-18.11-14.84-35.61-22.35-53.38-.62-1.46-1.22-2.93-1.86-4.47Z"/>
  <path d="M929.16,126.94c5.35-2.76,6.07-6.52,5.06-10.71-1.21-5.01-2.54-10.01-4.3-14.84-.5-1.36-2.67-2.9-4.14-2.97-6.82-.31-13.66-.32-20.48,0-1.46,.07-3.6,1.68-4.11,3.07-1.49,4.04-2.59,8.27-3.32,12.52-1.22,7.05-.05,9.07,6.98,12.93-1.93,.11-3.1,.24-4.27,.24-12.99,.01-25.99-.27-38.98,.12-7.46,.22-12.22-2.88-15.76-9.12-4.44-7.81-9.18-15.45-13.96-23.06-.74-1.17-2.39-1.76-3.62-2.62-.46,1.31-1.28,2.61-1.32,3.93-.16,4.99-.07,9.99-.06,14.99,.02,8.16,.89,10.06,7.41,15.35h-35.09c9.27-4.39,7.8-12.3,7.83-19.63,.07-13.99-.02-27.98,.04-41.98,.03-6.73,.49-13.55-7.96-16.73l.93-1.59c16.36,.74,32.81,.66,49.04,2.5,12.52,1.42,18.28,8.13,19.04,17.75,.58,7.32-1.88,13.08-8.36,16.81-3.44,1.97-7,3.75-11.08,5.92,1.98,2.76,3.94,5.52,5.94,8.26,5.79,7.93,11.45,15.96,17.44,23.74,4.62,6,8.91,5.99,12.89-.54,3.53-5.78,6.43-12.06,8.76-18.43,5.99-16.4,11.62-32.94,17.15-49.52,1.38-4.15,3.04-6.16,7.96-5.96,11.54,.46,11.59,.12,15.41,10.92,5.88,16.63,11.68,33.28,17.53,49.92,2.49,7.07,5.29,13.95,12.97,18.71h-35.56Zm-102.28-56.69c0,4.81,.07,9.62-.03,14.43-.05,2.49,.84,3.47,3.45,3.6,9.97,.51,17.83-7.13,17.97-17.74,.16-11.93-6.18-18.66-17.08-18.5-3.17,.05-4.51,.95-4.36,4.27,.21,4.64,.05,9.29,.06,13.93Zm100.44,22.73c-3.79-11.37-7.43-22.26-11.06-33.15-.48-.02-.97-.05-1.45-.07-3.61,10.92-7.22,21.85-10.99,33.22h23.49Z"/>
  <path d="M87.28,66.82V215.2c-13.27-3.33-26.36-7.96-39.81-9.61-13.56-1.66-27.48-.37-41.69-.37,5.07-4.58,10.12-8.57,14.5-13.19,17.28-18.2,29.94-39.57,40.2-62.22,8.85-19.53,16.3-39.7,24.36-59.59,.49-1.21,.99-2.43,1.49-3.64l.95,.24Z"/>
  <path d="M345.33,84.33c4.35,1.93,8.86,3.35,12.74,5.76,11.74,7.31,11.68,22.43,.14,30.17-7.33,4.92-15.73,6.5-24.24,6.79-12.48,.42-24.98,.11-39.05,.11,9.28-4.51,8.77-11.92,8.73-19.25-.09-15.16-.07-30.32,0-45.48,.02-6.06-1.33-11.26-7.6-13.74,.25-.51,.38-.99,.5-.99,14.31,.16,28.64,.03,42.93,.71,4.83,.23,9.87,1.86,14.28,3.97,11.77,5.62,12.4,20.41,1.33,27.34-3.03,1.9-6.5,3.1-9.75,4.61Zm-21.37,21.16c0,4.65,.07,9.31-.03,13.96-.06,2.5,.82,3.51,3.44,3.62,10.23,.43,18.24-6.84,18.33-16.85,.09-10.19-8.04-18-18.16-17.66-2.5,.08-3.66,.85-3.6,3.46,.1,4.49,.03,8.97,.02,13.46Zm18.76-37.55c.1-9.29-6.09-15.78-14.9-15.87-2.73-.03-3.93,.82-3.89,3.69,.1,8.15,.17,16.3-.03,24.44-.09,3.55,1.57,4.18,4.56,3.99,8.34-.54,14.16-7.11,14.26-16.25Z"/>
  <path d="M706.1,47.54c8.19,0,15.78-.27,23.35,.06,11.11,.49,22.46,.15,33.23,2.42,17.79,3.76,28.33,16.82,28.98,32.98,.75,18.84-8.87,34.36-25.93,40.16-6.81,2.31-14.22,3.51-21.43,3.87-12.4,.61-24.85,.17-37.62-.23,6.9-3.98,7.21-10.35,7.16-16.99-.09-14.83-.03-29.65-.03-44.48,0-10.42-.1-10.67-7.71-17.79Zm27.83,5.24V122.49c18.56,2.78,31.02-4.9,35.27-22.16,1.37-5.55,1.71-11.53,1.49-17.27-.84-21.85-14.44-33.06-36.76-30.28Z"/>
  <path d="M612.19,47.56c8.24,0,16.49-.17,24.72,.15,1.61,.06,3.45,1.75,4.67,3.14,13.6,15.52,27.1,31.12,40.64,46.69,.49,.56,1.17,.94,3.24,1.08-.61-13.52-.81-27.08-2.11-40.53-.34-3.56-4.07-6.79-6.23-10.14h24.1c-9.78,6.08-9.26,15.62-9.33,24.83-.13,16.15-.04,32.31-.04,48.47v5.61c-4.8,1.12-8.35,1.04-11.77-3.05-14.94-17.88-30.22-35.47-45.39-53.16-1.71-2-3.51-3.92-5.9-6.58-.32,2.09-.67,3.29-.67,4.5-.04,12.32-.21,24.65,.06,36.97,.17,7.98,.59,16.13,9.83,21.38h-25.97c10.25-6.48,9-16.3,9.1-25.63,.12-10.82-.19-21.66,.1-32.48,.23-8.47,.14-16.51-9.05-21.25Z"/>
  <path d="M417.69,126.82c5.8-2.5,5.95-6.7,5.18-11.2q-2.99-17.34-20.47-17.34-12.17,0-15.06,11.87c-.35,1.45-.57,2.94-.83,4.41-1.06,6.21,.01,8.38,6.41,12.34h-26.53c8.59-3.81,11.11-11.22,13.7-18.27,6.88-18.73,13.45-37.58,19.9-56.46,1.24-3.63,2.98-4.78,6.77-4.72,12.34,.2,12.28,.06,16.33,11.6,6.23,17.74,12.3,35.55,19,53.11,2.05,5.37,5.98,10.03,8.83,14.67h-33.23Zm-12.8-67.44c-.46,.06-.91,.13-1.37,.19-3.64,10.95-7.28,21.9-11.06,33.29h23.46c-3.8-11.54-7.42-22.51-11.03-33.48Z"/>
  <path d="M548.17,127.12h-25.69c12.05-9.44,14.32-23.81,19.21-36.72,4.95-13.07,9.34-26.35,13.79-39.6,.85-2.52,2.06-3.26,4.63-3.32,13.62-.34,13.59-.4,18.1,12.39,5.86,16.63,11.66,33.29,17.7,49.86,2.38,6.52,5.1,13,12.58,17.23h-36.14c6.17-2.4,6.35-6.79,5.43-11.11-1.1-5.19-2.74-10.29-4.53-15.28-.38-1.07-2.4-2.14-3.7-2.18-6.82-.22-13.67-.31-20.48,.06-1.55,.08-3.76,1.84-4.34,3.34-1.44,3.69-2.32,7.64-3.06,11.56-1.38,7.34-.41,9.37,6.51,13.79Zm-.8-34.17h23.43c-3.75-11.51-7.35-22.55-10.95-33.59-.44,.02-.88,.05-1.33,.07-3.64,10.96-7.29,21.91-11.15,33.53Z"/>
  <path d="M457.78,47.8h35.44c-9.98,5.13-8.35,13.5-8.38,21.28-.06,16.33,.11,32.66-.11,48.99-.05,4.06,1.27,5.12,5.15,5.04,8.83-.18,16.33-2.61,21.56-10.29,1.83-2.7,4.19-5.04,7.27-7.26-.71,6.48-1.33,12.97-2.25,19.42-.12,.84-1.72,2.11-2.64,2.12-18.57,.12-37.14,.09-56.12-.38,6.93-3.5,7.34-9.5,7.29-15.89-.13-15-.04-29.99-.04-44.99q0-10.84-7.16-18.03Z"/>
  <path d="M531.6,202.26h-15.33c2.45-14.23,2.43-28.3,0-42.75h15.71c-5.68,5.56-2.14,12.34-3.54,19h18.21c-.85-6.54,2.41-13.39-3.85-19.14h17.62c-4.04,5.96-4.39,36.24-.06,43.04-3.13,0-5.83,0-8.52,0s-5.26,0-8.56,0c5.39-6.47,2.68-13.38,3.41-20.36h-17.82c.52,6.77-2.09,13.57,2.72,20.21Z"/>
  <path d="M592.96,203.45c-13.7,.14-24.22-9.62-24.23-22.48,0-12.42,10.54-22.47,23.79-22.67,13.96-.21,25.08,9.54,25.27,22.18,.2,13.21-10.19,22.81-24.83,22.97Zm14.08-22.97c-1.55-4.8-2.37-10.04-4.82-14.35-4.24-7.46-14.26-7.1-18.31,.47-4.94,9.26-4.95,18.82-.2,28.27,1.97,3.92,5.19,6.11,9.57,6.09,4.38-.03,7.9-2.26,9.52-6.18,1.81-4.37,2.74-9.09,4.24-14.29Z"/>
  <path d="M702.66,191.56c-.44,3.42-.87,6.84-1.34,10.54h-30.87c2.48-14.13,2.86-28.24-.17-42.64h29.03v10.47c-1.53-1.77-2.54-2.71-3.26-3.83-2.36-3.68-5.87-4.94-9.9-4.22-1.23,.22-2.84,1.95-3.08,3.22-.48,2.57-.16,5.3-.15,7.97,0,6.2,2.45,7.84,8.25,5.32,1.74-.76,3.22-2.13,5.23-3.49v9.89c-3.07-1.12-5.99-2.47-9.07-3.24-3.02-.75-4.68,.52-4.46,3.99,.22,3.48,.21,7,0,10.49-.2,3.33,1.29,5.06,4.33,4.08,3.79-1.23,7.41-3.11,10.91-5.06,1.48-.82,2.44-2.55,3.64-3.87,.3,.14,.61,.27,.91,.41Z"/>
  <path d="M0,236.04c10.89-6.35,22.72-7.77,34.97-7.13,13.3,.69,25.95,4.25,38.05,9.44,14.12,6.06,28.6,9.69,44.1,9.51-7.32,3.93-15.23,4.68-23.27,4.03-11.73-.95-22.89-4.22-33.2-9.92-18.62-10.29-38.13-11.76-58.42-6.38-.73,.19-1.48,.3-2.22,.44Z"/>
  <path d="M238.67,247.86c-7.37,4.06-15.22,4.68-23.14,4.05-11.93-.95-23.22-4.45-33.68-10.23-17.03-9.41-34.98-11.03-53.72-7.12-1.43,.3-2.86,.59-4.29,.88-.14-.55-.28-1.11-.42-1.67,6.1-1.46,12.13-3.4,18.31-4.3,14.11-2.06,27.93,.06,41.31,4.61,18.13,6.17,35.5,15.18,55.63,13.78Z"/>
  <path d="M636.92,161.91c-7.38-1.52-10.03,4.44-14.78,8.85,.34-4.33,.59-7.55,.87-11.23h38.39c.3,3.2,.61,6.57,1.01,10.91-5.01-3.59-7.3-9.85-14.83-8.7,1.02,13.34-1.69,26.95,1.76,40.44h-14.44c.69-3.39,1.85-6.65,1.93-9.94,.25-10.13,.09-20.27,.09-30.34Z"/>
  <path d="M724.77,199.71c8.3,1.62,13.31-2.13,17.05-8.55,.38,.2,.76,.4,1.14,.6-.26,3.41-.53,6.82-.81,10.42h-29.7c2.28-14.32,2.83-28.52-.36-42.89h14.65c-.66,3.52-1.8,7.04-1.89,10.58-.26,9.92-.09,19.84-.09,29.83Z"/>
  <path d="M964.84,57.01c.03-6.82,4.05-10.77,10.86-10.67,6.1,.09,10.73,4.8,10.61,10.79-.12,6.18-5.18,11.11-11.2,10.92-6.08-.19-10.3-4.72-10.27-11.04Zm10.41,9.46c5.18,.05,9.55-4.26,9.55-9.4,0-4.93-4.17-9.29-9.06-9.47-5.01-.19-9.7,4.21-9.84,9.24-.15,5.06,4.24,9.59,9.35,9.64Z"/>
  <path d="M972.14,60.12v-6.99q4.44-.67,5.66,7.8c-2.03-.24-2.78-6.18-5.66-.81Z"/>
</svg>