<?xml version="1.0" encoding="UTF-8"?>
<svg id="Capa_1" data-name="Capa 1" xmlns="http://www.w3.org/2000/svg" viewBox="0 0 691.03 138.96">
  <defs>
    <style>
      .cls-1 {
        fill: #f2c0c9;
      }
    </style>
  </defs>
  <path class="cls-1" d="M394.04,80.47c-6.1,3.12-11.46,7.3-16.75,11.61-3.73,3.04-7.54,6-11.48,8.76-8.39,5.89-17.23,6.53-26.26,1.56-6.83-3.76-13.47-7.86-20.31-11.61-4.96-2.72-10.11-5.06-16.03-4.73-4.41,.25-7.68,1.91-8.57,6.67-1.25,6.69-4.86,13.29-.31,20.14,.96,1.45-.25,2.76-1.72,3.6-1.87,1.07-3.33,.31-4.31-1.14-2.21-3.29-2.99-7.03-2.24-10.91,.87-4.55,1.86-9.1,3.14-13.56,.93-3.24,.12-4.15-3.17-3.69-2.22,.31-4.73,1.01-6.66-.84-2.05-1.97-3.15-4.58-1.86-7.21,1.34-2.71,4.23-2.95,6.95-2.63,3.2,.38,5.63,2.71,8.52,3.77,6.6-14.41,16.14-26.77,25.32-39.36,.29-.37,.89-.98,.82-1.09-.6-.83-1.35-.55-2.05-.06-8.29,2.59-16.33,5.67-22.93,11.59-1.9,1.71-4.21,2.82-6.05,.36-2.11-2.82,.13-4.41,2.4-5.85,9.36-5.96,19.75-9.44,30.29-12.46,3.89-1.11,6.75-3.01,9.37-5.98,4.08-4.63,8.65-8.76,14.39-11.35,2.76-1.24,5.6-2.32,8.67-1.53,1.88,.49,3.39,1.71,3.1,3.91-.21,1.58-1.27,2.61-3,2.84-9.23,1.24-9.93,1.59-16.54,7.91,5.53,.43,10.74-1.16,15.91-.07,1.62,.34,3.29,.53,4.88,.97,15.16,4.2,18.81,16.14,8.34,27.84-8.56,9.57-20.2,13.71-32.07,17.22-6.97,2.07-14.13,3.4-22.79,4.71,2.99,1.36,4.77,2.2,6.57,2.98,7.54,3.25,14.23,7.94,20.85,12.65,8.92,6.35,17.21,6.26,26.07-.2,7.27-5.29,14.32-10.84,21.45-16.3,5.41-4.15,10.83-8.32,17.12-11.1,8.16-3.61,12.95-2.36,18.26,4.54,1.5,1.95,1.62,4.06,.55,6.09-2.16,4.12,.37,4.9,3.54,5.07,5.41,.29,9.94-2.38,14.49-4.73,5.46-2.82,10.77-5.95,16.72-7.65,2.62-.75,6.05-2.15,7.21,1.69,1.01,3.34-2.53,3.53-4.61,4.58-.39,.19-.64,.66-1.16,1.25,4.46,2.08,10.42,1.6,11.73,8.02,10.63-5.47,20.91-10.88,31.8-15.02,5.14-1.95,10.32-3.78,15.79-4.44,2.41-.29,5.62-.76,5.9,2.74,.25,3.02-2.69,3.58-5.01,3.64-9.13,.23-14.32,6.11-18.98,12.84-.28,.4-.5,.86-.65,1.33-.09,.28,.03,.62,.1,1.37,6.29-.48,11.13-3.87,15.89-7.44,1.98-1.49,3.69-4.91,6.55-2.03,2.63,2.65-.12,4.75-1.75,6.78-.39,.49-.64,1.09-1.21,2.11,4.78,.76,8.84-.64,12.67-2.2,8.28-3.38,16.47-7.02,24.57-10.81,4.99-2.33,10.01-4.45,15.38-5.69,1.13-.26,2.54-1.01,3.37-.6,6.8,3.3,7.69-2.61,9.84-6.25,5.32-9.02,10.41-18.17,17.1-26.29,2.13-2.59,4.48-4.9,7.92-5.75,4.58-1.14,7.11,1.08,6.41,5.75-.54,3.63-2.87,6.34-5.05,9.02-7.74,9.58-15.58,19.07-24.39,27.71-3.93,3.86-7.01,11.05-7.49,17.55,6.39-1.6,12.19-4.3,17.83-7.37,12.13-6.6,24.42-12.82,38.04-15.82,3.08-.68,7.69-2.54,8.57,1.7,1,4.78-4.23,4.01-7.16,4.43-8.97,1.28-13.32,7.69-18.18,15.28,7.3-.52,12.15-3.89,16.9-7.47,1.98-1.5,3.67-4.91,6.57-2.12,2.75,2.64-.04,4.72-1.66,6.75-.39,.49-.63,1.09-1.25,2.22,4.1,.79,7.46-.62,10.81-1.55,5.3-1.47,10.2-3.94,15.12-6.36,1.78-.88,4.09-1.74,5.15,.76,.98,2.31-1.22,3.06-2.9,3.8-6.37,2.83-12.62,6.01-19.17,8.35-5.07,1.81-10.92,4.83-14.49-2.84-.79-1.71-1.96-.06-2.87,.36-3.13,1.47-5.85,3.84-9.51,4.14-2.77,.22-5.48,0-7.2-2.44-1.72-2.45-1.08-5.07,.3-7.52,1.03-1.83,2.1-3.63,2.55-6.25-7.83,4-15.66,7.99-23.48,12.02-3.69,1.9-7.25,4.1-11.05,5.75-6.05,2.63-9.18,.67-9.81-5.79-.09-.96,.24-2.18-.78-2.66-1.35-.64-2.09,.73-2.86,1.46-2.2,2.08-4.54,3.96-7.35,5.06-2.94,1.14-6.03,1.25-8.4-1.16-2.36-2.4-1.35-5.19-.23-7.9,.42-1.01,1.62-1.77,1-3.48-7.68,3.37-15.33,6.7-22.96,10.1-3.51,1.57-7.01,3.02-10.98,2.9-2.11-.06-4.56-.38-5.18-2.3-1.45-4.51-3.49-2.29-5.74-1.04-2.89,1.61-5.69,3.43-9.25,3.33-5.61-.16-8.22-3.95-5.95-9.08,.98-2.23,2.41-4.25,3.09-7.18-8.49,4.14-17,8.26-25.48,12.43-5.21,2.56-10.28,5.5-16.21,6.08-4.86,.48-8.98-2.07-9.67-5.95-.37-2.09-.13-4.04,2.36-4.8,2.24-.68,3.72,.37,4.08,2.43,.6,3.41,2.97,3.18,5.3,2.83,3.24-.49,6.34-1.9,7.6-4.96,.87-2.11-1.93-2.24-3.27-2.8-3.09-1.28-6.97-.83-8.6-4.99-.56-1.44-2.26,0-3.36,.43-5.83,2.3-10.64,6.77-17.15,7.75-3,.45-6.4,1.58-8.83,.33-5.01-2.58-7.71-.02-10.98,2.92-2.98,2.68-6.59,4.52-10.75,4.84-3.29,.25-6.46-.24-8.48-3.12-1.87-2.67-.74-5.4,.56-8,.51-1.03,1.02-2.07,1.54-3.1,.18-.32,.37-.64,.55-.96-.43,0-.85-.02-1.28-.03Zm-93.06-5.12c16.4-.87,31.64-2.77,45.69-10.03,6.75-3.49,12.59-8.09,16.43-14.83,3.78-6.64,2.07-11.28-5.04-14.05-8.92-3.47-17.97-2.51-27.05-.95-1.4,.24-2.38,1.09-3.29,2.09-10.22,11.2-18.88,23.5-26.73,37.77Zm112.55,4.12c-.18-4.6-.57-4.87-4.84-3.12-4.42,1.82-7.83,4.88-10.43,8.83-.77,1.17-2,2.58,.1,3.69,5.04,2.67,15.39-3.76,15.17-9.4Zm162.4-2.95c-9.33-1.02-17.19,4.73-18.01,12.8,6.48-3.36,12.36-7.29,18.01-12.8Z"/>
  <path class="cls-1" d="M104.32,79.92c-14.11,6.96-28.2,13.96-42.33,20.85-7.67,3.74-15.61,6.64-24.35,6.41-11.13-.3-16.87-6.42-16.1-17.55,.83-12.02,6.98-22.01,12.88-32.03,5.34-9.09,12.03-17.14,19.55-24.49,5.84-5.7,12.52-9.94,21.08-9.99,6.68-.04,10.52,3.76,10.77,10.37,.16,4.41-.77,8.64-2.29,12.68-4.19,11.08-9.92,21.35-16.89,30.93-1.36,1.87-3.04,3.47-5.42,2.19-3.09-1.65-2.58-3.8-.21-5.87,9.5-8.32,14.32-19.36,17.82-31.09,1.13-3.8,2.32-8.34-.86-11.35-3.53-3.35-7.94-.91-11.74,.53-4.07,1.55-7.5,4.27-10.59,7.34-12.45,12.35-22.31,26.37-27.18,43.42-4.14,14.48,1.14,20.4,15.94,18,12.83-2.08,24.12-8.26,35.6-13.86,11.19-5.46,22.02-11.67,33.83-15.78,4.56-1.59,9.14-3.07,14-3.41,2.04-.14,4.36-.14,4.76,2.44,.45,2.89-1.9,3.89-4.11,3.86-8.51-.11-13.78,5.02-18.5,11.03-.91,1.16-2.83,2.64-1.59,4.2,.94,1.17,2.8,.09,4.2-.43,4.41-1.64,8.39-3.99,11.97-7.03,1.69-1.44,3.35-4.06,5.83-1.75,2.51,2.33,.52,4.49-1.09,6.47-.59,.72-1.06,1.54-1.92,2.82,6.75,.15,12.35-1.77,17.71-4.22,7.39-3.38,14.59-7.18,21.88-10.77,2.68-1.32,5.44-2.43,8.41-3.04,2.28-.47,4.51-.75,5.49,1.82,1.11,2.94-1.58,3.52-3.39,4.5-.69,.37-1.67,.26-2.07,1.8,3.95,1.83,9.47,1.42,11.42,6.98,.49,1.39,2.63-.41,3.76-1.02,9.23-4.93,18.63-9.48,28.39-13.28,5.12-1.99,10.33-3.72,15.81-4.33,2.29-.25,5.24-.55,5.59,2.59,.34,3.06-2.5,3.7-4.84,3.79-10.15,.4-15.48,6.99-20.8,15.72,7.09-.68,11.85-3.79,16.45-7.23,1.06-.79,1.94-1.83,2.97-2.66,1.15-.92,2.51-1.11,3.7-.23,1.33,.98,1.84,2.43,.95,3.95-.98,1.67-2.16,3.23-3.61,5.37,3.42,.98,6.2-.24,8.91-.89,6.01-1.44,11.54-4.16,17.04-6.92,1.81-.91,4.13-1.67,5.18,.77,.99,2.3-1.23,3.03-2.9,3.77-6.23,2.75-12.43,5.54-18.69,8.22-1.67,.72-3.43,1.33-5.22,1.62-4.57,.74-8.78,.47-10.07-5.39-2.8,1.55-5.19,3.06-7.73,4.25-3.79,1.77-7.92,2.69-11.08-.8-3.07-3.38-.79-6.8,1.1-10,.65-1.09,1.91-1.91,1.64-4.2-8.88,4.35-17.51,8.61-26.16,12.82-5.06,2.46-10,5.32-15.77,5.83-4.43,.39-7.92-1.09-9.5-5.52-.71-2-.56-4.07,1.78-5.05,2.3-.97,4.02-.13,4.5,2.3,.66,3.35,3.05,3.1,5.38,2.77,3.28-.47,6.2-2.05,7.57-5.04,.83-1.82-1.68-2.09-2.88-2.6-3.21-1.36-7.29-.8-9.07-5.15-.56-1.37-2.65,0-3.81,.69-8.61,5.02-17.85,8.73-26.89,12.87-3.37,1.54-6.79,2.69-10.57,2.45-2.11-.13-4.49-.66-4.99-2.63-.93-3.68-2.57-2.36-4.51-1.25-2.72,1.57-5.31,3.47-8.59,3.8-2.96,.3-5.73,0-7.53-2.73-1.72-2.59-.76-5.1,.54-7.5,.79-1.45,1.72-2.83,2.58-4.24,.26-.45,.52-.91,.78-1.36-.75-.31-1.43-.31-1.93,.46Z"/>
  <path class="cls-1" d="M655.19,124.34c-.38-.07-1.28-.04-1.98-.39-1.79-.9-3.32-3.3-2.36-4.34,2.57-2.81-1.01-7.72,3.62-9.44,.45-.17,.99-.19,1.47-.15,2.49,.22,4.75,5.52,4.36,10.16-.2,2.43-2.08,4.1-5.11,4.16Zm.41-7.13c-1.62,.01-2.53,1.09-2.64,2.43-.11,1.35,.65,2.53,2.28,2.66,1.85,.16,2.89-.86,2.89-2.55,0-1.41-1.01-2.36-2.53-2.55Z"/>
  <path class="cls-1" d="M556.63,123.63c-3.06,1.09-7.72,1.79-8.45-.17-1.35-3.63-1.43-8.53-.02-12.11,.92-2.35,5.36-1.21,8.32,.54-1.49,.1-2.98,.17-4.47,.31-.89,.09-2.09-.3-2.26,1.18-.22,1.81,1.09,1.66,2.25,1.76,1.22,.11,2.59-.4,3.71,.7-.89,3.2-6.65-1.14-6.06,4.17,.54,4.88,5.41,.37,6.99,3.63Z"/>
  <path class="cls-1" d="M625.02,124.32c.68-2.7,2.36-4.89-1.38-6.75-1.91-.95-1.77-3.45-.67-5.35,1.26-2.17,3.34-2.72,5.59-1.95,2.09,.71,3.37,2.4,2.87,4.63-.87,3.87-3.13,6.94-6.4,9.43Zm4.43-9.52c.03-1.63-.78-2.57-2.31-2.69-1.53-.12-2.55,.66-2.68,2.24-.13,1.59,.82,2.52,2.29,2.67,1.54,.16,2.42-.78,2.7-2.23Z"/>
  <path class="cls-1" d="M643.3,118c-.65,1.74,1.29,5.83-1.22,5.81-2.44-.02-.72-4.12-1.13-6.37-.26-1.39,.27-2.93-1.48-3.79-1.02-.5-.78-1.35,.04-1.89,.8-.53,1.66-1.11,2.57-1.27,1.11-.19,1.2,.84,1.21,1.67,.03,1.8,0,3.61,0,5.84Z"/>
  <path class="cls-1" d="M579.19,112.01c1.86,.67,.28,3.23,2.72,3.28,1.24,.02,1.59,1.46,.1,1.73-2.44,.44-1.67,2.15-1.59,3.41,.08,1.23-.34,2.64,.66,3.73,.03,.03,.19-.07,.3-.11-.71-.67-2.4,.43-2.49-1.14-.22-3.6-2.43-7.27,.32-10.89Z"/>
  <path class="cls-1" d="M565.55,115.93c.62,2.77,4.62,2.59,4.85,5.71,.16,2.15-1.56,2.69-3.35,2.64-1.24-.04-3.26-1.3-3.06-1.38,4.06-1.75-3.31-5.32,1.56-6.96Z"/>
  <path class="cls-1" d="M614.22,124.19c-2.36-1.72-1.42-3.89-1.82-5.82-.33-1.56,.42-3.01-1.17-4.81-1.98-2.24,1.2-2.49,2.99-3.43v14.06Z"/>
</svg>