<?xml version="1.0" encoding="utf-8"?>
<!-- Generator: Adobe Illustrator 26.4.1, SVG Export Plug-In . SVG Version: 6.00 Build 0)  -->
<svg version="1.1" id="Capa_1" xmlns="http://www.w3.org/2000/svg" xmlns:xlink="http://www.w3.org/1999/xlink" x="0px" y="0px"
	 viewBox="0 0 211.59 211.78" style="enable-background:new 0 0 211.59 211.78;" xml:space="preserve">
<style type="text/css">
	.st0{fill:#475B61;}
	.st1{fill:#5A6D76;}
	.st2{fill:#7B8A92;}
	.st3{fill:#D9ECFE;}
	.st4{fill:#F1F1F1;}
	.st5{fill:#FD800E;}
	.st6{fill:#1FCDFB;}
	.st7{fill:#FCBE00;}
	.st8{fill:#FE495A;}
	.st9{fill:#4B96F6;}
</style>
<g>
	<path class="st0" d="M211.53,115.12c-0.73,4.12-1.38,8.25-2.19,12.35c-8.09,40.71-41.43,74.01-82.18,82.09
		c-26.46,5.25-51.41,1.15-74.83-12.23c-0.78-0.45-1.58-0.87-2.37-1.3c-6.88-4.46-13.25-9.56-19.19-15.21
		c-0.02-0.18-0.04-0.36-0.06-0.54c0.81-0.7,1.65-1.38,2.43-2.12c3.1-2.88,5.79-6.18,9.14-8.81c0.41,0.35,0.83,0.68,1.23,1.05
		c23.35,21.48,50.61,29.46,81.69,22.86c49.43-10.49,80.42-61.73,67.13-110.42c-4.22-15.48-12.1-28.83-23.19-40.34
		c2.62-3.34,5.89-6.04,8.8-9.1c0.79-0.83,1.48-1.86,2.81-1.94c14.9,14.73,24.21,32.49,28.58,52.9c0.87,4.07,1.47,8.21,2.2,12.31
		C211.53,102.82,211.53,108.97,211.53,115.12z"/>
	<path class="st1" d="M180.76,31.46c-1.33,0.08-2.02,1.11-2.81,1.94c-2.91,3.06-6.18,5.76-8.8,9.1c-0.16-0.04-0.33-0.06-0.49-0.07
		c-0.23-0.28-0.42-0.59-0.68-0.83c-19.6-18.31-42.71-26.9-69.55-24.8C75.63,18.57,56.2,27.84,40.68,44.52
		c-20.72,22.27-28.22,48.76-22.77,78.64c3.23,17.69,11.49,32.98,24.32,45.7c0,0.17,0.02,0.33,0.05,0.5
		c-3.34,2.63-6.04,5.93-9.14,8.81c-0.79,0.73-1.62,1.41-2.43,2.12c-0.6-0.54-1.22-1.06-1.78-1.64c-5.09-5.16-9.22-11.08-13.34-17.01
		c-5.16-9.04-9.73-18.37-12.11-28.56C-6.28,91.16,4.42,55.31,36.25,26.28C53.04,10.97,73.27,2.79,95.89,0.59
		c0.44-0.04,0.92,0.01,1.12-0.53c1.27,0,2.53,0,3.8,0c3.26,0.89,6.51,0.89,9.77,0c1.27,0,2.53,0,3.8,0
		c1.48,1.05,3.26,0.73,4.89,0.95C143.2,4.25,163.69,14.38,180.76,31.46z"/>
	<path class="st2" d="M110.58,0.06c-3.26,0.89-6.51,0.89-9.77,0C104.07,0.06,107.32,0.06,110.58,0.06z"/>
	<path class="st3" d="M42.29,169.36c-0.03-0.16-0.05-0.33-0.05-0.5c0.92,0,1.43-0.67,2-1.24c6.18-6.17,12.36-12.34,18.51-18.54
		c0.68-0.69,1.13-1.6,1.69-2.41c0.35-0.06,0.7-0.11,1.05-0.17c7.98,0,15.95,0.01,23.93,0.01c10.85,0,21.71,0,32.56,0
		c7.86,0.03,15.73,0.08,23.59,0.08c5.6,0,8.95-3.34,8.97-8.91c0.02-10.31,0.02-20.61,0-30.92c-0.01-5.73-3.34-8.99-9.15-9
		c-7.78-0.02-15.55-0.01-23.33-0.01c-0.06-2.56-0.12-5.11-0.18-7.67c0.06-0.33,0.13-0.66,0.19-0.99c1.06-0.53,1.96-1.24,2.81-2.09
		c14.04-14.07,28.1-28.12,42.15-42.18c0.68-0.69,1.6-1.24,1.63-2.39c0.17,0.01,0.33,0.03,0.49,0.07
		c11.09,11.52,18.96,24.86,23.19,40.34c13.29,48.69-17.7,99.93-67.13,110.42c-31.08,6.59-58.34-1.39-81.69-22.86
		C43.12,170.04,42.7,169.7,42.29,169.36z"/>
	<path class="st4" d="M168.65,42.43c-0.03,1.15-0.95,1.7-1.63,2.39C152.98,58.88,138.92,72.93,124.88,87
		c-0.84,0.84-1.75,1.56-2.81,2.09c-0.03-10.47-0.05-20.94-0.1-31.4c-0.03-5.39-3.41-8.74-8.82-8.77c-4.87-0.03-9.75-0.02-14.62,0
		c-5.78,0.02-9.09,3.29-9.12,9.01c-0.04,7.85-0.06,15.7-0.09,23.55c-7.59,0-15.19,0-22.78,0c-6.53,0-9.69,3.11-9.69,9.55
		c0,15.37,0,30.73,0,46.1c0,5.57,2.11,8.22,7.59,9.54c-0.56,0.81-1.01,1.72-1.69,2.41c-6.15,6.2-12.33,12.37-18.51,18.54
		c-0.57,0.57-1.08,1.24-2,1.24c-12.83-12.72-21.09-28.01-24.32-45.7c-5.45-29.88,2.05-56.36,22.77-78.64
		C56.2,27.84,75.63,18.57,98.42,16.79c26.84-2.1,49.95,6.5,69.55,24.8C168.23,41.84,168.43,42.15,168.65,42.43z"/>
	<path class="st5" d="M89.32,81.48c0.03-7.85,0.05-15.7,0.09-23.55c0.03-5.72,3.33-9,9.12-9.01c4.87-0.02,9.75-0.03,14.62,0
		c5.41,0.03,8.79,3.38,8.82,8.77c0.05,10.47,0.07,20.94,0.1,31.4c-0.06,0.33-0.13,0.66-0.19,0.99c-9.95,9.9-19.9,19.8-29.87,29.69
		c-0.75,0.75-1.36,1.71-2.51,1.96c-0.03-1.53-0.08-3.06-0.08-4.59C89.38,105.25,89.35,93.36,89.32,81.48z"/>
	<path class="st6" d="M89.32,81.48c0.03,11.89,0.06,23.77,0.09,35.66c0,1.53,0.05,3.06,0.08,4.59c-0.06,0.32-0.13,0.65-0.19,0.97
		c-7.94,7.94-15.88,15.88-23.82,23.82c-0.35,0.06-0.7,0.11-1.05,0.17c-5.48-1.33-7.59-3.97-7.59-9.54c0-15.37,0-30.73,0-46.1
		c0-6.44,3.16-9.55,9.69-9.55C74.13,81.47,81.73,81.47,89.32,81.48z"/>
	<path class="st7" d="M122.05,97.75c7.78,0,15.55-0.01,23.33,0.01c5.81,0.01,9.14,3.27,9.15,9c0.02,10.31,0.02,20.61,0,30.92
		c-0.01,5.57-3.37,8.91-8.97,8.91c-7.86,0-15.73-0.05-23.59-0.08C122,130.26,122.03,114,122.05,97.75z"/>
	<path class="st8" d="M122.05,97.75c-0.03,16.25-0.05,32.51-0.08,48.76c-10.86,0-21.71,0-32.56,0.01
		c-0.04-7.94-0.07-15.88-0.11-23.83c0.06-0.32,0.13-0.65,0.19-0.97c1.15-0.25,1.76-1.21,2.51-1.96
		c9.96-9.89,19.91-19.79,29.87-29.69C121.94,92.64,122,95.19,122.05,97.75z"/>
	<path class="st9" d="M89.3,122.69c0.04,7.94,0.07,15.89,0.11,23.83c-7.98,0-15.95-0.01-23.93-0.01
		C73.43,138.57,81.36,130.63,89.3,122.69z"/>
</g>
<g>
</g>
<g>
</g>
<g>
</g>
<g>
</g>
<g>
</g>
<g>
</g>
<g>
</g>
<g>
</g>
<g>
</g>
<g>
</g>
<g>
</g>
<g>
</g>
<g>
</g>
<g>
</g>
<g>
</g>
</svg>
